<?xml version="1.0" encoding="UTF-8"?>
<svg xmlns="http://www.w3.org/2000/svg" xmlns:xlink="http://www.w3.org/1999/xlink" width="177.554" height="341.639" viewBox="0 0 177.554 341.639">
<defs>
<g>
<g id="glyph-0-0">
<path d="M 5.515625 -8.796875 C 4.703125 -8.921875 4.734375 -9.1875 3.359375 -9.1875 C 1.953125 -9.1875 0.71875 -8.25 0.71875 -6.765625 C 0.71875 -5.296875 1.921875 -4.625 3.15625 -4.15625 C 3.984375 -3.84375 5.015625 -3.453125 5.015625 -2.078125 C 5.015625 -0.953125 4.390625 -0.359375 3.28125 -0.359375 C 1.984375 -0.359375 1.140625 -0.96875 0.84375 -2.34375 C 0.65625 -2.40625 0.515625 -2.375 0.375 -2.296875 C 0.4375 -1.234375 0.484375 -0.859375 0.65625 -0.1875 C 1.53125 -0.1875 1.921875 0.140625 3.171875 0.140625 C 3.796875 0.140625 4.390625 -0.015625 4.890625 -0.328125 C 5.6875 -0.828125 6.1875 -1.671875 6.1875 -2.5625 C 6.1875 -4.046875 5.078125 -4.703125 3.9375 -5.140625 C 3.09375 -5.4375 1.703125 -5.96875 1.703125 -7.140625 C 1.703125 -7.921875 2.40625 -8.703125 3.234375 -8.703125 C 4.59375 -8.703125 5.015625 -7.84375 5.296875 -6.921875 C 5.453125 -6.890625 5.640625 -6.90625 5.765625 -7 C 5.703125 -7.671875 5.65625 -8.0625 5.515625 -8.796875 Z M 5.515625 -8.796875 "/>
</g>
<g id="glyph-0-1">
<path d="M 1.734375 -3.9375 C 2 -5.515625 2.96875 -5.640625 3.3125 -5.640625 C 3.84375 -5.640625 4.46875 -5.34375 4.46875 -4.171875 C 4.46875 -4.046875 4.40625 -3.984375 4.25 -3.984375 Z M 5.390625 -1.296875 C 4.875 -0.765625 4.46875 -0.546875 3.65625 -0.546875 C 3.15625 -0.546875 2.5625 -0.84375 2.140625 -1.546875 C 1.859375 -2.015625 1.6875 -2.65625 1.6875 -3.453125 L 5.40625 -3.4375 C 5.5625 -3.4375 5.671875 -3.515625 5.671875 -3.671875 C 5.671875 -4.84375 5.25 -6.09375 3.3125 -6.09375 C 2.09375 -6.09375 0.515625 -4.9375 0.515625 -2.8125 C 0.515625 -2.03125 0.71875 -1.28125 1.171875 -0.75 C 1.640625 -0.203125 2.296875 0.140625 3.3125 0.140625 C 4.375 0.140625 5.125 -0.34375 5.671875 -1.078125 C 5.640625 -1.21875 5.546875 -1.28125 5.390625 -1.296875 Z M 5.390625 -1.296875 "/>
</g>
<g id="glyph-0-2">
<path d="M 2.5625 -5 C 2.484375 -4.890625 2.40625 -4.875 2.40625 -5 C 2.390625 -5.375 2.359375 -5.921875 2.28125 -6.0625 C 2.265625 -6.125 2.234375 -6.171875 2.125 -6.171875 C 1.734375 -6.015625 1.375 -5.890625 0.40625 -5.765625 C 0.375 -5.671875 0.40625 -5.453125 0.4375 -5.375 C 1.1875 -5.296875 1.34375 -5.234375 1.34375 -4.421875 L 1.34375 -1.703125 C 1.34375 -0.5625 1.203125 -0.5 0.359375 -0.4375 C 0.28125 -0.34375 0.28125 -0.0625 0.359375 0.03125 C 0.78125 0.015625 1.34375 0 1.890625 0 C 2.453125 0 2.875 0.015625 3.296875 0.03125 C 3.375 -0.0625 3.375 -0.34375 3.296875 -0.4375 C 2.578125 -0.5 2.4375 -0.5625 2.4375 -1.703125 L 2.4375 -3.984375 C 2.4375 -4.28125 2.5625 -4.453125 2.671875 -4.578125 C 3.203125 -5.09375 3.84375 -5.40625 4.375 -5.40625 C 4.65625 -5.40625 4.953125 -5.21875 5.125 -4.890625 C 5.265625 -4.625 5.28125 -4.234375 5.28125 -3.828125 L 5.28125 -1.703125 C 5.28125 -0.5625 5.15625 -0.5 4.421875 -0.4375 C 4.359375 -0.34375 4.359375 -0.0625 4.421875 0.03125 C 4.84375 0.015625 5.28125 0 5.84375 0 C 6.40625 0 6.90625 0.015625 7.328125 0.03125 C 7.390625 -0.0625 7.390625 -0.34375 7.328125 -0.4375 C 6.546875 -0.5 6.390625 -0.5625 6.390625 -1.703125 L 6.390625 -3.78125 C 6.390625 -4.546875 6.328125 -5.21875 6.015625 -5.65625 C 5.78125 -5.953125 5.34375 -6.125 4.859375 -6.125 C 4.171875 -6.125 3.390625 -5.9375 2.5625 -5 Z M 2.5625 -5 "/>
</g>
<g id="glyph-0-3">
<path d="M 0.59375 -5.984375 C 0.40625 -5.984375 0.34375 -5.8125 0.34375 -5.703125 L 0.34375 -5.53125 C 0.34375 -5.453125 0.359375 -5.4375 0.421875 -5.4375 L 1.234375 -5.4375 L 1.234375 -1.234375 C 1.234375 -0.25 1.671875 0.140625 2.3125 0.140625 C 2.953125 0.140625 3.65625 -0.171875 4.203125 -0.78125 C 4.171875 -0.921875 4.09375 -1 3.953125 -1.015625 C 3.59375 -0.734375 3.171875 -0.625 2.796875 -0.625 C 2.421875 -0.625 2.34375 -1.046875 2.34375 -1.90625 L 2.34375 -5.4375 L 3.796875 -5.4375 C 3.9375 -5.4375 4.125 -5.5 4.125 -5.625 L 4.125 -5.90625 C 4.125 -5.953125 4.09375 -5.984375 4.015625 -5.984375 L 2.34375 -5.984375 L 2.34375 -6.53125 C 2.34375 -7.4375 2.40625 -8 2.40625 -8 C 2.40625 -8.078125 2.359375 -8.125 2.28125 -8.125 C 2.234375 -8.125 2.109375 -8.0625 1.984375 -8 C 1.828125 -7.90625 1.6875 -7.84375 1.5 -7.796875 C 1.34375 -7.75 1.203125 -7.703125 1.203125 -7.609375 C 1.203125 -7.4375 1.234375 -7.53125 1.234375 -5.984375 Z M 0.59375 -5.984375 "/>
</g>
<g id="glyph-0-4">
<path d="M 0.796875 -0.59375 C 0.796875 -0.203125 1.125 0.140625 1.53125 0.140625 C 1.9375 0.140625 2.28125 -0.203125 2.28125 -0.59375 C 2.28125 -1 1.9375 -1.34375 1.53125 -1.34375 C 1.125 -1.34375 0.796875 -1 0.796875 -0.59375 Z M 0.796875 -0.59375 "/>
</g>
<g id="glyph-0-5">
<path d="M 2.453125 -5 C 2.421875 -5.546875 2.40625 -5.921875 2.34375 -6.0625 C 2.3125 -6.125 2.28125 -6.171875 2.171875 -6.171875 C 1.78125 -6.015625 1.421875 -5.890625 0.453125 -5.765625 C 0.4375 -5.671875 0.453125 -5.453125 0.484375 -5.375 C 1.234375 -5.296875 1.390625 -5.234375 1.390625 -4.421875 L 1.390625 -1.703125 C 1.390625 -0.546875 1.234375 -0.484375 0.359375 -0.4375 C 0.28125 -0.34375 0.28125 -0.0625 0.359375 0.03125 C 0.84375 0.015625 1.390625 0 1.953125 0 C 2.515625 0 3.15625 0.015625 3.640625 0.03125 C 3.71875 -0.0625 3.71875 -0.34375 3.640625 -0.4375 C 2.671875 -0.5 2.5 -0.546875 2.5 -1.703125 L 2.5 -3.640625 C 2.5 -4 2.671875 -4.328125 2.828125 -4.578125 C 2.984375 -4.796875 3.3125 -5.265625 3.46875 -5.265625 C 3.59375 -5.265625 3.71875 -5.234375 3.84375 -5.078125 C 3.9375 -4.9375 4.109375 -4.765625 4.34375 -4.765625 C 4.671875 -4.765625 5 -5.109375 5 -5.453125 C 5 -5.71875 4.75 -6.125 4.15625 -6.125 C 3.5 -6.125 2.9375 -5.515625 2.609375 -4.96875 C 2.53125 -4.8125 2.453125 -4.921875 2.453125 -5 Z M 2.453125 -5 "/>
</g>
<g id="glyph-0-6">
<path d="M 2.4375 -4.625 C 2.796875 -5.0625 3.453125 -5.484375 3.84375 -5.484375 C 4.75 -5.484375 5.515625 -4.484375 5.515625 -2.90625 C 5.515625 -1.765625 5.109375 -0.328125 3.546875 -0.328125 C 3.296875 -0.328125 2.796875 -0.40625 2.546875 -0.625 C 2.28125 -0.875 2.21875 -0.96875 2.21875 -1.46875 L 2.21875 -4 C 2.21875 -4.296875 2.28125 -4.421875 2.4375 -4.625 Z M 2.171875 -5.140625 C 2.15625 -5.546875 2.140625 -5.921875 2.0625 -6.0625 C 2.03125 -6.125 2.015625 -6.171875 1.890625 -6.171875 C 1.5 -6.015625 1.140625 -5.890625 0.1875 -5.765625 C 0.15625 -5.671875 0.1875 -5.453125 0.203125 -5.375 C 0.96875 -5.296875 1.109375 -5.234375 1.109375 -4.421875 L 1.109375 1.53125 C 1.109375 2.6875 0.96875 2.765625 0.109375 2.796875 C 0.03125 2.890625 0.03125 3.1875 0.109375 3.265625 C 0.59375 3.25 1.109375 3.234375 1.671875 3.234375 C 2.234375 3.234375 2.90625 3.25 3.359375 3.265625 C 3.453125 3.1875 3.453125 2.890625 3.359375 2.796875 C 2.375 2.75 2.21875 2.6875 2.21875 1.53125 L 2.21875 0.03125 C 2.21875 -0.15625 2.28125 -0.140625 2.40625 -0.0625 C 2.765625 0.0625 3.1875 0.140625 3.625 0.140625 C 4.40625 0.140625 5.109375 -0.09375 5.671875 -0.640625 C 6.328125 -1.28125 6.71875 -2.15625 6.71875 -3.28125 C 6.71875 -4.765625 5.671875 -6.125 4.234375 -6.125 C 3.59375 -6.125 2.890625 -5.6875 2.328125 -5.078125 C 2.25 -5 2.1875 -5 2.171875 -5.140625 Z M 2.171875 -5.140625 "/>
</g>
<g id="glyph-0-7">
<path d="M 5.546875 -1.265625 C 5.5 -1.390625 5.390625 -1.453125 5.265625 -1.46875 C 4.78125 -0.84375 4.1875 -0.546875 3.59375 -0.546875 C 2.5625 -0.546875 1.71875 -1.578125 1.71875 -3.203125 C 1.71875 -4.75 2.390625 -5.671875 3.3125 -5.671875 C 4.125 -5.671875 4.234375 -5.171875 4.296875 -4.6875 C 4.34375 -4.3125 4.53125 -4.1875 4.828125 -4.1875 C 5.125 -4.1875 5.515625 -4.375 5.515625 -4.796875 C 5.515625 -5.5625 4.71875 -6.125 3.375 -6.125 C 2 -6.125 0.515625 -4.890625 0.515625 -2.90625 C 0.515625 -1.109375 1.515625 0.140625 3.28125 0.140625 C 4.109375 0.140625 4.859375 -0.125 5.546875 -1.265625 Z M 5.546875 -1.265625 "/>
</g>
<g id="glyph-0-8">
<path d="M 0.578125 -2.859375 C 0.578125 -1.4375 1.515625 0.140625 3.5 0.140625 C 4.390625 0.140625 5.078125 -0.1875 5.546875 -0.640625 C 6.1875 -1.25 6.453125 -2.140625 6.453125 -2.984375 C 6.453125 -4.4375 5.671875 -6.125 3.53125 -6.125 C 2.609375 -6.125 1.859375 -5.75 1.34375 -5.15625 C 0.84375 -4.546875 0.578125 -3.734375 0.578125 -2.859375 Z M 3.328125 -5.640625 C 4.515625 -5.640625 5.265625 -4.546875 5.265625 -2.546875 C 5.265625 -0.78125 4.359375 -0.34375 3.703125 -0.34375 C 2.25 -0.34375 1.765625 -2.109375 1.765625 -3.1875 C 1.765625 -4.390625 2.0625 -5.640625 3.328125 -5.640625 Z M 3.328125 -5.640625 "/>
</g>
<g id="glyph-0-9">
<path d="M 0.671875 -1.921875 C 0.71875 -1.234375 0.765625 -0.59375 0.765625 0 C 0.90625 -0.03125 1.046875 -0.046875 1.109375 -0.046875 C 1.21875 -0.046875 1.296875 -0.046875 1.390625 -0.015625 C 1.765625 0.078125 2.15625 0.140625 2.671875 0.140625 C 3.453125 0.140625 4.890625 -0.234375 4.890625 -1.625 C 4.890625 -2.5625 4.203125 -3.125 3.25 -3.46875 C 2.40625 -3.796875 1.859375 -4 1.859375 -4.765625 C 1.859375 -5.34375 2.359375 -5.671875 2.828125 -5.671875 C 3.140625 -5.671875 3.953125 -5.546875 4.125 -4.375 C 4.21875 -4.28125 4.5 -4.296875 4.578125 -4.375 C 4.625 -4.890625 4.640625 -5.40625 4.65625 -5.859375 C 4.234375 -5.9375 3.5625 -6.125 2.828125 -6.125 C 1.796875 -6.125 0.859375 -5.453125 0.859375 -4.5625 C 0.859375 -3.546875 1.328125 -3.109375 2.40625 -2.671875 C 3.5625 -2.1875 3.828125 -1.890625 3.828125 -1.296875 C 3.828125 -0.609375 3.15625 -0.328125 2.640625 -0.328125 C 2.09375 -0.328125 1.78125 -0.5 1.640625 -0.65625 C 1.34375 -0.984375 1.1875 -1.59375 1.109375 -1.9375 C 1.015625 -2.015625 0.75 -2.015625 0.671875 -1.921875 Z M 0.671875 -1.921875 "/>
</g>
<g id="glyph-0-10">
<path d="M 3.921875 -5.03125 L 2.65625 -5.03125 L 2.65625 -7.546875 C 2.65625 -8.15625 2.8125 -8.4375 3.578125 -8.4375 L 4.625 -8.4375 C 5.671875 -8.4375 5.890625 -7.890625 6.1875 -6.921875 C 6.359375 -6.890625 6.515625 -6.921875 6.65625 -6.984375 C 6.578125 -7.5625 6.375 -8.90625 6.34375 -9.015625 C 6.34375 -9.046875 6.328125 -9.0625 6.296875 -9.0625 C 6.0625 -9.015625 5.9375 -9 5.609375 -9 L 2.046875 -9 C 1.625 -9 0.8125 -9.015625 0.25 -9.03125 C 0.171875 -8.9375 0.171875 -8.65625 0.25 -8.5625 C 1.234375 -8.53125 1.46875 -8.453125 1.46875 -7.296875 L 1.46875 -1.703125 C 1.46875 -0.546875 1.234375 -0.46875 0.25 -0.4375 C 0.171875 -0.34375 0.171875 -0.0625 0.25 0.03125 C 0.765625 0.015625 1.609375 0 2.0625 0 L 5.0625 0 C 5.734375 0 6.84375 0.03125 6.84375 0.03125 C 7.046875 -0.671875 7.25 -1.59375 7.375 -2.296875 C 7.234375 -2.390625 7.0625 -2.40625 6.875 -2.375 C 6.59375 -1.375 6.109375 -0.546875 5.046875 -0.546875 L 3.4375 -0.546875 C 2.84375 -0.546875 2.65625 -0.765625 2.65625 -1.421875 L 2.65625 -4.5 L 3.921875 -4.5 C 5.109375 -4.5 5.15625 -4.1875 5.1875 -3.5625 C 5.28125 -3.46875 5.5625 -3.46875 5.65625 -3.5625 C 5.640625 -3.921875 5.625 -4.3125 5.625 -4.78125 C 5.625 -5.171875 5.640625 -5.65625 5.65625 -5.984375 C 5.5625 -6.0625 5.28125 -6.0625 5.1875 -5.984375 C 5.15625 -5.21875 5.109375 -5.03125 3.921875 -5.03125 Z M 3.921875 -5.03125 "/>
</g>
<g id="glyph-0-11">
<path d="M 2.375 -5 C 2.359375 -5.40625 2.328125 -5.921875 2.265625 -6.0625 C 2.234375 -6.125 2.203125 -6.171875 2.09375 -6.171875 C 1.703125 -6.015625 1.34375 -5.890625 0.375 -5.765625 C 0.34375 -5.671875 0.375 -5.453125 0.40625 -5.375 C 1.15625 -5.296875 1.3125 -5.234375 1.3125 -4.421875 L 1.3125 -1.703125 C 1.3125 -0.5625 1.125 -0.484375 0.359375 -0.4375 C 0.28125 -0.34375 0.28125 -0.0625 0.359375 0.03125 C 0.78125 0.015625 1.3125 0 1.875 0 C 2.421875 0 2.859375 0.015625 3.28125 0.03125 C 3.359375 -0.0625 3.359375 -0.34375 3.28125 -0.4375 C 2.5625 -0.5 2.40625 -0.5625 2.40625 -1.703125 L 2.40625 -3.984375 C 2.40625 -4.28125 2.546875 -4.453125 2.65625 -4.578125 C 3.203125 -5.125 3.71875 -5.40625 4.15625 -5.40625 C 4.6875 -5.40625 5.078125 -5.0625 5.078125 -4.125 L 5.078125 -1.703125 C 5.078125 -0.5625 4.96875 -0.484375 4.21875 -0.4375 C 4.140625 -0.34375 4.140625 -0.0625 4.21875 0.03125 C 4.5625 0.015625 5.078125 0 5.640625 0 C 6.1875 0 6.65625 0.015625 7 0.03125 C 7.078125 -0.0625 7.078125 -0.34375 7 -0.4375 C 6.3125 -0.484375 6.1875 -0.5625 6.1875 -1.703125 L 6.1875 -3.921875 C 6.1875 -4.109375 6.1875 -4.3125 6.171875 -4.484375 C 6.84375 -5.21875 7.46875 -5.40625 8.015625 -5.40625 C 8.546875 -5.40625 8.84375 -5.09375 8.84375 -4.15625 L 8.84375 -1.703125 C 8.84375 -0.5625 8.703125 -0.484375 7.984375 -0.4375 C 7.90625 -0.34375 7.90625 -0.0625 7.984375 0.03125 C 8.328125 0.015625 8.84375 0 9.40625 0 C 9.96875 0 10.453125 0.015625 10.84375 0.03125 C 10.90625 -0.0625 10.90625 -0.34375 10.84375 -0.4375 C 10.078125 -0.484375 9.953125 -0.5625 9.953125 -1.703125 L 9.953125 -3.90625 C 9.953125 -5.15625 9.734375 -6.125 8.515625 -6.125 C 7.796875 -6.125 6.9375 -5.859375 6.203125 -5.09375 C 6.171875 -5.046875 6.078125 -4.984375 6.0625 -5.109375 C 5.9375 -5.671875 5.390625 -6.125 4.65625 -6.125 C 3.84375 -6.125 3.125 -5.65625 2.546875 -5 C 2.46875 -4.921875 2.390625 -4.828125 2.375 -5 Z M 2.375 -5 "/>
</g>
<g id="glyph-0-12">
<path d="M 2.421875 -5.0625 C 2.796875 -5.390625 3.203125 -5.515625 3.609375 -5.515625 C 4.46875 -5.515625 5.15625 -4.484375 5.15625 -3.125 C 5.15625 -1.53125 4.515625 -0.328125 3.1875 -0.328125 C 2.765625 -0.328125 2.46875 -0.640625 2.1875 -0.984375 L 2.1875 -4.484375 C 2.1875 -4.765625 2.25 -4.90625 2.421875 -5.0625 Z M 2.328125 -5.5 C 2.25 -5.40625 2.1875 -5.4375 2.1875 -5.5625 L 2.1875 -8.140625 C 2.1875 -9.046875 2.25 -9.59375 2.25 -9.59375 C 2.25 -9.703125 2.1875 -9.734375 2.0625 -9.734375 C 1.71875 -9.59375 0.671875 -9.40625 0.109375 -9.359375 C 0.078125 -9.25 0.109375 -9.03125 0.203125 -8.9375 C 0.921875 -8.90625 1.09375 -8.96875 1.09375 -7.796875 L 1.09375 -0.984375 C 1.09375 -0.453125 1.078125 -0.203125 1.03125 0 C 1.109375 0.109375 1.171875 0.171875 1.34375 0.171875 C 1.421875 0.078125 1.5625 -0.046875 1.671875 -0.171875 C 1.8125 -0.328125 1.890625 -0.328125 2.046875 -0.203125 C 2.375 0.0625 2.796875 0.140625 3.28125 0.140625 C 4.703125 0.140625 6.359375 -1.15625 6.359375 -3.375 C 6.359375 -5.078125 5.109375 -6.125 3.890625 -6.125 C 3.296875 -6.125 2.765625 -5.890625 2.328125 -5.5 Z M 2.328125 -5.5 "/>
</g>
<g id="glyph-0-13">
<path d="M 4.8125 -1.734375 C 4.8125 -1.46875 4.78125 -1.359375 4.59375 -1.1875 C 4.078125 -0.734375 3.625 -0.515625 3.28125 -0.515625 C 2.53125 -0.515625 1.75 -1.34375 1.75 -3.078125 C 1.75 -4.09375 1.9375 -4.640625 2.15625 -4.9375 C 2.578125 -5.59375 3.171875 -5.640625 3.453125 -5.640625 C 3.953125 -5.640625 4.296875 -5.453125 4.578125 -5.140625 C 4.765625 -4.90625 4.8125 -4.8125 4.8125 -4.375 Z M 4.65625 -0.703125 C 4.734375 -0.75 4.859375 -0.78125 4.875 -0.6875 C 4.90625 -0.34375 5.015625 0.140625 5.015625 0.140625 C 5.140625 0.1875 5.203125 0.171875 5.28125 0.140625 C 5.59375 -0.109375 6.078125 -0.328125 6.9375 -0.421875 C 7.015625 -0.5 7.015625 -0.71875 6.9375 -0.796875 C 6.046875 -0.859375 5.921875 -1.125 5.921875 -1.8125 L 5.921875 -8.140625 C 5.921875 -9.046875 5.96875 -9.59375 5.96875 -9.59375 C 5.96875 -9.703125 5.921875 -9.734375 5.796875 -9.734375 C 5.4375 -9.59375 4.390625 -9.40625 3.84375 -9.359375 C 3.8125 -9.25 3.84375 -9.03125 3.921875 -8.9375 C 4.640625 -8.90625 4.8125 -8.96875 4.8125 -7.796875 L 4.8125 -6.015625 C 4.8125 -5.921875 4.78125 -5.890625 4.6875 -5.890625 C 4.625 -5.890625 4.0625 -6.125 3.59375 -6.125 C 2.671875 -6.125 2.0625 -5.8125 1.5 -5.28125 C 0.90625 -4.6875 0.546875 -3.859375 0.546875 -2.828125 C 0.546875 -1.109375 1.40625 0.140625 2.921875 0.140625 C 3.453125 0.140625 3.984375 -0.140625 4.65625 -0.703125 Z M 4.65625 -0.703125 "/>
</g>
<g id="glyph-0-14">
<path d="M 4.5 -5.140625 C 4.765625 -4.828125 4.828125 -4.625 4.828125 -4.28125 L 4.828125 -1.078125 C 4.828125 -0.828125 4.8125 -0.75 4.625 -0.65625 C 4.3125 -0.484375 3.9375 -0.46875 3.71875 -0.46875 C 2.90625 -0.46875 1.6875 -1.0625 1.6875 -3.171875 C 1.6875 -4.625 2.28125 -5.65625 3.390625 -5.65625 C 3.8125 -5.65625 4.1875 -5.484375 4.5 -5.140625 Z M 4.828125 1.546875 C 4.828125 2.703125 4.671875 2.765625 3.828125 2.796875 C 3.734375 2.890625 3.734375 3.1875 3.828125 3.265625 C 4.3125 3.25 4.828125 3.234375 5.390625 3.234375 C 5.9375 3.234375 6.46875 3.25 6.9375 3.265625 C 7.015625 3.1875 7.015625 2.890625 6.9375 2.796875 C 6.078125 2.765625 5.9375 2.703125 5.9375 1.546875 L 5.9375 -5.8125 C 5.9375 -6.015625 5.875 -6.171875 5.71875 -6.171875 C 5.625 -6.171875 5.546875 -6.0625 5.421875 -5.90625 C 5.25 -5.65625 5.1875 -5.609375 5.015625 -5.71875 C 4.578125 -6 4.03125 -6.125 3.453125 -6.125 C 1.75 -6.125 0.484375 -4.734375 0.484375 -2.890625 C 0.484375 -1.59375 1.375 0.140625 3.375 0.140625 C 3.75 0.140625 4.21875 0.0625 4.453125 -0.078125 C 4.765625 -0.265625 4.828125 -0.296875 4.828125 0 Z M 4.828125 1.546875 "/>
</g>
<g id="glyph-0-15">
<path d="M 3.03125 0.140625 C 3.578125 0.140625 4.234375 -0.140625 4.90625 -0.703125 C 4.984375 -0.75 5.109375 -0.78125 5.125 -0.6875 C 5.15625 -0.328125 5.28125 0.140625 5.28125 0.140625 C 5.390625 0.1875 5.453125 0.171875 5.546875 0.140625 C 5.84375 -0.109375 6.328125 -0.328125 7.1875 -0.421875 C 7.265625 -0.5 7.265625 -0.71875 7.1875 -0.796875 C 6.296875 -0.859375 6.171875 -1.125 6.171875 -1.8125 L 6.171875 -4.5 C 6.171875 -4.90625 6.21875 -5.9375 6.21875 -5.9375 C 6.21875 -5.96875 6.1875 -6.015625 6.109375 -6.015625 C 6.046875 -6 5.828125 -5.984375 5.625 -5.984375 C 5.171875 -5.984375 4.671875 -6 4.203125 -6.015625 C 4.109375 -5.9375 4.109375 -5.640625 4.203125 -5.546875 C 4.890625 -5.515625 5.0625 -5.34375 5.0625 -4.421875 L 5.0625 -1.734375 C 5.0625 -1.46875 5.03125 -1.359375 4.84375 -1.1875 C 4.328125 -0.734375 3.796875 -0.515625 3.453125 -0.515625 C 3.03125 -0.515625 2.328125 -0.71875 2.328125 -1.953125 L 2.328125 -4.5 C 2.328125 -4.90625 2.390625 -5.9375 2.390625 -5.9375 C 2.390625 -5.96875 2.34375 -6.015625 2.28125 -6.015625 C 2.203125 -6 2 -5.984375 1.78125 -5.984375 C 1.34375 -5.984375 0.84375 -6 0.359375 -6.015625 C 0.28125 -5.9375 0.28125 -5.640625 0.359375 -5.546875 C 1.03125 -5.5 1.234375 -5.34375 1.234375 -4.4375 L 1.234375 -1.765625 C 1.234375 -0.796875 1.640625 0.140625 3.03125 0.140625 Z M 3.03125 0.140625 "/>
</g>
<g id="glyph-0-16">
<path d="M 2.84375 2.234375 C 3.0625 1.84375 3.25 1.453125 3.421875 1.03125 C 4.53125 -1.65625 5.15625 -3.09375 5.890625 -4.65625 C 6.171875 -5.25 6.359375 -5.46875 7.015625 -5.546875 C 7.109375 -5.640625 7.109375 -5.9375 7.015625 -6.015625 C 6.734375 -6 6.421875 -5.984375 6.03125 -5.984375 C 5.609375 -5.984375 5.171875 -6 4.765625 -6.015625 C 4.671875 -5.9375 4.671875 -5.640625 4.765625 -5.546875 C 5.203125 -5.515625 5.65625 -5.421875 5.421875 -4.921875 L 4.046875 -1.734375 C 3.953125 -1.5 3.828125 -1.46875 3.71875 -1.75 L 2.46875 -4.640625 C 2.21875 -5.234375 2.15625 -5.5 2.9375 -5.546875 C 3.015625 -5.640625 3.015625 -5.9375 2.9375 -6.015625 C 2.40625 -6 1.859375 -5.984375 1.359375 -5.984375 C 0.875 -5.984375 0.5 -6 0.21875 -6.015625 C 0.140625 -5.9375 0.140625 -5.640625 0.21875 -5.546875 C 0.78125 -5.484375 0.96875 -5.359375 1.328125 -4.5 L 2.90625 -0.84375 C 3.03125 -0.5625 3.234375 0.078125 3.09375 0.46875 C 2.9375 0.9375 2.765625 1.328125 2.546875 1.765625 C 2.40625 2.03125 2.203125 2.15625 1.859375 2.15625 C 1.65625 2.15625 1.609375 2.125 1.453125 2.125 C 1.046875 2.125 0.84375 2.546875 0.84375 2.71875 C 0.84375 3.015625 1.109375 3.234375 1.5 3.234375 C 1.78125 3.234375 2.34375 3.125 2.84375 2.234375 Z M 2.84375 2.234375 "/>
</g>
<g id="glyph-0-17">
<path d="M 2.078125 0 L 5.046875 0 C 5.421875 0 6.71875 0.03125 6.71875 0.03125 C 6.84375 -0.671875 6.984375 -1.578125 7.078125 -2.296875 C 6.9375 -2.375 6.78125 -2.40625 6.609375 -2.375 C 6.328125 -1.375 5.8125 -0.546875 4.34375 -0.546875 L 3.453125 -0.546875 C 2.921875 -0.546875 2.671875 -0.8125 2.671875 -1.515625 L 2.671875 -7.296875 C 2.671875 -8.453125 2.90625 -8.53125 3.875 -8.5625 C 3.96875 -8.65625 3.96875 -8.9375 3.875 -9.03125 C 3.25 -9.015625 2.59375 -9 2.0625 -9 C 1.5625 -9 0.90625 -9.015625 0.265625 -9.03125 C 0.1875 -8.9375 0.1875 -8.65625 0.265625 -8.5625 C 1.234375 -8.53125 1.484375 -8.453125 1.484375 -7.296875 L 1.484375 -1.703125 C 1.484375 -0.546875 1.234375 -0.46875 0.265625 -0.4375 C 0.1875 -0.34375 0.1875 -0.0625 0.265625 0.03125 C 0.8125 0.015625 1.609375 0 2.078125 0 Z M 2.078125 0 "/>
</g>
<g id="glyph-0-18">
<path d="M 4.890625 -1.703125 L 4.890625 -7.03125 C 4.890625 -7.921875 5.015625 -8.453125 5.53125 -8.453125 L 5.828125 -8.453125 C 6.875 -8.453125 7.53125 -8.09375 7.765625 -7.015625 C 7.921875 -7.015625 8.125 -7.03125 8.25 -7.09375 C 8.15625 -7.734375 8.078125 -8.4375 8.0625 -9.0625 C 8.0625 -9.078125 8.03125 -9.109375 8.015625 -9.109375 C 7.546875 -9.0625 6 -9 4.890625 -9 L 3.703125 -9 C 2.625 -9 0.984375 -9.0625 0.453125 -9.109375 C 0.421875 -9.109375 0.390625 -9.078125 0.390625 -9.0625 C 0.328125 -8.4375 0.203125 -7.71875 0.046875 -7.046875 C 0.1875 -6.984375 0.34375 -6.984375 0.515625 -6.984375 C 0.796875 -8.09375 1.4375 -8.453125 2.359375 -8.453125 L 3.046875 -8.453125 C 3.5625 -8.453125 3.703125 -7.921875 3.703125 -7.078125 L 3.703125 -1.703125 C 3.703125 -0.546875 3.453125 -0.46875 2.34375 -0.4375 C 2.265625 -0.34375 2.265625 -0.0625 2.34375 0.03125 C 3.03125 0.015625 3.734375 0 4.296875 0 C 4.828125 0 5.546875 0.015625 6.234375 0.03125 C 6.328125 -0.0625 6.328125 -0.34375 6.234375 -0.4375 C 5.125 -0.46875 4.890625 -0.546875 4.890625 -1.703125 Z M 4.890625 -1.703125 "/>
</g>
<g id="glyph-0-19">
<path d="M 9.25 -1.625 C 9.328125 -0.484375 9.265625 -0.46875 8.359375 -0.4375 C 8.28125 -0.34375 8.28125 -0.0625 8.359375 0.03125 C 8.875 0.015625 9.4375 0 9.84375 0 C 10.265625 0 10.90625 0.015625 11.375 0.03125 C 11.453125 -0.0625 11.453125 -0.34375 11.375 -0.4375 C 10.421875 -0.46875 10.375 -0.53125 10.296875 -1.6875 L 9.875 -7.5625 C 9.828125 -8.3125 9.890625 -8.515625 10.84375 -8.5625 C 10.921875 -8.65625 10.921875 -8.9375 10.84375 -9.03125 L 9.015625 -9 L 6.0625 -1.921875 C 6 -1.78125 5.953125 -1.734375 5.9375 -1.734375 C 5.90625 -1.734375 5.859375 -1.796875 5.8125 -1.90625 L 2.953125 -9 L 0.9375 -9.03125 C 0.84375 -8.9375 0.84375 -8.65625 0.9375 -8.5625 C 1.890625 -8.515625 1.984375 -8.484375 1.890625 -7.4375 L 1.328125 -1.6875 C 1.234375 -0.84375 1.078125 -0.5 0.28125 -0.4375 C 0.203125 -0.34375 0.203125 -0.0625 0.28125 0.03125 C 0.703125 0.015625 1.140625 0 1.484375 0 C 1.8125 0 2.375 0.015625 2.796875 0.03125 C 2.875 -0.0625 2.875 -0.34375 2.796875 -0.4375 C 1.875 -0.5 1.796875 -0.9375 1.875 -1.71875 L 2.40625 -7.3125 L 2.421875 -7.3125 L 5.3125 -0.0625 C 5.359375 0.03125 5.4375 0.140625 5.53125 0.140625 C 5.609375 0.140625 5.671875 0.046875 5.71875 -0.0625 L 8.859375 -7.453125 L 8.890625 -7.453125 Z M 9.25 -1.625 "/>
</g>
<g id="glyph-0-20">
<path d="M 1.328125 -1.703125 C 1.328125 -0.546875 1.171875 -0.46875 0.328125 -0.4375 C 0.234375 -0.34375 0.234375 -0.0625 0.328125 0.03125 C 0.8125 0.015625 1.328125 0 1.890625 0 C 2.4375 0 2.96875 0.015625 3.4375 0.03125 C 3.515625 -0.0625 3.515625 -0.34375 3.4375 -0.4375 C 2.578125 -0.46875 2.421875 -0.546875 2.421875 -1.703125 L 2.421875 -8.140625 C 2.421875 -9.046875 2.484375 -9.59375 2.484375 -9.59375 C 2.484375 -9.703125 2.421875 -9.734375 2.296875 -9.734375 C 1.953125 -9.59375 0.90625 -9.40625 0.34375 -9.359375 C 0.328125 -9.25 0.34375 -9.03125 0.4375 -8.9375 C 1.234375 -8.890625 1.328125 -8.84375 1.328125 -7.796875 Z M 1.328125 -1.703125 "/>
</g>
<g id="glyph-0-21">
<path d="M 1.25 -8.359375 C 1.25 -8 1.59375 -7.625 1.921875 -7.625 C 2.3125 -7.625 2.65625 -8.015625 2.65625 -8.296875 C 2.65625 -8.640625 2.359375 -9.03125 1.984375 -9.03125 C 1.640625 -9.03125 1.25 -8.6875 1.25 -8.359375 Z M 2.53125 -1.703125 L 2.53125 -4.484375 C 2.53125 -5.171875 2.578125 -6.0625 2.578125 -6.0625 C 2.578125 -6.125 2.515625 -6.171875 2.40625 -6.171875 C 2.015625 -6.015625 1.453125 -5.890625 0.484375 -5.765625 C 0.453125 -5.671875 0.484375 -5.453125 0.515625 -5.375 C 1.28125 -5.296875 1.421875 -5.21875 1.421875 -4.421875 L 1.421875 -1.703125 C 1.421875 -0.546875 1.265625 -0.5 0.421875 -0.4375 C 0.328125 -0.34375 0.328125 -0.0625 0.421875 0.03125 C 0.875 0.015625 1.421875 0 1.984375 0 C 2.546875 0 3.0625 0.015625 3.53125 0.03125 C 3.609375 -0.0625 3.609375 -0.34375 3.53125 -0.4375 C 2.671875 -0.484375 2.53125 -0.546875 2.53125 -1.703125 Z M 2.53125 -1.703125 "/>
</g>
<g id="glyph-0-22">
<path d="M 2.640625 -7.734375 C 2.640625 -8.140625 2.84375 -8.625 3.84375 -8.625 C 4.8125 -8.625 5.78125 -8.296875 5.78125 -6.53125 C 5.78125 -5.015625 5.046875 -4.40625 3.703125 -4.40625 C 3.34375 -4.40625 2.796875 -4.4375 2.640625 -4.484375 Z M 1.453125 -7.296875 L 1.453125 -1.703125 C 1.453125 -0.546875 1.21875 -0.46875 0.234375 -0.4375 C 0.15625 -0.34375 0.15625 -0.0625 0.234375 0.03125 C 0.859375 0.015625 1.546875 0 2.046875 0 C 2.546875 0 3.359375 0.015625 4.0625 0.03125 C 4.140625 -0.0625 4.140625 -0.34375 4.0625 -0.4375 C 2.96875 -0.484375 2.640625 -0.546875 2.640625 -1.703125 L 2.640625 -4.078125 C 2.9375 -3.984375 3.28125 -3.9375 3.765625 -3.9375 C 6.3125 -3.9375 7.078125 -5.59375 7.078125 -6.78125 C 7.078125 -7.609375 6.53125 -9.09375 3.953125 -9.09375 C 3.421875 -9.09375 2.59375 -9 2.03125 -9 C 1.515625 -9 0.796875 -9.015625 0.234375 -9.03125 C 0.15625 -8.9375 0.15625 -8.65625 0.234375 -8.5625 C 1.21875 -8.53125 1.453125 -8.453125 1.453125 -7.296875 Z M 1.453125 -7.296875 "/>
</g>
<g id="glyph-0-23">
<path d="M 3.671875 -3.953125 C 3.359375 -3.953125 3.265625 -3.984375 3.328125 -4.125 L 4.75 -7.75 L 4.828125 -7.75 L 6.140625 -3.953125 Z M 2.15625 -1.109375 L 2.9375 -3.125 C 3 -3.3125 3.078125 -3.359375 3.421875 -3.359375 L 6.359375 -3.359375 L 7.171875 -1 C 7.34375 -0.53125 6.8125 -0.46875 6.140625 -0.4375 C 6.0625 -0.34375 6.0625 -0.0625 6.140625 0.03125 C 6.65625 0.015625 7.421875 0 7.96875 0 C 8.546875 0 9.0625 0.015625 9.5625 0.03125 C 9.640625 -0.0625 9.640625 -0.34375 9.5625 -0.4375 C 9.015625 -0.484375 8.546875 -0.53125 8.296875 -1.203125 L 5.421875 -9.1875 C 5.21875 -9.0625 4.84375 -8.90625 4.65625 -8.90625 L 1.5 -1.421875 C 1.125 -0.5625 0.71875 -0.46875 0.09375 -0.4375 C 0.015625 -0.34375 0.015625 -0.0625 0.09375 0.03125 C 0.453125 0.015625 0.921875 0 1.34375 0 C 1.90625 0 2.609375 0.015625 3.125 0.03125 C 3.203125 -0.0625 3.203125 -0.34375 3.125 -0.4375 C 2.59375 -0.46875 1.9375 -0.53125 2.15625 -1.109375 Z M 2.15625 -1.109375 "/>
</g>
<g id="glyph-0-24">
<path d="M 1.25 -5.4375 L 1.25 -1.234375 C 1.25 -0.25 1.671875 0.140625 2.328125 0.140625 C 3.03125 0.140625 3.671875 -0.265625 4.03125 -0.8125 C 3.984375 -0.953125 3.9375 -1 3.8125 -1.015625 C 3.59375 -0.84375 3.203125 -0.625 2.8125 -0.625 C 2.4375 -0.625 2.359375 -1.046875 2.359375 -1.90625 L 2.359375 -5.4375 L 5.296875 -5.4375 L 5.296875 -1.234375 C 5.296875 -0.25 5.734375 0.140625 6.375 0.140625 C 7.015625 0.140625 7.71875 -0.171875 8.265625 -0.78125 C 8.234375 -0.921875 8.15625 -1 8.015625 -1.015625 C 7.640625 -0.734375 7.234375 -0.625 6.859375 -0.625 C 6.484375 -0.625 6.40625 -1.046875 6.40625 -1.90625 L 6.40625 -5.4375 L 7.859375 -5.4375 C 8 -5.4375 8.1875 -5.5 8.1875 -5.625 L 8.1875 -5.90625 C 8.1875 -5.953125 8.15625 -5.984375 8.078125 -5.984375 L 6.40625 -5.984375 L 6.40625 -6.53125 C 6.40625 -7.4375 6.453125 -8 6.453125 -8 C 6.453125 -8.09375 6.40625 -8.140625 6.28125 -8.140625 L 5.46875 -7.765625 C 5.390625 -7.71875 5.265625 -7.6875 5.28125 -7.59375 C 5.296875 -7.265625 5.296875 -7.140625 5.296875 -5.984375 C 4.71875 -5.984375 3.84375 -5.984375 2.359375 -5.984375 L 2.359375 -6.390625 C 2.359375 -7.296875 2.40625 -7.859375 2.40625 -7.859375 C 2.40625 -7.953125 2.359375 -8 2.234375 -8 L 1.421875 -7.625 C 1.34375 -7.578125 1.21875 -7.546875 1.234375 -7.453125 C 1.25 -7.125 1.25 -7.140625 1.25 -5.984375 L 0.609375 -5.984375 C 0.421875 -5.984375 0.359375 -5.8125 0.359375 -5.703125 L 0.359375 -5.53125 C 0.359375 -5.453125 0.375 -5.4375 0.4375 -5.4375 Z M 1.25 -5.4375 "/>
</g>
<g id="glyph-0-25">
<path d="M 3.484375 -4.71875 C 3.640625 -4.421875 4.765625 -2.796875 5.546875 -1.765625 C 4.875 -0.828125 4.375 -0.328125 3.375 -0.328125 C 2.5 -0.328125 1.75 -0.8125 1.75 -2.171875 C 1.75 -3.171875 2.046875 -3.921875 3.484375 -4.71875 Z M 5.875 -1.3125 L 6.28125 -0.796875 C 6.9375 0.109375 7.453125 0.140625 7.890625 0.140625 C 8.375 0.140625 9 -0.25 9.328125 -1.234375 C 9.25 -1.296875 9.1875 -1.375 9.03125 -1.375 C 8.75 -0.828125 8.421875 -0.609375 7.96875 -0.609375 C 7.75 -0.609375 7.328125 -0.890625 6.890625 -1.5 L 6.390625 -2.1875 C 6.953125 -2.984375 7.25 -3.546875 7.625 -4.21875 C 8.28125 -5.359375 8.375 -5.421875 9.21875 -5.484375 C 9.3125 -5.5625 9.3125 -5.859375 9.21875 -5.9375 C 8.9375 -5.9375 8.53125 -5.921875 8.046875 -5.921875 C 7.578125 -5.921875 7 -5.9375 6.71875 -5.9375 C 6.640625 -5.859375 6.640625 -5.5625 6.71875 -5.484375 C 7.484375 -5.4375 7.6875 -5.375 7.15625 -4.390625 C 6.921875 -3.953125 6.578125 -3.34375 6.078125 -2.609375 C 5.4375 -3.46875 4.625 -4.625 4.375 -5.0625 L 4.328125 -5.171875 C 5.484375 -5.84375 6.40625 -6.75 6.40625 -7.515625 C 6.40625 -8.40625 5.59375 -9.03125 4.625 -9.03125 C 3.21875 -9.03125 2.46875 -8.03125 2.46875 -7.21875 C 2.46875 -6.6875 2.671875 -6.140625 3.1875 -5.25 C 1.34375 -4.21875 0.59375 -3.28125 0.59375 -2.171875 C 0.59375 -0.46875 1.78125 0.140625 3.28125 0.140625 C 4.46875 0.140625 5.234375 -0.4375 5.875 -1.3125 Z M 4.03125 -5.703125 C 3.671875 -6.390625 3.5 -6.921875 3.5 -7.234375 C 3.5 -8.15625 4.1875 -8.5625 4.546875 -8.5625 C 5.125 -8.5625 5.4375 -8.15625 5.4375 -7.515625 C 5.4375 -7.015625 4.921875 -6.296875 4.03125 -5.703125 Z M 4.03125 -5.703125 "/>
</g>
<g id="glyph-0-26">
<path d="M 4.625 -8.671875 C 6.453125 -8.671875 7.953125 -7.140625 7.953125 -4.328125 C 7.953125 -1.828125 6.75 -0.359375 5.15625 -0.359375 C 3.453125 -0.359375 1.859375 -1.890625 1.859375 -4.5625 C 1.859375 -7.5 3.234375 -8.671875 4.625 -8.671875 Z M 9.296875 -4.59375 C 9.296875 -7.484375 7.296875 -9.1875 4.796875 -9.1875 C 2.09375 -9.1875 0.515625 -7.03125 0.515625 -4.328125 C 0.515625 -1.796875 2.203125 -0.15625 4.3125 0.109375 C 3.453125 0.546875 2.6875 1.21875 2.1875 1.8125 C 2.09375 1.90625 2.015625 2.015625 1.9375 2.140625 L 2.484375 2.40625 C 2.65625 2.171875 2.828125 1.96875 3.015625 1.765625 C 3.203125 1.625 3.390625 1.59375 3.5 1.59375 C 4.09375 1.59375 4.609375 1.859375 5.15625 2.15625 C 5.796875 2.546875 6.5 2.921875 7.5 2.921875 C 8.375 2.921875 8.953125 2.546875 9.5 1.765625 L 9.265625 1.609375 C 8.953125 1.984375 8.453125 2.125 8.046875 2.125 C 7.46875 2.125 6.90625 1.875 6.3125 1.59375 C 5.671875 1.28125 4.96875 0.984375 4.15625 0.984375 C 4.078125 0.984375 3.984375 0.984375 3.875 0.984375 C 4.578125 0.484375 5.265625 0.203125 5.703125 0.0625 C 6.859375 -0.125 7.796875 -0.71875 8.421875 -1.625 C 8.984375 -2.40625 9.296875 -3.421875 9.296875 -4.59375 Z M 9.296875 -4.59375 "/>
</g>
</g>
<clipPath id="clip-0">
<path clip-rule="nonzero" d="M 99 98 L 177.554688 98 L 177.554688 138 L 99 138 Z M 99 98 "/>
</clipPath>
<clipPath id="clip-1">
<path clip-rule="nonzero" d="M 100 152 L 177.554688 152 L 177.554688 180 L 100 180 Z M 100 152 "/>
</clipPath>
<clipPath id="clip-2">
<path clip-rule="nonzero" d="M 94 146 L 177.554688 146 L 177.554688 186 L 94 186 Z M 94 146 "/>
</clipPath>
<clipPath id="clip-3">
<path clip-rule="nonzero" d="M 99 195 L 177.554688 195 L 177.554688 233 L 99 233 Z M 99 195 "/>
</clipPath>
<clipPath id="clip-4">
<path clip-rule="nonzero" d="M 103 199 L 177.554688 199 L 177.554688 237 L 103 237 Z M 103 199 "/>
</clipPath>
<clipPath id="clip-5">
<path clip-rule="nonzero" d="M 55 308 L 118 308 L 118 341.640625 L 55 341.640625 Z M 55 308 "/>
</clipPath>
<clipPath id="clip-6">
<path clip-rule="nonzero" d="M 65 318 L 116 318 L 116 341.640625 L 65 341.640625 Z M 65 318 "/>
</clipPath>
<clipPath id="clip-7">
<path clip-rule="nonzero" d="M 59 312 L 122 312 L 122 341.640625 L 59 341.640625 Z M 59 312 "/>
</clipPath>
</defs>
<path fill-rule="nonzero" fill="rgb(100%, 100%, 100%)" fill-opacity="1" stroke-width="0.3985" stroke-linecap="butt" stroke-linejoin="miter" stroke="rgb(0%, 0%, 0%)" stroke-opacity="1" stroke-miterlimit="10" d="M 130.054438 -177.217 L 70.491938 -177.217 C 68.292719 -177.217 66.507563 -179.002156 66.507563 -181.201375 L 66.507563 -199.545125 C 66.507563 -201.744344 68.292719 -203.5295 70.491938 -203.5295 L 130.054438 -203.5295 C 132.257563 -203.5295 134.038813 -201.744344 134.038813 -199.545125 L 134.038813 -181.201375 C 134.038813 -179.002156 132.257563 -177.217 130.054438 -177.217 Z M 130.054438 -177.217 " transform="matrix(1, 0, 0, -1, 34.469, 19.533)"/>
<g fill="rgb(0%, 0%, 0%)" fill-opacity="1">
<use xlink:href="#glyph-0-0" x="107.95" y="212.837"/>
<use xlink:href="#glyph-0-1" x="114.714635" y="212.837"/>
<use xlink:href="#glyph-0-2" x="120.949256" y="212.837"/>
<use xlink:href="#glyph-0-3" x="128.50891" y="212.837"/>
<use xlink:href="#glyph-0-4" x="132.916383" y="212.837"/>
</g>
<g fill="rgb(0%, 0%, 0%)" fill-opacity="1">
<use xlink:href="#glyph-0-5" x="140.057605" y="212.837"/>
</g>
<g fill="rgb(0%, 0%, 0%)" fill-opacity="1">
<use xlink:href="#glyph-0-1" x="145.134568" y="212.837"/>
<use xlink:href="#glyph-0-6" x="151.36919" y="212.837"/>
</g>
<g fill="rgb(0%, 0%, 0%)" fill-opacity="1">
<use xlink:href="#glyph-0-4" x="158.468569" y="212.837"/>
</g>
<path fill-rule="nonzero" fill="rgb(100%, 100%, 100%)" fill-opacity="1" stroke-width="0.3985" stroke-linecap="butt" stroke-linejoin="miter" stroke="rgb(0%, 0%, 0%)" stroke-opacity="1" stroke-miterlimit="10" d="M 69.390375 -290.717 L 26.898187 -290.717 C 24.698969 -290.717 22.913812 -292.502156 22.913812 -294.701375 L 22.913812 -309.955281 C 22.913812 -312.1545 24.698969 -313.939656 26.898187 -313.939656 L 69.390375 -313.939656 C 71.5935 -313.939656 73.37475 -312.1545 73.37475 -309.955281 L 73.37475 -294.701375 C 73.37475 -292.502156 71.5935 -290.717 69.390375 -290.717 Z M 69.390375 -290.717 " transform="matrix(1, 0, 0, -1, 34.469, 19.533)"/>
<g fill="rgb(0%, 0%, 0%)" fill-opacity="1">
<use xlink:href="#glyph-0-0" x="64.355" y="326.335"/>
<use xlink:href="#glyph-0-7" x="71.119635" y="326.335"/>
<use xlink:href="#glyph-0-8" x="77.08925" y="326.335"/>
<use xlink:href="#glyph-0-5" x="84.118891" y="326.335"/>
</g>
<g fill="rgb(0%, 0%, 0%)" fill-opacity="1">
<use xlink:href="#glyph-0-1" x="89.195854" y="326.335"/>
<use xlink:href="#glyph-0-9" x="95.430476" y="326.335"/>
</g>
<g fill="rgb(0%, 0%, 0%)" fill-opacity="1">
<use xlink:href="#glyph-0-10" x="4.649" y="14.43"/>
<use xlink:href="#glyph-0-11" x="12.417869" y="14.43"/>
<use xlink:href="#glyph-0-12" x="23.436552" y="14.43"/>
</g>
<g fill="rgb(0%, 0%, 0%)" fill-opacity="1">
<use xlink:href="#glyph-0-1" x="30.452245" y="14.43"/>
</g>
<g fill="rgb(0%, 0%, 0%)" fill-opacity="1">
<use xlink:href="#glyph-0-13" x="36.784501" y="14.43"/>
<use xlink:href="#glyph-0-13" x="43.842037" y="14.43"/>
<use xlink:href="#glyph-0-1" x="50.899573" y="14.43"/>
</g>
<g fill="rgb(0%, 0%, 0%)" fill-opacity="1">
<use xlink:href="#glyph-0-13" x="57.231829" y="14.43"/>
</g>
<g fill="rgb(0%, 0%, 0%)" fill-opacity="1">
<use xlink:href="#glyph-0-14" x="17.85" y="31.167"/>
<use xlink:href="#glyph-0-15" x="24.865693" y="31.167"/>
<use xlink:href="#glyph-0-1" x="32.271922" y="31.167"/>
<use xlink:href="#glyph-0-5" x="38.506544" y="31.167"/>
</g>
<g fill="rgb(0%, 0%, 0%)" fill-opacity="1">
<use xlink:href="#glyph-0-16" x="43.904304" y="31.167"/>
</g>
<g fill="rgb(0%, 0%, 0%)" fill-opacity="1">
<use xlink:href="#glyph-0-10" x="108.907" y="15.975"/>
<use xlink:href="#glyph-0-11" x="116.675869" y="15.975"/>
<use xlink:href="#glyph-0-12" x="127.694552" y="15.975"/>
</g>
<g fill="rgb(0%, 0%, 0%)" fill-opacity="1">
<use xlink:href="#glyph-0-1" x="134.710245" y="15.975"/>
</g>
<g fill="rgb(0%, 0%, 0%)" fill-opacity="1">
<use xlink:href="#glyph-0-13" x="141.042501" y="15.975"/>
<use xlink:href="#glyph-0-13" x="148.100037" y="15.975"/>
<use xlink:href="#glyph-0-1" x="155.157573" y="15.975"/>
</g>
<g fill="rgb(0%, 0%, 0%)" fill-opacity="1">
<use xlink:href="#glyph-0-13" x="161.489829" y="15.975"/>
</g>
<g fill="rgb(0%, 0%, 0%)" fill-opacity="1">
<use xlink:href="#glyph-0-13" x="110.336" y="32.712"/>
<use xlink:href="#glyph-0-8" x="117.393536" y="32.712"/>
</g>
<g fill="rgb(0%, 0%, 0%)" fill-opacity="1">
<use xlink:href="#glyph-0-7" x="124.520811" y="32.712"/>
<use xlink:href="#glyph-0-15" x="130.490427" y="32.712"/>
<use xlink:href="#glyph-0-11" x="137.896655" y="32.712"/>
<use xlink:href="#glyph-0-1" x="148.915338" y="32.712"/>
<use xlink:href="#glyph-0-2" x="155.14996" y="32.712"/>
<use xlink:href="#glyph-0-3" x="162.709614" y="32.712"/>
</g>
<path fill-rule="nonzero" fill="rgb(75%, 75%, 100%)" fill-opacity="1" stroke-width="0.3985" stroke-linecap="butt" stroke-linejoin="miter" stroke="rgb(0%, 0%, 0%)" stroke-opacity="1" stroke-miterlimit="10" d="M 110.409906 -39.908406 L -6.152594 -39.908406 C -8.351813 -39.908406 -10.136969 -41.693562 -10.136969 -43.892781 L -10.136969 -59.81075 C -10.136969 -62.013875 -8.351813 -63.795125 -6.152594 -63.795125 L 110.409906 -63.795125 C 112.613031 -63.795125 114.398188 -62.013875 114.398188 -59.81075 L 114.398188 -43.892781 C 114.398188 -41.693562 112.613031 -39.908406 110.409906 -39.908406 Z M 110.409906 -39.908406 " transform="matrix(1, 0, 0, -1, 34.469, 19.533)"/>
<g fill="rgb(0%, 0%, 0%)" fill-opacity="1">
<use xlink:href="#glyph-0-17" x="45.09" y="76.195"/>
<use xlink:href="#glyph-0-0" x="52.454386" y="76.195"/>
<use xlink:href="#glyph-0-18" x="59.21902" y="76.195"/>
<use xlink:href="#glyph-0-19" x="67.545797" y="76.195"/>
</g>
<g fill="rgb(0%, 0%, 0%)" fill-opacity="1">
<use xlink:href="#glyph-0-1" x="82.734842" y="76.195"/>
<use xlink:href="#glyph-0-2" x="88.969464" y="76.195"/>
<use xlink:href="#glyph-0-7" x="96.529118" y="76.195"/>
<use xlink:href="#glyph-0-8" x="102.498733" y="76.195"/>
</g>
<g fill="rgb(0%, 0%, 0%)" fill-opacity="1">
<use xlink:href="#glyph-0-13" x="109.626008" y="76.195"/>
<use xlink:href="#glyph-0-1" x="116.683544" y="76.195"/>
<use xlink:href="#glyph-0-5" x="122.918166" y="76.195"/>
</g>
<path fill-rule="nonzero" fill="rgb(100%, 100%, 100%)" fill-opacity="1" d="M 116.824219 128.007812 L 105.234375 107.933594 C 104.132812 106.027344 105.023438 104.480469 107.226562 104.480469 L 170.226562 104.480469 C 172.425781 104.480469 173.320312 106.027344 172.21875 107.933594 L 160.628906 128.007812 C 159.527344 129.914062 156.851562 131.460938 154.652344 131.460938 L 122.800781 131.460938 C 120.597656 131.460938 117.921875 129.914062 116.824219 128.007812 Z M 116.824219 128.007812 "/>
<g clip-path="url(#clip-0)">
<path fill="none" stroke-width="0.3985" stroke-linecap="butt" stroke-linejoin="miter" stroke="rgb(0%, 0%, 0%)" stroke-opacity="1" stroke-miterlimit="10" d="M 82.355219 -108.474812 L 70.765375 -88.400594 C 69.663813 -86.494344 70.554438 -84.947469 72.757563 -84.947469 L 135.757563 -84.947469 C 137.956781 -84.947469 138.851313 -86.494344 137.74975 -88.400594 L 126.159906 -108.474812 C 125.058344 -110.381062 122.382563 -111.927937 120.183344 -111.927937 L 88.331781 -111.927937 C 86.128656 -111.927937 83.452875 -110.381062 82.355219 -108.474812 Z M 82.355219 -108.474812 " transform="matrix(1, 0, 0, -1, 34.469, 19.533)"/>
</g>
<g fill="rgb(0%, 0%, 0%)" fill-opacity="1">
<use xlink:href="#glyph-0-0" x="125.788" y="121.234"/>
<use xlink:href="#glyph-0-6" x="132.552635" y="121.234"/>
<use xlink:href="#glyph-0-20" x="139.791491" y="121.234"/>
<use xlink:href="#glyph-0-21" x="143.473684" y="121.234"/>
<use xlink:href="#glyph-0-3" x="147.25351" y="121.234"/>
</g>
<path fill-rule="nonzero" fill="rgb(100%, 100%, 100%)" fill-opacity="1" stroke-width="0.3985" stroke-linecap="butt" stroke-linejoin="miter" stroke="rgb(0%, 0%, 0%)" stroke-opacity="1" stroke-miterlimit="10" d="M 15.679437 -86.494344 L -15.679938 -86.494344 C -17.883063 -86.494344 -19.668219 -88.275594 -19.668219 -90.478719 L -19.668219 -106.396687 C -19.668219 -108.595906 -17.883063 -110.381062 -15.679938 -110.381062 L 15.679437 -110.381062 C 17.882562 -110.381062 19.667719 -108.595906 19.667719 -106.396687 L 19.667719 -90.478719 C 19.667719 -88.275594 17.882562 -86.494344 15.679437 -86.494344 Z M 15.679437 -86.494344 " transform="matrix(1, 0, 0, -1, 34.469, 19.533)"/>
<g fill="rgb(0%, 0%, 0%)" fill-opacity="1">
<use xlink:href="#glyph-0-22" x="21.776" y="122.779"/>
<use xlink:href="#glyph-0-8" x="29.321706" y="122.779"/>
</g>
<g fill="rgb(0%, 0%, 0%)" fill-opacity="1">
<use xlink:href="#glyph-0-8" x="36.44898" y="122.779"/>
<use xlink:href="#glyph-0-20" x="43.478621" y="122.779"/>
</g>
<g clip-path="url(#clip-1)">
<path fill-rule="nonzero" fill="rgb(100%, 100%, 100%)" fill-opacity="1" d="M 173.371094 152.609375 L 104.085938 152.609375 C 101.882812 152.609375 100.101562 154.394531 100.101562 156.59375 L 100.101562 175.601562 C 100.101562 177.804688 101.882812 179.589844 104.085938 179.589844 L 173.371094 179.589844 C 175.574219 179.589844 177.355469 177.804688 177.355469 175.601562 L 177.355469 156.59375 C 177.355469 154.394531 175.574219 152.609375 173.371094 152.609375 Z M 173.371094 152.609375 "/>
</g>
<g clip-path="url(#clip-2)">
<path fill="none" stroke-width="0.3985" stroke-linecap="butt" stroke-linejoin="miter" stroke="rgb(0%, 0%, 0%)" stroke-opacity="1" stroke-miterlimit="10" d="M 138.902094 -133.076375 L 69.616938 -133.076375 C 67.413813 -133.076375 65.632563 -134.861531 65.632563 -137.06075 L 65.632563 -156.068562 C 65.632563 -158.271687 67.413813 -160.056844 69.616938 -160.056844 L 138.902094 -160.056844 C 141.105219 -160.056844 142.886469 -158.271687 142.886469 -156.068562 L 142.886469 -137.06075 C 142.886469 -134.861531 141.105219 -133.076375 138.902094 -133.076375 Z M 138.902094 -133.076375 " transform="matrix(1, 0, 0, -1, 34.469, 19.533)"/>
</g>
<g fill="rgb(0%, 0%, 0%)" fill-opacity="1">
<use xlink:href="#glyph-0-23" x="107.073" y="169.362"/>
<use xlink:href="#glyph-0-24" x="116.766652" y="169.362"/>
<use xlink:href="#glyph-0-4" x="125.330539" y="169.362"/>
</g>
<g fill="rgb(0%, 0%, 0%)" fill-opacity="1">
<use xlink:href="#glyph-0-25" x="131.885958" y="169.362"/>
</g>
<g fill="rgb(0%, 0%, 0%)" fill-opacity="1">
<use xlink:href="#glyph-0-6" x="145.206012" y="169.362"/>
</g>
<g fill="rgb(0%, 0%, 0%)" fill-opacity="1">
<use xlink:href="#glyph-0-8" x="152.542502" y="169.362"/>
</g>
<g fill="rgb(0%, 0%, 0%)" fill-opacity="1">
<use xlink:href="#glyph-0-8" x="159.669777" y="169.362"/>
<use xlink:href="#glyph-0-20" x="166.699418" y="169.362"/>
</g>
<path fill-rule="nonzero" fill="rgb(100%, 100%, 100%)" fill-opacity="1" d="M 168.507812 200.734375 L 108.949219 200.734375 C 106.746094 200.734375 104.960938 202.519531 104.960938 204.71875 L 104.960938 223.0625 C 104.960938 225.265625 106.746094 227.046875 108.949219 227.046875 L 168.507812 227.046875 C 170.710938 227.046875 172.492188 225.265625 172.492188 223.0625 L 172.492188 204.71875 C 172.492188 202.519531 170.710938 200.734375 168.507812 200.734375 Z M 168.507812 200.734375 "/>
<g clip-path="url(#clip-3)">
<path fill="none" stroke-width="0.3985" stroke-linecap="butt" stroke-linejoin="miter" stroke="rgb(0%, 0%, 0%)" stroke-opacity="1" stroke-miterlimit="10" d="M 134.038813 -181.201375 L 74.480219 -181.201375 C 72.277094 -181.201375 70.491938 -182.986531 70.491938 -185.18575 L 70.491938 -203.5295 C 70.491938 -205.732625 72.277094 -207.513875 74.480219 -207.513875 L 134.038813 -207.513875 C 136.241938 -207.513875 138.023188 -205.732625 138.023188 -203.5295 L 138.023188 -185.18575 C 138.023188 -182.986531 136.241938 -181.201375 134.038813 -181.201375 Z M 134.038813 -181.201375 " transform="matrix(1, 0, 0, -1, 34.469, 19.533)"/>
</g>
<g fill="rgb(0%, 0%, 0%)" fill-opacity="1">
<use xlink:href="#glyph-0-0" x="111.935" y="216.822"/>
<use xlink:href="#glyph-0-1" x="118.699635" y="216.822"/>
<use xlink:href="#glyph-0-2" x="124.934256" y="216.822"/>
<use xlink:href="#glyph-0-3" x="132.49391" y="216.822"/>
<use xlink:href="#glyph-0-4" x="136.901383" y="216.822"/>
</g>
<g fill="rgb(0%, 0%, 0%)" fill-opacity="1">
<use xlink:href="#glyph-0-5" x="144.042605" y="216.822"/>
</g>
<g fill="rgb(0%, 0%, 0%)" fill-opacity="1">
<use xlink:href="#glyph-0-1" x="149.119568" y="216.822"/>
<use xlink:href="#glyph-0-6" x="155.35419" y="216.822"/>
</g>
<g fill="rgb(0%, 0%, 0%)" fill-opacity="1">
<use xlink:href="#glyph-0-4" x="162.453569" y="216.822"/>
</g>
<path fill-rule="nonzero" fill="rgb(100%, 100%, 100%)" fill-opacity="1" d="M 172.492188 204.71875 L 112.933594 204.71875 C 110.730469 204.71875 108.949219 206.503906 108.949219 208.707031 L 108.949219 227.046875 C 108.949219 229.25 110.730469 231.03125 112.933594 231.03125 L 172.492188 231.03125 C 174.695312 231.03125 176.480469 229.25 176.480469 227.046875 L 176.480469 208.707031 C 176.480469 206.503906 174.695312 204.71875 172.492188 204.71875 Z M 172.492188 204.71875 "/>
<g clip-path="url(#clip-4)">
<path fill="none" stroke-width="0.3985" stroke-linecap="butt" stroke-linejoin="miter" stroke="rgb(0%, 0%, 0%)" stroke-opacity="1" stroke-miterlimit="10" d="M 138.023188 -185.18575 L 78.464594 -185.18575 C 76.261469 -185.18575 74.480219 -186.970906 74.480219 -189.174031 L 74.480219 -207.513875 C 74.480219 -209.717 76.261469 -211.49825 78.464594 -211.49825 L 138.023188 -211.49825 C 140.226313 -211.49825 142.011469 -209.717 142.011469 -207.513875 L 142.011469 -189.174031 C 142.011469 -186.970906 140.226313 -185.18575 138.023188 -185.18575 Z M 138.023188 -185.18575 " transform="matrix(1, 0, 0, -1, 34.469, 19.533)"/>
</g>
<g fill="rgb(0%, 0%, 0%)" fill-opacity="1">
<use xlink:href="#glyph-0-0" x="115.92" y="220.807"/>
<use xlink:href="#glyph-0-1" x="122.684635" y="220.807"/>
<use xlink:href="#glyph-0-2" x="128.919256" y="220.807"/>
<use xlink:href="#glyph-0-3" x="136.47891" y="220.807"/>
<use xlink:href="#glyph-0-4" x="140.886383" y="220.807"/>
</g>
<g fill="rgb(0%, 0%, 0%)" fill-opacity="1">
<use xlink:href="#glyph-0-5" x="148.027605" y="220.807"/>
</g>
<g fill="rgb(0%, 0%, 0%)" fill-opacity="1">
<use xlink:href="#glyph-0-1" x="153.104568" y="220.807"/>
<use xlink:href="#glyph-0-6" x="159.33919" y="220.807"/>
</g>
<g fill="rgb(0%, 0%, 0%)" fill-opacity="1">
<use xlink:href="#glyph-0-4" x="166.438569" y="220.807"/>
</g>
<path fill-rule="nonzero" fill="rgb(100%, 100%, 100%)" fill-opacity="1" stroke-width="0.3985" stroke-linecap="butt" stroke-linejoin="miter" stroke="rgb(0%, 0%, 0%)" stroke-opacity="1" stroke-miterlimit="10" d="M 21.698969 -133.408406 L -21.699469 -133.408406 C -23.902594 -133.408406 -25.683844 -135.193562 -25.683844 -137.392781 L -25.683844 -155.736531 C -25.683844 -157.939656 -23.902594 -159.720906 -21.699469 -159.720906 L 21.698969 -159.720906 C 23.902094 -159.720906 25.683344 -157.939656 25.683344 -155.736531 L 25.683344 -137.392781 C 25.683344 -135.193562 23.902094 -133.408406 21.698969 -133.408406 Z M 21.698969 -133.408406 " transform="matrix(1, 0, 0, -1, 34.469, 19.533)"/>
<g fill="rgb(0%, 0%, 0%)" fill-opacity="1">
<use xlink:href="#glyph-0-26" x="15.758" y="169.029"/>
</g>
<g fill="rgb(0%, 0%, 0%)" fill-opacity="1">
<use xlink:href="#glyph-0-4" x="25.144802" y="169.029"/>
</g>
<g fill="rgb(0%, 0%, 0%)" fill-opacity="1">
<use xlink:href="#glyph-0-5" x="31.700221" y="169.029"/>
</g>
<g fill="rgb(0%, 0%, 0%)" fill-opacity="1">
<use xlink:href="#glyph-0-1" x="36.777184" y="169.029"/>
<use xlink:href="#glyph-0-6" x="43.011806" y="169.029"/>
</g>
<g fill="rgb(0%, 0%, 0%)" fill-opacity="1">
<use xlink:href="#glyph-0-4" x="50.111185" y="169.029"/>
</g>
<path fill-rule="nonzero" fill="rgb(100%, 100%, 100%)" fill-opacity="1" stroke-width="0.3985" stroke-linecap="butt" stroke-linejoin="miter" stroke="rgb(0%, 0%, 0%)" stroke-opacity="1" stroke-miterlimit="10" d="M 74.577875 -251.107625 C 74.577875 -238.713094 64.527094 -228.662312 52.128656 -228.662312 C 39.734125 -228.662312 29.683344 -238.713094 29.683344 -251.107625 C 29.683344 -263.506062 39.734125 -273.556844 52.128656 -273.556844 C 64.527094 -273.556844 74.577875 -263.506062 74.577875 -251.107625 Z M 74.577875 -251.107625 " transform="matrix(1, 0, 0, -1, 34.469, 19.533)"/>
<g fill="rgb(0%, 0%, 0%)" fill-opacity="1">
<use xlink:href="#glyph-0-0" x="74.282" y="275.116"/>
<use xlink:href="#glyph-0-21" x="81.046634" y="275.116"/>
<use xlink:href="#glyph-0-11" x="84.826461" y="275.116"/>
<use xlink:href="#glyph-0-4" x="95.845144" y="275.116"/>
</g>
<path fill-rule="nonzero" fill="rgb(100%, 100%, 100%)" fill-opacity="1" d="M 107.84375 314.234375 L 65.351562 314.234375 C 63.152344 314.234375 61.367188 316.019531 61.367188 318.21875 L 61.367188 333.472656 C 61.367188 335.675781 63.152344 337.457031 65.351562 337.457031 L 107.84375 337.457031 C 110.046875 337.457031 111.832031 335.675781 111.832031 333.472656 L 111.832031 318.21875 C 111.832031 316.019531 110.046875 314.234375 107.84375 314.234375 Z M 107.84375 314.234375 "/>
<g clip-path="url(#clip-5)">
<path fill="none" stroke-width="0.3985" stroke-linecap="butt" stroke-linejoin="miter" stroke="rgb(0%, 0%, 0%)" stroke-opacity="1" stroke-miterlimit="10" d="M 73.37475 -294.701375 L 30.882562 -294.701375 C 28.683344 -294.701375 26.898187 -296.486531 26.898187 -298.68575 L 26.898187 -313.939656 C 26.898187 -316.142781 28.683344 -317.924031 30.882562 -317.924031 L 73.37475 -317.924031 C 75.577875 -317.924031 77.363031 -316.142781 77.363031 -313.939656 L 77.363031 -298.68575 C 77.363031 -296.486531 75.577875 -294.701375 73.37475 -294.701375 Z M 73.37475 -294.701375 " transform="matrix(1, 0, 0, -1, 34.469, 19.533)"/>
</g>
<g fill="rgb(0%, 0%, 0%)" fill-opacity="1">
<use xlink:href="#glyph-0-0" x="68.34" y="330.32"/>
<use xlink:href="#glyph-0-7" x="75.104635" y="330.32"/>
<use xlink:href="#glyph-0-8" x="81.07425" y="330.32"/>
<use xlink:href="#glyph-0-5" x="88.103891" y="330.32"/>
</g>
<g fill="rgb(0%, 0%, 0%)" fill-opacity="1">
<use xlink:href="#glyph-0-1" x="93.180854" y="330.32"/>
<use xlink:href="#glyph-0-9" x="99.415476" y="330.32"/>
</g>
<g clip-path="url(#clip-6)">
<path fill-rule="nonzero" fill="rgb(100%, 100%, 100%)" fill-opacity="1" d="M 111.832031 318.21875 L 69.335938 318.21875 C 67.136719 318.21875 65.351562 320.003906 65.351562 322.207031 L 65.351562 337.457031 C 65.351562 339.660156 67.136719 341.445312 69.335938 341.445312 L 111.832031 341.445312 C 114.03125 341.445312 115.816406 339.660156 115.816406 337.457031 L 115.816406 322.207031 C 115.816406 320.003906 114.03125 318.21875 111.832031 318.21875 Z M 111.832031 318.21875 "/>
</g>
<g clip-path="url(#clip-7)">
<path fill="none" stroke-width="0.3985" stroke-linecap="butt" stroke-linejoin="miter" stroke="rgb(0%, 0%, 0%)" stroke-opacity="1" stroke-miterlimit="10" d="M 77.363031 -298.68575 L 34.866937 -298.68575 C 32.667719 -298.68575 30.882562 -300.470906 30.882562 -302.674031 L 30.882562 -317.924031 C 30.882562 -320.127156 32.667719 -321.912312 34.866937 -321.912312 L 77.363031 -321.912312 C 79.56225 -321.912312 81.347406 -320.127156 81.347406 -317.924031 L 81.347406 -302.674031 C 81.347406 -300.470906 79.56225 -298.68575 77.363031 -298.68575 Z M 77.363031 -298.68575 " transform="matrix(1, 0, 0, -1, 34.469, 19.533)"/>
</g>
<g fill="rgb(0%, 0%, 0%)" fill-opacity="1">
<use xlink:href="#glyph-0-0" x="72.325" y="334.305"/>
<use xlink:href="#glyph-0-7" x="79.089634" y="334.305"/>
<use xlink:href="#glyph-0-8" x="85.05925" y="334.305"/>
<use xlink:href="#glyph-0-5" x="92.088891" y="334.305"/>
</g>
<g fill="rgb(0%, 0%, 0%)" fill-opacity="1">
<use xlink:href="#glyph-0-1" x="97.165854" y="334.305"/>
<use xlink:href="#glyph-0-9" x="103.400476" y="334.305"/>
</g>
<path fill="none" stroke-width="0.3985" stroke-linecap="butt" stroke-linejoin="miter" stroke="rgb(0%, 0%, 0%)" stroke-opacity="1" stroke-miterlimit="10" d="M -0.00025 -23.021687 L -0.00025 -35.963094 " transform="matrix(1, 0, 0, -1, 34.469, 19.533)"/>
<path fill="none" stroke-width="0.31879" stroke-linecap="round" stroke-linejoin="round" stroke="rgb(0%, 0%, 0%)" stroke-opacity="1" stroke-miterlimit="10" d="M -1.194839 1.5935 C -1.097183 0.995844 0.00047375 0.101312 0.297349 -0.00025 C 0.00047375 -0.0979063 -1.097183 -0.996344 -1.194839 -1.594 " transform="matrix(0, 1, 1, 0, 34.469, 55.49562)"/>
<path fill="none" stroke-width="0.3985" stroke-linecap="butt" stroke-linejoin="miter" stroke="rgb(0%, 0%, 0%)" stroke-opacity="1" stroke-miterlimit="10" d="M 104.257563 -21.474812 L 104.257563 -35.963094 " transform="matrix(1, 0, 0, -1, 34.469, 19.533)"/>
<path fill="none" stroke-width="0.31879" stroke-linecap="round" stroke-linejoin="round" stroke="rgb(0%, 0%, 0%)" stroke-opacity="1" stroke-miterlimit="10" d="M -1.194839 1.595909 C -1.097183 0.994346 0.00047375 0.099815 0.297349 -0.0017475 C 0.00047375 -0.0994037 -1.097183 -0.997841 -1.194839 -1.595497 " transform="matrix(0, 1, 1, 0, 138.72831, 55.49562)"/>
<path fill="none" stroke-width="0.3985" stroke-linecap="butt" stroke-linejoin="miter" stroke="rgb(0%, 0%, 0%)" stroke-opacity="1" stroke-miterlimit="10" d="M 104.257563 -67.283406 L 104.257563 -80.99825 " transform="matrix(1, 0, 0, -1, 34.469, 19.533)"/>
<path fill="none" stroke-width="0.31879" stroke-linecap="round" stroke-linejoin="round" stroke="rgb(0%, 0%, 0%)" stroke-opacity="1" stroke-miterlimit="10" d="M -1.196057 1.592724 C -1.094552 0.995046 -0.000869979 0.100387 0.299907 -0.00120751 C -0.000889901 -0.0988356 -1.094752 -0.997182 -1.196376 -1.59484 " transform="matrix(0.0001, 0.99998, 0.99998, -0.0001, 138.72774, 100.53213)"/>
<path fill="none" stroke-width="0.3985" stroke-linecap="butt" stroke-linejoin="miter" stroke="rgb(0%, 0%, 0%)" stroke-opacity="1" stroke-miterlimit="10" d="M -0.00025 -67.283406 L -0.00025 -82.549031 " transform="matrix(1, 0, 0, -1, 34.469, 19.533)"/>
<path fill="none" stroke-width="0.31879" stroke-linecap="round" stroke-linejoin="round" stroke="rgb(0%, 0%, 0%)" stroke-opacity="1" stroke-miterlimit="10" d="M -1.197388 1.5935 C -1.095825 0.995844 0.00183125 0.101312 0.298706 -0.00025 C 0.00183125 -0.0979063 -1.095825 -0.996344 -1.197388 -1.594 " transform="matrix(0, 1, 1, 0, 34.469, 102.0802)"/>
<path fill="none" stroke-width="0.3985" stroke-linecap="butt" stroke-linejoin="miter" stroke="rgb(0%, 0%, 0%)" stroke-opacity="1" stroke-miterlimit="10" d="M 104.261469 -115.416219 L 104.257563 -129.131062 " transform="matrix(1, 0, 0, -1, 34.469, 19.533)"/>
<path fill="none" stroke-width="0.31879" stroke-linecap="round" stroke-linejoin="round" stroke="rgb(0%, 0%, 0%)" stroke-opacity="1" stroke-miterlimit="10" d="M -1.195531 1.592669 C -1.093919 0.995009 -0.0000755453 0.100547 0.30072 -0.000993462 C -0.0000596071 -0.0986757 -1.097666 -0.997219 -1.195276 -1.594895 " transform="matrix(-0.00008, 0.99998, 0.99998, 0.00008, 138.72758, 148.66413)"/>
<path fill="none" stroke-width="0.3985" stroke-linecap="butt" stroke-linejoin="miter" stroke="rgb(0%, 0%, 0%)" stroke-opacity="1" stroke-miterlimit="10" d="M -0.00025 -113.869344 L -0.00025 -129.463094 " transform="matrix(1, 0, 0, -1, 34.469, 19.533)"/>
<path fill="none" stroke-width="0.31879" stroke-linecap="round" stroke-linejoin="round" stroke="rgb(0%, 0%, 0%)" stroke-opacity="1" stroke-miterlimit="10" d="M -1.196349 1.5935 C -1.094786 0.995844 -0.00103625 0.101312 0.299745 -0.00025 C -0.00103625 -0.0979063 -1.094786 -0.996344 -1.196349 -1.594 " transform="matrix(0, 1, 1, 0, 34.469, 148.99713)"/>
<path fill="none" stroke-width="0.3985" stroke-linecap="butt" stroke-linejoin="miter" stroke="rgb(0%, 0%, 0%)" stroke-opacity="1" stroke-miterlimit="10" d="M 104.257563 -163.541219 L 104.257563 -173.271687 " transform="matrix(1, 0, 0, -1, 34.469, 19.533)"/>
<path fill="none" stroke-width="0.31879" stroke-linecap="round" stroke-linejoin="round" stroke="rgb(0%, 0%, 0%)" stroke-opacity="1" stroke-miterlimit="10" d="M -1.195625 1.595909 C -1.094063 0.994346 -0.0003125 0.099815 0.300469 -0.0017475 C -0.0003125 -0.0994037 -1.094063 -0.997841 -1.195625 -1.595497 " transform="matrix(0, 1, 1, 0, 138.72831, 192.805)"/>
<path fill="none" stroke-width="0.3985" stroke-linecap="butt" stroke-linejoin="miter" stroke="rgb(0%, 0%, 0%)" stroke-opacity="1" stroke-miterlimit="10" d="M 29.171625 -146.564656 L 61.68725 -146.564656 " transform="matrix(1, 0, 0, -1, 34.469, 19.533)"/>
<path fill="none" stroke-width="0.31879" stroke-linecap="round" stroke-linejoin="round" stroke="rgb(0%, 0%, 0%)" stroke-opacity="1" stroke-miterlimit="10" d="M -1.197429 1.594794 C -1.095866 0.997138 0.00179 0.0987 0.298665 0.00104375 C 0.00179 -0.100519 -1.095866 -0.99505 -1.197429 -1.592706 " transform="matrix(1, 0, 0, -1, 96.15446, 166.0987)"/>
<path fill="none" stroke-width="0.3985" stroke-linecap="butt" stroke-linejoin="miter" stroke="rgb(0%, 0%, 0%)" stroke-opacity="1" stroke-miterlimit="10" d="M -0.00025 -163.209187 L -0.00025 -247.12325 C -0.00025 -249.326375 1.784906 -251.107625 3.984125 -251.107625 L 25.738031 -251.107625 " transform="matrix(1, 0, 0, -1, 34.469, 19.533)"/>
<path fill="none" stroke-width="0.31879" stroke-linecap="round" stroke-linejoin="round" stroke="rgb(0%, 0%, 0%)" stroke-opacity="1" stroke-miterlimit="10" d="M -1.195281 1.594855 C -1.097625 0.997199 0.00003125 0.0987613 0.300812 0.001105 C 0.00003125 -0.100457 -1.097625 -0.994989 -1.195281 -1.592645 " transform="matrix(1, 0, 0, -1, 60.207, 270.64173)"/>
<path fill="none" stroke-width="0.3985" stroke-linecap="butt" stroke-linejoin="miter" stroke="rgb(0%, 0%, 0%)" stroke-opacity="1" stroke-miterlimit="10" d="M 104.257563 -214.986531 L 104.257563 -247.12325 C 104.257563 -249.326375 102.476313 -251.107625 100.273188 -251.107625 L 78.523188 -251.107625 " transform="matrix(1, 0, 0, -1, 34.469, 19.533)"/>
<path fill="none" stroke-width="0.31879" stroke-linecap="round" stroke-linejoin="round" stroke="rgb(0%, 0%, 0%)" stroke-opacity="1" stroke-miterlimit="10" d="M -1.19721 1.592645 C -1.095647 0.994989 -0.0018975 0.100457 0.298884 -0.001105 C -0.0018975 -0.0987613 -1.095647 -0.997199 -1.19721 -1.594855 " transform="matrix(-1, 0, 0, 1, 112.99029, 270.64173)"/>
<path fill="none" stroke-width="0.3985" stroke-linecap="butt" stroke-linejoin="miter" stroke="rgb(0%, 0%, 0%)" stroke-opacity="1" stroke-miterlimit="10" d="M 52.128656 -277.041219 L 52.128656 -286.771687 " transform="matrix(1, 0, 0, -1, 34.469, 19.533)"/>
<path fill="none" stroke-width="0.31879" stroke-linecap="round" stroke-linejoin="round" stroke="rgb(0%, 0%, 0%)" stroke-opacity="1" stroke-miterlimit="10" d="M -1.195735 1.592766 C -1.094172 0.99511 -0.0004225 0.100579 0.300359 -0.00098375 C -0.0004225 -0.09864 -1.094172 -0.997078 -1.195735 -1.594734 " transform="matrix(0, 1, 1, 0, 86.59864, 306.30511)"/>
</svg>
