<?xml version="1.0" encoding="UTF-8"?>
<svg xmlns="http://www.w3.org/2000/svg" xmlns:xlink="http://www.w3.org/1999/xlink" width="533.104pt" height="210.016pt" viewBox="0 0 533.104 210.016" version="1.1">
<defs>
<g>
<symbol overflow="visible" id="glyph0-0">
<path style="stroke:none;" d="M 0.703125 -8.40625 L 3.0625 -4.875 L 0.703125 -1.328125 Z M 1.109375 -0.703125 L 3.484375 -4.234375 L 5.859375 -0.703125 Z M 3.90625 -4.875 L 6.28125 -8.40625 L 6.28125 -1.328125 Z M 3.484375 -5.5 L 1.109375 -9.03125 L 5.859375 -9.03125 Z M 0 0 L 6.984375 0 L 6.984375 -9.734375 L 0 -9.734375 Z M 0 0 "/>
</symbol>
<symbol overflow="visible" id="glyph0-1">
<path style="stroke:none;" d="M 9.25 -1.625 C 9.328125 -0.484375 9.265625 -0.46875 8.359375 -0.4375 C 8.28125 -0.34375 8.28125 -0.0625 8.359375 0.03125 C 8.875 0.015625 9.4375 0 9.84375 0 C 10.265625 0 10.90625 0.015625 11.375 0.03125 C 11.453125 -0.0625 11.453125 -0.34375 11.375 -0.4375 C 10.421875 -0.46875 10.375 -0.53125 10.296875 -1.6875 L 9.875 -7.5625 C 9.828125 -8.3125 9.890625 -8.515625 10.84375 -8.5625 C 10.921875 -8.65625 10.921875 -8.9375 10.84375 -9.03125 L 9.015625 -9 L 6.0625 -1.921875 C 6 -1.78125 5.953125 -1.734375 5.9375 -1.734375 C 5.90625 -1.734375 5.859375 -1.796875 5.8125 -1.90625 L 2.953125 -9 L 0.9375 -9.03125 C 0.84375 -8.9375 0.84375 -8.65625 0.9375 -8.5625 C 1.890625 -8.515625 1.984375 -8.484375 1.890625 -7.4375 L 1.328125 -1.6875 C 1.234375 -0.84375 1.078125 -0.5 0.28125 -0.4375 C 0.203125 -0.34375 0.203125 -0.0625 0.28125 0.03125 C 0.703125 0.015625 1.140625 0 1.484375 0 C 1.8125 0 2.375 0.015625 2.796875 0.03125 C 2.875 -0.0625 2.875 -0.34375 2.796875 -0.4375 C 1.875 -0.5 1.796875 -0.9375 1.875 -1.71875 L 2.40625 -7.3125 L 2.421875 -7.3125 L 5.3125 -0.0625 C 5.359375 0.03125 5.4375 0.140625 5.53125 0.140625 C 5.609375 0.140625 5.671875 0.046875 5.71875 -0.0625 L 8.859375 -7.453125 L 8.890625 -7.453125 Z M 9.25 -1.625 "/>
</symbol>
<symbol overflow="visible" id="glyph0-2">
<path style="stroke:none;" d="M 5.515625 -8.796875 C 4.703125 -8.921875 4.734375 -9.1875 3.359375 -9.1875 C 1.953125 -9.1875 0.71875 -8.25 0.71875 -6.765625 C 0.71875 -5.296875 1.921875 -4.625 3.15625 -4.15625 C 3.984375 -3.84375 5.015625 -3.453125 5.015625 -2.078125 C 5.015625 -0.953125 4.390625 -0.359375 3.28125 -0.359375 C 1.984375 -0.359375 1.140625 -0.96875 0.84375 -2.34375 C 0.65625 -2.40625 0.515625 -2.375 0.375 -2.296875 C 0.4375 -1.234375 0.484375 -0.859375 0.65625 -0.1875 C 1.53125 -0.1875 1.921875 0.140625 3.171875 0.140625 C 3.796875 0.140625 4.390625 -0.015625 4.890625 -0.328125 C 5.6875 -0.828125 6.1875 -1.671875 6.1875 -2.5625 C 6.1875 -4.046875 5.078125 -4.703125 3.9375 -5.140625 C 3.09375 -5.4375 1.703125 -5.96875 1.703125 -7.140625 C 1.703125 -7.921875 2.40625 -8.703125 3.234375 -8.703125 C 4.59375 -8.703125 5.015625 -7.84375 5.296875 -6.921875 C 5.453125 -6.890625 5.640625 -6.90625 5.765625 -7 C 5.703125 -7.671875 5.65625 -8.0625 5.515625 -8.796875 Z M 5.515625 -8.796875 "/>
</symbol>
<symbol overflow="visible" id="glyph0-3">
<path style="stroke:none;" d="M 3.78125 -2.84375 C 3.96875 -2.84375 4.15625 -3.234375 4.15625 -3.40625 C 4.15625 -3.546875 4.109375 -3.6875 3.96875 -3.6875 L 0.90625 -3.6875 C 0.734375 -3.6875 0.5625 -3.359375 0.5625 -3.109375 C 0.5625 -2.96875 0.640625 -2.84375 0.765625 -2.84375 Z M 3.78125 -2.84375 "/>
</symbol>
<symbol overflow="visible" id="glyph0-4">
<path style="stroke:none;" d="M 2.640625 -7.734375 C 2.640625 -8.140625 2.84375 -8.625 3.84375 -8.625 C 4.8125 -8.625 5.78125 -8.296875 5.78125 -6.53125 C 5.78125 -5.015625 5.046875 -4.40625 3.703125 -4.40625 C 3.34375 -4.40625 2.796875 -4.4375 2.640625 -4.484375 Z M 1.453125 -7.296875 L 1.453125 -1.703125 C 1.453125 -0.546875 1.21875 -0.46875 0.234375 -0.4375 C 0.15625 -0.34375 0.15625 -0.0625 0.234375 0.03125 C 0.859375 0.015625 1.546875 0 2.046875 0 C 2.546875 0 3.359375 0.015625 4.0625 0.03125 C 4.140625 -0.0625 4.140625 -0.34375 4.0625 -0.4375 C 2.96875 -0.484375 2.640625 -0.546875 2.640625 -1.703125 L 2.640625 -4.078125 C 2.9375 -3.984375 3.28125 -3.9375 3.765625 -3.9375 C 6.3125 -3.9375 7.078125 -5.59375 7.078125 -6.78125 C 7.078125 -7.609375 6.53125 -9.09375 3.953125 -9.09375 C 3.421875 -9.09375 2.59375 -9 2.03125 -9 C 1.515625 -9 0.796875 -9.015625 0.234375 -9.03125 C 0.15625 -8.9375 0.15625 -8.65625 0.234375 -8.5625 C 1.21875 -8.53125 1.453125 -8.453125 1.453125 -7.296875 Z M 1.453125 -7.296875 "/>
</symbol>
<symbol overflow="visible" id="glyph0-5">
<path style="stroke:none;" d="M 4.734375 -6.25 C 4.375 -6.25 4.015625 -6.5625 2.890625 -6.5625 C 1.90625 -6.5625 0.828125 -6 0.828125 -4.859375 C 0.828125 -3.84375 1.90625 -3.296875 2.484375 -3.03125 C 3.390625 -2.609375 3.984375 -2.28125 3.984375 -1.5 C 3.984375 -0.6875 3.609375 -0.296875 2.796875 -0.296875 C 2.015625 -0.296875 1.375 -0.734375 1.125 -1.984375 C 0.953125 -2.015625 0.828125 -2.015625 0.6875 -1.953125 C 0.71875 -0.984375 0.734375 -0.4375 0.84375 0.015625 C 0.984375 -0.046875 1.125 -0.0625 1.296875 -0.0625 C 1.5625 -0.0625 1.96875 0.171875 3.046875 0.171875 C 4.28125 0.171875 5.078125 -0.59375 5.078125 -1.796875 C 5.078125 -2.890625 3.8125 -3.515625 3.140625 -3.84375 C 2.4375 -4.171875 1.78125 -4.515625 1.78125 -5.109375 C 1.78125 -5.703125 2.171875 -6.09375 2.90625 -6.09375 C 3.59375 -6.09375 4.203125 -5.640625 4.40625 -4.75 C 4.53125 -4.703125 4.65625 -4.703125 4.78125 -4.765625 C 4.8125 -5.171875 4.8125 -5.71875 4.734375 -6.25 Z M 4.734375 -6.25 "/>
</symbol>
<symbol overflow="visible" id="glyph0-6">
<path style="stroke:none;" d="M 6.578125 -1.265625 C 6.578125 -2.421875 6.671875 -2.46875 7.109375 -2.546875 C 7.1875 -2.625 7.1875 -2.921875 7.109375 -3 C 6.84375 -2.984375 6.453125 -2.96875 6.03125 -2.96875 C 5.609375 -2.96875 4.96875 -2.984375 4.5625 -3 C 4.484375 -2.921875 4.484375 -2.625 4.5625 -2.546875 C 5.40625 -2.484375 5.484375 -2.421875 5.484375 -1.265625 L 5.484375 -0.515625 C 5.03125 -0.390625 4.578125 -0.328125 4.09375 -0.328125 C 2.34375 -0.328125 1.765625 -2.109375 1.765625 -3.25 C 1.765625 -4.9375 2.578125 -6.09375 3.921875 -6.09375 C 5.296875 -6.09375 5.890625 -5.40625 6.09375 -4.5 C 6.234375 -4.46875 6.375 -4.46875 6.515625 -4.546875 C 6.5 -5.125 6.453125 -5.703125 6.328125 -6.328125 C 5.921875 -6.328125 4.890625 -6.5625 4.109375 -6.5625 C 2.109375 -6.5625 0.515625 -5.28125 0.515625 -3.0625 C 0.515625 -1.296875 1.84375 0.140625 3.84375 0.140625 C 4.78125 0.140625 5.8125 0 6.734375 -0.5 C 6.640625 -0.59375 6.578125 -0.71875 6.578125 -0.828125 Z M 6.578125 -1.265625 "/>
</symbol>
<symbol overflow="visible" id="glyph0-7">
<path style="stroke:none;" d="M 2.671875 -1.171875 L 2.671875 -7.875 C 2.671875 -8.359375 3.15625 -8.546875 3.84375 -8.546875 C 6.84375 -8.546875 7.84375 -6.109375 7.84375 -3.96875 C 7.84375 -1.140625 6.15625 -0.453125 4.1875 -0.453125 C 2.8125 -0.453125 2.671875 -0.71875 2.671875 -1.171875 Z M 0.265625 -9.03125 C 0.1875 -8.9375 0.1875 -8.65625 0.265625 -8.5625 C 1.234375 -8.53125 1.484375 -8.453125 1.484375 -7.296875 L 1.484375 -1.703125 C 1.484375 -0.546875 1.234375 -0.46875 0.265625 -0.4375 C 0.1875 -0.34375 0.1875 -0.0625 0.265625 0.03125 C 0.8125 0.015625 1.546875 0 2.078125 0 C 2.59375 0 3.1875 0.03125 4.625 0.03125 C 6.578125 0.03125 9.1875 -0.859375 9.1875 -4.296875 C 9.1875 -6.890625 7.046875 -9.03125 4.375 -9.03125 C 3.375 -9.03125 2.609375 -9 2.0625 -9 C 1.5625 -9 0.828125 -9.015625 0.265625 -9.03125 Z M 0.265625 -9.03125 "/>
</symbol>
<symbol overflow="visible" id="glyph0-8">
<path style="stroke:none;" d="M 3.453125 -3.140625 C 4.375 -3.140625 4.390625 -2.875 4.421875 -2.359375 C 4.5 -2.28125 4.75 -2.28125 4.8125 -2.359375 C 4.796875 -2.671875 4.78125 -3.15625 4.78125 -3.375 C 4.78125 -3.578125 4.796875 -4.015625 4.8125 -4.375 C 4.75 -4.4375 4.5 -4.4375 4.421875 -4.375 C 4.390625 -3.734375 4.375 -3.59375 3.453125 -3.59375 L 2.671875 -3.59375 L 2.671875 -5.5625 C 2.671875 -5.796875 2.84375 -5.953125 3.109375 -5.953125 L 3.90625 -5.953125 C 5.046875 -5.953125 5.234375 -5.5 5.484375 -4.703125 C 5.625 -4.6875 5.75 -4.71875 5.859375 -4.765625 C 5.796875 -5.25 5.640625 -6.328125 5.609375 -6.4375 C 5.609375 -6.453125 5.59375 -6.46875 5.5625 -6.46875 C 5.375 -6.4375 5.234375 -6.421875 5 -6.421875 L 2.109375 -6.421875 C 1.703125 -6.421875 1.0625 -6.4375 0.5625 -6.453125 C 0.46875 -6.359375 0.46875 -6.0625 0.5625 -5.984375 C 1.40625 -5.9375 1.5625 -5.875 1.5625 -4.71875 L 1.5625 -1.703125 C 1.5625 -0.546875 1.40625 -0.5 0.5625 -0.4375 C 0.46875 -0.34375 0.46875 -0.0625 0.5625 0.03125 C 1.0625 0.015625 1.671875 0 2.125 0 L 4.265625 0 C 4.828125 0 5.75 0.03125 5.75 0.03125 C 5.921875 -0.546875 6.0625 -1.3125 6.171875 -1.890625 C 6.046875 -1.96875 5.9375 -2 5.78125 -1.953125 C 5.546875 -1.125 5.15625 -0.4375 3.984375 -0.4375 L 3.390625 -0.4375 C 2.796875 -0.4375 2.671875 -0.59375 2.671875 -1.046875 L 2.671875 -3.140625 Z M 3.453125 -3.140625 "/>
</symbol>
<symbol overflow="visible" id="glyph0-9">
<path style="stroke:none;" d="M 2.546875 -5.046875 C 2.21875 -5.84375 2.234375 -5.921875 2.984375 -5.984375 C 3.0625 -6.0625 3.0625 -6.359375 2.984375 -6.453125 C 2.546875 -6.4375 2.078125 -6.421875 1.5 -6.421875 C 1.0625 -6.421875 0.640625 -6.4375 0.28125 -6.453125 C 0.203125 -6.359375 0.203125 -6.0625 0.28125 -5.984375 C 0.96875 -5.921875 1.0625 -5.765625 1.390625 -4.96875 L 3.375 -0.390625 C 3.5625 0.015625 3.625 0.171875 3.78125 0.171875 C 3.875 0.171875 3.9375 0.0625 4.125 -0.390625 L 6.171875 -4.953125 C 6.453125 -5.59375 6.609375 -5.9375 7.375 -5.984375 C 7.453125 -6.0625 7.453125 -6.359375 7.375 -6.453125 C 7.0625 -6.4375 6.71875 -6.421875 6.359375 -6.421875 C 5.84375 -6.421875 5.453125 -6.4375 5.078125 -6.453125 C 5 -6.359375 5 -6.0625 5.078125 -5.984375 C 5.828125 -5.9375 5.90625 -5.765625 5.625 -5.046875 L 4.109375 -1.578125 C 4.0625 -1.53125 4.046875 -1.53125 4 -1.578125 Z M 2.546875 -5.046875 "/>
</symbol>
<symbol overflow="visible" id="glyph0-10">
<path style="stroke:none;" d="M 4.890625 -1.703125 L 4.890625 -7.03125 C 4.890625 -7.921875 5.015625 -8.453125 5.53125 -8.453125 L 5.828125 -8.453125 C 6.875 -8.453125 7.53125 -8.09375 7.765625 -7.015625 C 7.921875 -7.015625 8.125 -7.03125 8.25 -7.09375 C 8.15625 -7.734375 8.078125 -8.4375 8.0625 -9.0625 C 8.0625 -9.078125 8.03125 -9.109375 8.015625 -9.109375 C 7.546875 -9.0625 6 -9 4.890625 -9 L 3.703125 -9 C 2.625 -9 0.984375 -9.0625 0.453125 -9.109375 C 0.421875 -9.109375 0.390625 -9.078125 0.390625 -9.0625 C 0.328125 -8.4375 0.203125 -7.71875 0.046875 -7.046875 C 0.1875 -6.984375 0.34375 -6.984375 0.515625 -6.984375 C 0.796875 -8.09375 1.4375 -8.453125 2.359375 -8.453125 L 3.046875 -8.453125 C 3.5625 -8.453125 3.703125 -7.921875 3.703125 -7.078125 L 3.703125 -1.703125 C 3.703125 -0.546875 3.453125 -0.46875 2.34375 -0.4375 C 2.265625 -0.34375 2.265625 -0.0625 2.34375 0.03125 C 3.03125 0.015625 3.734375 0 4.296875 0 C 4.828125 0 5.546875 0.015625 6.234375 0.03125 C 6.328125 -0.0625 6.328125 -0.34375 6.234375 -0.4375 C 5.125 -0.46875 4.890625 -0.546875 4.890625 -1.703125 Z M 4.890625 -1.703125 "/>
</symbol>
<symbol overflow="visible" id="glyph0-11">
<path style="stroke:none;" d="M 3.796875 -8.625 C 4.640625 -8.625 5.65625 -8.3125 5.65625 -6.671875 C 5.65625 -4.921875 4.65625 -4.53125 3.3125 -4.53125 L 2.640625 -4.53125 L 2.640625 -7.734375 C 2.640625 -8.140625 2.796875 -8.625 3.796875 -8.625 Z M 2.640625 -1.703125 L 2.640625 -4.0625 C 3.8125 -4.0625 4.078125 -3.84375 4.265625 -3.53125 L 5.765625 -1.109375 C 6.171875 -0.453125 6.765625 0.140625 7.609375 0.140625 C 7.8125 0.140625 8.046875 0.109375 8.1875 0.046875 C 8.25 -0.0625 8.234375 -0.1875 8.171875 -0.296875 C 7.546875 -0.296875 7.203125 -0.765625 6.84375 -1.375 L 5.078125 -4.296875 C 5.671875 -4.5 6.9375 -5.21875 6.9375 -6.6875 C 6.9375 -7.375 6.703125 -7.953125 6.1875 -8.421875 C 5.53125 -9.0625 4.65625 -9.09375 3.78125 -9.09375 C 3.125 -9.09375 2.546875 -9 2.03125 -9 C 1.546875 -9 0.890625 -9.015625 0.234375 -9.03125 C 0.15625 -8.9375 0.15625 -8.65625 0.234375 -8.5625 C 1.21875 -8.53125 1.453125 -8.453125 1.453125 -7.296875 L 1.453125 -1.703125 C 1.453125 -0.546875 1.21875 -0.46875 0.234375 -0.4375 C 0.15625 -0.34375 0.15625 -0.0625 0.234375 0.03125 C 0.859375 0.015625 1.515625 0 2.046875 0 C 2.578125 0 3.234375 0.015625 3.84375 0.03125 C 3.9375 -0.0625 3.9375 -0.34375 3.84375 -0.4375 C 2.875 -0.46875 2.640625 -0.546875 2.640625 -1.703125 Z M 2.640625 -1.703125 "/>
</symbol>
<symbol overflow="visible" id="glyph0-12">
<path style="stroke:none;" d="M 3.921875 -5.03125 L 2.65625 -5.03125 L 2.65625 -7.546875 C 2.65625 -8.15625 2.8125 -8.4375 3.578125 -8.4375 L 4.625 -8.4375 C 5.671875 -8.4375 5.890625 -7.890625 6.1875 -6.921875 C 6.359375 -6.890625 6.515625 -6.921875 6.65625 -6.984375 C 6.578125 -7.5625 6.375 -8.90625 6.34375 -9.015625 C 6.34375 -9.046875 6.328125 -9.0625 6.296875 -9.0625 C 6.0625 -9.015625 5.9375 -9 5.609375 -9 L 2.046875 -9 C 1.625 -9 0.8125 -9.015625 0.25 -9.03125 C 0.171875 -8.9375 0.171875 -8.65625 0.25 -8.5625 C 1.234375 -8.53125 1.46875 -8.453125 1.46875 -7.296875 L 1.46875 -1.703125 C 1.46875 -0.546875 1.234375 -0.46875 0.25 -0.4375 C 0.171875 -0.34375 0.171875 -0.0625 0.25 0.03125 C 0.765625 0.015625 1.609375 0 2.0625 0 L 5.0625 0 C 5.734375 0 6.84375 0.03125 6.84375 0.03125 C 7.046875 -0.671875 7.25 -1.59375 7.375 -2.296875 C 7.234375 -2.390625 7.0625 -2.40625 6.875 -2.375 C 6.59375 -1.375 6.109375 -0.546875 5.046875 -0.546875 L 3.4375 -0.546875 C 2.84375 -0.546875 2.65625 -0.765625 2.65625 -1.421875 L 2.65625 -4.5 L 3.921875 -4.5 C 5.109375 -4.5 5.15625 -4.1875 5.1875 -3.5625 C 5.28125 -3.46875 5.5625 -3.46875 5.65625 -3.5625 C 5.640625 -3.921875 5.625 -4.3125 5.625 -4.78125 C 5.625 -5.171875 5.640625 -5.65625 5.65625 -5.984375 C 5.5625 -6.0625 5.28125 -6.0625 5.1875 -5.984375 C 5.15625 -5.21875 5.109375 -5.03125 3.921875 -5.03125 Z M 3.921875 -5.03125 "/>
</symbol>
<symbol overflow="visible" id="glyph0-13">
<path style="stroke:none;" d="M 4.984375 0.140625 C 6.328125 0.140625 7.578125 -0.5 8.53125 -1.75 C 8.453125 -1.875 8.359375 -1.953125 8.203125 -1.953125 C 7.21875 -0.859375 6.265625 -0.4375 4.96875 -0.4375 C 3.078125 -0.4375 1.78125 -2.546875 1.78125 -4.59375 C 1.78125 -5.796875 2.109375 -6.796875 2.609375 -7.421875 C 3.3125 -8.28125 4.109375 -8.671875 4.84375 -8.671875 C 6.765625 -8.671875 7.53125 -7.515625 7.890625 -6.328125 C 8.0625 -6.265625 8.203125 -6.3125 8.359375 -6.390625 C 8.28125 -7.109375 8.1875 -7.78125 8.046875 -8.546875 C 7.34375 -8.625 6.71875 -9.1875 5 -9.1875 C 3.8125 -9.1875 2.8125 -8.75 2 -8 C 1.078125 -7.140625 0.515625 -5.78125 0.515625 -4.328125 C 0.515625 -1.890625 1.984375 0.140625 4.984375 0.140625 Z M 4.984375 0.140625 "/>
</symbol>
<symbol overflow="visible" id="glyph0-14">
<path style="stroke:none;" d="M 2.078125 0 L 5.046875 0 C 5.421875 0 6.71875 0.03125 6.71875 0.03125 C 6.84375 -0.671875 6.984375 -1.578125 7.078125 -2.296875 C 6.9375 -2.375 6.78125 -2.40625 6.609375 -2.375 C 6.328125 -1.375 5.8125 -0.546875 4.34375 -0.546875 L 3.453125 -0.546875 C 2.921875 -0.546875 2.671875 -0.8125 2.671875 -1.515625 L 2.671875 -7.296875 C 2.671875 -8.453125 2.90625 -8.53125 3.875 -8.5625 C 3.96875 -8.65625 3.96875 -8.9375 3.875 -9.03125 C 3.25 -9.015625 2.59375 -9 2.0625 -9 C 1.5625 -9 0.90625 -9.015625 0.265625 -9.03125 C 0.1875 -8.9375 0.1875 -8.65625 0.265625 -8.5625 C 1.234375 -8.53125 1.484375 -8.453125 1.484375 -7.296875 L 1.484375 -1.703125 C 1.484375 -0.546875 1.234375 -0.46875 0.265625 -0.4375 C 0.1875 -0.34375 0.1875 -0.0625 0.265625 0.03125 C 0.8125 0.015625 1.609375 0 2.078125 0 Z M 2.078125 0 "/>
</symbol>
<symbol overflow="visible" id="glyph0-15">
<path style="stroke:none;" d="M 1.796875 -9.734375 C 1.375 -9.734375 1.0625 -9.453125 1.0625 -9.0625 C 1.0625 -8.625 1.421875 -8.484375 1.671875 -8.4375 C 1.9375 -8.40625 2.171875 -8.328125 2.171875 -8.015625 C 2.171875 -7.71875 1.671875 -7.078125 0.953125 -6.890625 C 0.953125 -6.75 0.984375 -6.65625 1.078125 -6.5625 C 1.90625 -6.71875 2.71875 -7.375 2.71875 -8.359375 C 2.71875 -9.1875 2.359375 -9.734375 1.796875 -9.734375 Z M 1.796875 -9.734375 "/>
</symbol>
<symbol overflow="visible" id="glyph0-16">
<path style="stroke:none;" d="M 4.015625 -1.703125 L 4.015625 -6.546875 C 4.015625 -7.375 4.03125 -8.234375 4.0625 -8.40625 C 4.0625 -8.484375 4.03125 -8.484375 3.984375 -8.484375 C 3.203125 -8.015625 2.46875 -7.65625 1.234375 -7.09375 C 1.265625 -6.9375 1.328125 -6.796875 1.453125 -6.71875 C 2.09375 -6.984375 2.40625 -7.0625 2.671875 -7.0625 C 2.90625 -7.0625 2.9375 -6.71875 2.9375 -6.25 L 2.9375 -1.703125 C 2.9375 -0.546875 2.5625 -0.46875 1.59375 -0.4375 C 1.5 -0.34375 1.5 -0.0625 1.59375 0.03125 C 2.28125 0.015625 2.78125 0 3.53125 0 C 4.203125 0 4.53125 0.015625 5.234375 0.03125 C 5.3125 -0.0625 5.3125 -0.34375 5.234375 -0.4375 C 4.25 -0.46875 4.015625 -0.546875 4.015625 -1.703125 Z M 4.015625 -1.703125 "/>
</symbol>
<symbol overflow="visible" id="glyph0-17">
<path style="stroke:none;" d="M 4.6875 -4.078125 C 4.234375 -3.765625 3.765625 -3.75 3.53125 -3.75 C 2.15625 -3.75 1.859375 -5.09375 1.859375 -5.796875 C 1.859375 -7.328125 2.4375 -8.015625 3.125 -8.015625 C 4 -8.015625 4.796875 -7.546875 4.796875 -5.15625 C 4.796875 -4.859375 4.765625 -4.484375 4.6875 -4.078125 Z M 4.5625 -3.578125 C 4.1875 -2.296875 3.296875 -0.890625 1.4375 -0.203125 C 1.4375 -0.03125 1.5 0.09375 1.609375 0.171875 C 3.015625 -0.25 3.875 -0.84375 4.65625 -1.75 C 5.53125 -2.75 5.953125 -4.015625 5.953125 -5.125 C 5.953125 -7.953125 4.359375 -8.515625 3.28125 -8.515625 C 1.453125 -8.515625 0.703125 -6.734375 0.703125 -5.546875 C 0.703125 -4.34375 1.34375 -3.265625 3.234375 -3.265625 C 3.59375 -3.265625 4.140625 -3.375 4.5625 -3.578125 Z M 4.5625 -3.578125 "/>
</symbol>
<symbol overflow="visible" id="glyph0-18">
<path style="stroke:none;" d="M 0.84375 -6.53125 C 0.84375 -6.234375 1.109375 -5.984375 1.40625 -5.984375 C 1.640625 -5.984375 2.0625 -6.234375 2.0625 -6.546875 C 2.0625 -6.65625 2.03125 -6.734375 2.015625 -6.84375 C 1.984375 -6.9375 1.890625 -7.0625 1.890625 -7.171875 C 1.890625 -7.515625 2.265625 -8.015625 3.28125 -8.015625 C 3.78125 -8.015625 4.5 -7.671875 4.5 -6.328125 C 4.5 -5.4375 4.171875 -4.71875 3.34375 -3.875 L 2.3125 -2.859375 C 0.953125 -1.46875 0.71875 -0.796875 0.71875 0.03125 C 0.71875 0.03125 1.4375 0 1.890625 0 L 4.328125 0 C 4.765625 0 5.40625 0.03125 5.40625 0.03125 C 5.59375 -0.71875 5.734375 -1.765625 5.75 -2.171875 C 5.671875 -2.25 5.484375 -2.28125 5.34375 -2.25 C 5.109375 -1.25 4.875 -0.90625 4.375 -0.90625 L 1.890625 -0.90625 C 1.890625 -1.578125 2.84375 -2.53125 2.921875 -2.59375 L 4.328125 -3.953125 C 5.125 -4.71875 5.71875 -5.328125 5.71875 -6.390625 C 5.71875 -7.890625 4.5 -8.515625 3.359375 -8.515625 C 1.8125 -8.515625 0.84375 -7.375 0.84375 -6.53125 Z M 0.84375 -6.53125 "/>
</symbol>
<symbol overflow="visible" id="glyph0-19">
<path style="stroke:none;" d="M 3.234375 -8.015625 C 3.46875 -8.015625 3.703125 -7.9375 3.859375 -7.78125 C 4.296875 -7.421875 4.671875 -6.359375 4.671875 -4.5 C 4.671875 -3.203125 4.625 -2.328125 4.4375 -1.625 C 4.125 -0.46875 3.453125 -0.34375 3.1875 -0.34375 C 1.890625 -0.34375 1.765625 -2.734375 1.765625 -3.953125 C 1.765625 -7.375 2.609375 -8.015625 3.234375 -8.015625 Z M 3.1875 0.140625 C 4.25 0.140625 5.890625 -0.953125 5.890625 -4.234375 C 5.890625 -5.609375 5.546875 -6.796875 4.9375 -7.609375 C 4.578125 -8.09375 3.984375 -8.515625 3.234375 -8.515625 C 1.859375 -8.515625 0.546875 -6.859375 0.546875 -4.109375 C 0.546875 -2.609375 1 -1.21875 1.765625 -0.453125 C 2.15625 -0.0625 2.640625 0.140625 3.1875 0.140625 Z M 3.1875 0.140625 "/>
</symbol>
<symbol overflow="visible" id="glyph0-20">
<path style="stroke:none;" d="M 2.375 -5 C 2.359375 -5.40625 2.328125 -5.921875 2.265625 -6.0625 C 2.234375 -6.125 2.203125 -6.171875 2.09375 -6.171875 C 1.703125 -6.015625 1.34375 -5.890625 0.375 -5.765625 C 0.34375 -5.671875 0.375 -5.453125 0.40625 -5.375 C 1.15625 -5.296875 1.3125 -5.234375 1.3125 -4.421875 L 1.3125 -1.703125 C 1.3125 -0.5625 1.125 -0.484375 0.359375 -0.4375 C 0.28125 -0.34375 0.28125 -0.0625 0.359375 0.03125 C 0.78125 0.015625 1.3125 0 1.875 0 C 2.421875 0 2.859375 0.015625 3.28125 0.03125 C 3.359375 -0.0625 3.359375 -0.34375 3.28125 -0.4375 C 2.5625 -0.5 2.40625 -0.5625 2.40625 -1.703125 L 2.40625 -3.984375 C 2.40625 -4.28125 2.546875 -4.453125 2.65625 -4.578125 C 3.203125 -5.125 3.71875 -5.40625 4.15625 -5.40625 C 4.6875 -5.40625 5.078125 -5.0625 5.078125 -4.125 L 5.078125 -1.703125 C 5.078125 -0.5625 4.96875 -0.484375 4.21875 -0.4375 C 4.140625 -0.34375 4.140625 -0.0625 4.21875 0.03125 C 4.5625 0.015625 5.078125 0 5.640625 0 C 6.1875 0 6.65625 0.015625 7 0.03125 C 7.078125 -0.0625 7.078125 -0.34375 7 -0.4375 C 6.3125 -0.484375 6.1875 -0.5625 6.1875 -1.703125 L 6.1875 -3.921875 C 6.1875 -4.109375 6.1875 -4.3125 6.171875 -4.484375 C 6.84375 -5.21875 7.46875 -5.40625 8.015625 -5.40625 C 8.546875 -5.40625 8.84375 -5.09375 8.84375 -4.15625 L 8.84375 -1.703125 C 8.84375 -0.5625 8.703125 -0.484375 7.984375 -0.4375 C 7.90625 -0.34375 7.90625 -0.0625 7.984375 0.03125 C 8.328125 0.015625 8.84375 0 9.40625 0 C 9.96875 0 10.453125 0.015625 10.84375 0.03125 C 10.90625 -0.0625 10.90625 -0.34375 10.84375 -0.4375 C 10.078125 -0.484375 9.953125 -0.5625 9.953125 -1.703125 L 9.953125 -3.90625 C 9.953125 -5.15625 9.734375 -6.125 8.515625 -6.125 C 7.796875 -6.125 6.9375 -5.859375 6.203125 -5.09375 C 6.171875 -5.046875 6.078125 -4.984375 6.0625 -5.109375 C 5.9375 -5.671875 5.390625 -6.125 4.65625 -6.125 C 3.84375 -6.125 3.125 -5.65625 2.546875 -5 C 2.46875 -4.921875 2.390625 -4.828125 2.375 -5 Z M 2.375 -5 "/>
</symbol>
<symbol overflow="visible" id="glyph0-21">
<path style="stroke:none;" d="M 0.671875 -1.921875 C 0.71875 -1.234375 0.765625 -0.59375 0.765625 0 C 0.90625 -0.03125 1.046875 -0.046875 1.109375 -0.046875 C 1.21875 -0.046875 1.296875 -0.046875 1.390625 -0.015625 C 1.765625 0.078125 2.15625 0.140625 2.671875 0.140625 C 3.453125 0.140625 4.890625 -0.234375 4.890625 -1.625 C 4.890625 -2.5625 4.203125 -3.125 3.25 -3.46875 C 2.40625 -3.796875 1.859375 -4 1.859375 -4.765625 C 1.859375 -5.34375 2.359375 -5.671875 2.828125 -5.671875 C 3.140625 -5.671875 3.953125 -5.546875 4.125 -4.375 C 4.21875 -4.28125 4.5 -4.296875 4.578125 -4.375 C 4.625 -4.890625 4.640625 -5.40625 4.65625 -5.859375 C 4.234375 -5.9375 3.5625 -6.125 2.828125 -6.125 C 1.796875 -6.125 0.859375 -5.453125 0.859375 -4.5625 C 0.859375 -3.546875 1.328125 -3.109375 2.40625 -2.671875 C 3.5625 -2.1875 3.828125 -1.890625 3.828125 -1.296875 C 3.828125 -0.609375 3.15625 -0.328125 2.640625 -0.328125 C 2.09375 -0.328125 1.78125 -0.5 1.640625 -0.65625 C 1.34375 -0.984375 1.1875 -1.59375 1.109375 -1.9375 C 1.015625 -2.015625 0.75 -2.015625 0.671875 -1.921875 Z M 0.671875 -1.921875 "/>
</symbol>
<symbol overflow="visible" id="glyph0-22">
<path style="stroke:none;" d="M 3.671875 -3.953125 C 3.359375 -3.953125 3.265625 -3.984375 3.328125 -4.125 L 4.75 -7.75 L 4.828125 -7.75 L 6.140625 -3.953125 Z M 2.15625 -1.109375 L 2.9375 -3.125 C 3 -3.3125 3.078125 -3.359375 3.421875 -3.359375 L 6.359375 -3.359375 L 7.171875 -1 C 7.34375 -0.53125 6.8125 -0.46875 6.140625 -0.4375 C 6.0625 -0.34375 6.0625 -0.0625 6.140625 0.03125 C 6.65625 0.015625 7.421875 0 7.96875 0 C 8.546875 0 9.0625 0.015625 9.5625 0.03125 C 9.640625 -0.0625 9.640625 -0.34375 9.5625 -0.4375 C 9.015625 -0.484375 8.546875 -0.53125 8.296875 -1.203125 L 5.421875 -9.1875 C 5.21875 -9.0625 4.84375 -8.90625 4.65625 -8.90625 L 1.5 -1.421875 C 1.125 -0.5625 0.71875 -0.46875 0.09375 -0.4375 C 0.015625 -0.34375 0.015625 -0.0625 0.09375 0.03125 C 0.453125 0.015625 0.921875 0 1.34375 0 C 1.90625 0 2.609375 0.015625 3.125 0.03125 C 3.203125 -0.0625 3.203125 -0.34375 3.125 -0.4375 C 2.59375 -0.46875 1.9375 -0.53125 2.15625 -1.109375 Z M 2.15625 -1.109375 "/>
</symbol>
<symbol overflow="visible" id="glyph0-23">
<path style="stroke:none;" d="M 2.5625 -5 C 2.484375 -4.890625 2.40625 -4.875 2.40625 -5 C 2.390625 -5.375 2.359375 -5.921875 2.28125 -6.0625 C 2.265625 -6.125 2.234375 -6.171875 2.125 -6.171875 C 1.734375 -6.015625 1.375 -5.890625 0.40625 -5.765625 C 0.375 -5.671875 0.40625 -5.453125 0.4375 -5.375 C 1.1875 -5.296875 1.34375 -5.234375 1.34375 -4.421875 L 1.34375 -1.703125 C 1.34375 -0.5625 1.203125 -0.5 0.359375 -0.4375 C 0.28125 -0.34375 0.28125 -0.0625 0.359375 0.03125 C 0.78125 0.015625 1.34375 0 1.890625 0 C 2.453125 0 2.875 0.015625 3.296875 0.03125 C 3.375 -0.0625 3.375 -0.34375 3.296875 -0.4375 C 2.578125 -0.5 2.4375 -0.5625 2.4375 -1.703125 L 2.4375 -3.984375 C 2.4375 -4.28125 2.5625 -4.453125 2.671875 -4.578125 C 3.203125 -5.09375 3.84375 -5.40625 4.375 -5.40625 C 4.65625 -5.40625 4.953125 -5.21875 5.125 -4.890625 C 5.265625 -4.625 5.28125 -4.234375 5.28125 -3.828125 L 5.28125 -1.703125 C 5.28125 -0.5625 5.15625 -0.5 4.421875 -0.4375 C 4.359375 -0.34375 4.359375 -0.0625 4.421875 0.03125 C 4.84375 0.015625 5.28125 0 5.84375 0 C 6.40625 0 6.90625 0.015625 7.328125 0.03125 C 7.390625 -0.0625 7.390625 -0.34375 7.328125 -0.4375 C 6.546875 -0.5 6.390625 -0.5625 6.390625 -1.703125 L 6.390625 -3.78125 C 6.390625 -4.546875 6.328125 -5.21875 6.015625 -5.65625 C 5.78125 -5.953125 5.34375 -6.125 4.859375 -6.125 C 4.171875 -6.125 3.390625 -5.9375 2.5625 -5 Z M 2.5625 -5 "/>
</symbol>
<symbol overflow="visible" id="glyph0-24">
<path style="stroke:none;" d="M 5.265625 -9.1875 C 2.9375 -9.1875 0.515625 -7.359375 0.515625 -4.28125 C 0.515625 -1.765625 2.25 0.140625 4.90625 0.140625 C 6.5625 0.140625 7.859375 -0.203125 8.796875 -1.015625 C 8.65625 -1.140625 8.578125 -1.25 8.578125 -1.40625 L 8.578125 -3.03125 C 8.578125 -3.515625 8.8125 -3.65625 9.21875 -3.703125 C 9.3125 -3.78125 9.3125 -4.109375 9.21875 -4.203125 C 8.890625 -4.1875 8.546875 -4.171875 7.984375 -4.171875 C 7.515625 -4.171875 6.859375 -4.1875 6.25 -4.203125 C 6.171875 -4.109375 6.171875 -3.78125 6.25 -3.703125 C 7.015625 -3.640625 7.390625 -3.59375 7.390625 -3.03125 L 7.390625 -0.890625 C 6.921875 -0.453125 5.984375 -0.359375 5.234375 -0.359375 C 3.03125 -0.359375 1.859375 -2.71875 1.859375 -4.5625 C 1.859375 -7 3.453125 -8.671875 5.0625 -8.671875 C 7.09375 -8.671875 7.65625 -7.515625 8.015625 -6.328125 C 8.171875 -6.3125 8.328125 -6.328125 8.484375 -6.40625 C 8.453125 -6.984375 8.390625 -7.546875 8.15625 -8.546875 C 7.328125 -8.6875 6.8125 -9.1875 5.265625 -9.1875 Z M 5.265625 -9.1875 "/>
</symbol>
<symbol overflow="visible" id="glyph0-25">
<path style="stroke:none;" d="M 2.671875 -7.671875 C 2.671875 -8.40625 2.671875 -8.546875 3.875 -8.546875 C 4.65625 -8.546875 5.671875 -8.140625 5.671875 -6.71875 C 5.671875 -5.53125 4.859375 -5.109375 3.703125 -5.109375 L 2.671875 -5.109375 Z M 2.671875 -4.625 L 3.625 -4.625 C 5.546875 -4.625 6.328125 -3.5625 6.328125 -2.296875 C 6.328125 -1.28125 5.9375 -0.4375 3.828125 -0.4375 C 2.84375 -0.4375 2.671875 -0.796875 2.671875 -1.640625 Z M 0.265625 -9.03125 C 0.1875 -8.9375 0.1875 -8.65625 0.265625 -8.5625 C 1.234375 -8.53125 1.484375 -8.453125 1.484375 -7.296875 L 1.484375 -1.703125 C 1.484375 -0.546875 1.234375 -0.46875 0.265625 -0.4375 C 0.1875 -0.34375 0.1875 -0.0625 0.265625 0.03125 C 0.8125 0.015625 1.5625 0 2.078125 0 C 2.578125 0 2.9375 0.03125 4.109375 0.03125 C 6.890625 0.03125 7.625 -1.375 7.625 -2.5625 C 7.625 -3.90625 6.703125 -4.671875 5.484375 -5.015625 L 5.484375 -5.046875 C 6.1875 -5.40625 6.8125 -6.125 6.8125 -6.875 C 6.8125 -7.8125 6.40625 -9.03125 3.8125 -9.03125 C 3.328125 -9.03125 2.5625 -9 2.0625 -9 C 1.5625 -9 0.8125 -9.015625 0.265625 -9.03125 Z M 0.265625 -9.03125 "/>
</symbol>
<symbol overflow="visible" id="glyph0-26">
<path style="stroke:none;" d="M 4.453125 -2.640625 C 4.453125 -1.3125 3.75 -0.328125 2.921875 -0.328125 C 2.390625 -0.328125 2.203125 -0.6875 2 -0.96875 C 1.8125 -1.203125 1.578125 -1.40625 1.28125 -1.40625 C 1.015625 -1.40625 0.75 -1.171875 0.75 -0.890625 C 0.75 -0.328125 1.9375 0.15625 2.734375 0.15625 C 4.46875 0.15625 5.6875 -1.125 5.6875 -2.890625 C 5.6875 -4.234375 4.765625 -5.453125 3.1875 -5.453125 C 2.59375 -5.453125 2.078125 -5.328125 1.828125 -5.234375 L 2.109375 -7.5625 C 2.625 -7.5 3.0625 -7.4375 3.734375 -7.4375 C 4.15625 -7.4375 4.625 -7.46875 5.203125 -7.515625 L 5.421875 -8.46875 L 5.328125 -8.53125 C 4.53125 -8.4375 3.78125 -8.375 3.046875 -8.375 C 2.53125 -8.375 2.015625 -8.40625 1.53125 -8.4375 L 1.0625 -4.421875 C 1.796875 -4.703125 2.328125 -4.765625 2.828125 -4.765625 C 3.734375 -4.765625 4.453125 -4.15625 4.453125 -2.640625 Z M 4.453125 -2.640625 "/>
</symbol>
<symbol overflow="visible" id="glyph0-27">
<path style="stroke:none;" d="M 3.78125 -7.078125 L 3.78125 -3.0625 L 1.109375 -3.0625 C 1.828125 -4.203125 2.8125 -5.765625 3.78125 -7.078125 Z M 6 -3.0625 L 4.84375 -3.0625 L 4.84375 -7.125 C 4.84375 -7.828125 4.84375 -8.375 4.875 -8.484375 L 4.84375 -8.515625 L 4.390625 -8.515625 C 4.296875 -8.515625 4.234375 -8.421875 4.171875 -8.359375 C 3.296875 -7.28125 1.671875 -4.984375 0.390625 -2.984375 C 0.4375 -2.78125 0.515625 -2.40625 0.9375 -2.40625 L 3.78125 -2.40625 L 3.78125 -1.109375 C 3.78125 -0.46875 3.25 -0.46875 2.65625 -0.4375 C 2.5625 -0.34375 2.5625 -0.0625 2.65625 0.03125 C 3.09375 0.015625 3.65625 0 4.296875 0 C 4.84375 0 5.375 0.015625 5.8125 0.03125 C 5.90625 -0.0625 5.90625 -0.34375 5.8125 -0.4375 C 5.140625 -0.484375 4.84375 -0.453125 4.84375 -1.109375 L 4.84375 -2.40625 L 5.796875 -2.40625 C 6 -2.40625 6.203125 -2.671875 6.203125 -2.828125 C 6.203125 -2.96875 6.15625 -3.0625 6 -3.0625 Z M 6 -3.0625 "/>
</symbol>
<symbol overflow="visible" id="glyph0-28">
<path style="stroke:none;" d="M 0.796875 -0.59375 C 0.796875 -0.203125 1.125 0.140625 1.53125 0.140625 C 1.9375 0.140625 2.28125 -0.203125 2.28125 -0.59375 C 2.28125 -1 1.9375 -1.34375 1.53125 -1.34375 C 1.125 -1.34375 0.796875 -1 0.796875 -0.59375 Z M 0.796875 -0.59375 "/>
</symbol>
<symbol overflow="visible" id="glyph0-29">
<path style="stroke:none;" d="M 1.890625 -4.28125 C 2.34375 -4.59375 2.796875 -4.609375 3.046875 -4.609375 C 4.40625 -4.609375 4.71875 -3.265625 4.71875 -2.5625 C 4.71875 -1.03125 4.125 -0.328125 3.453125 -0.328125 C 2.5625 -0.328125 1.765625 -0.8125 1.765625 -3.1875 C 1.765625 -3.515625 1.796875 -3.875 1.890625 -4.28125 Z M 2.015625 -4.78125 C 2.390625 -6.0625 3.28125 -7.46875 5.140625 -8.15625 C 5.140625 -8.328125 5.078125 -8.453125 4.96875 -8.53125 C 3.5625 -8.109375 2.6875 -7.515625 1.90625 -6.609375 C 1.046875 -5.609375 0.609375 -4.34375 0.609375 -3.234375 C 0.609375 -0.40625 2.21875 0.15625 3.296875 0.15625 C 5.125 0.15625 5.875 -1.625 5.875 -2.8125 C 5.875 -4.015625 5.234375 -5.09375 3.328125 -5.09375 C 2.96875 -5.09375 2.421875 -4.984375 2.015625 -4.78125 Z M 2.015625 -4.78125 "/>
</symbol>
<symbol overflow="visible" id="glyph0-30">
<path style="stroke:none;" d="M 3.265625 -8.015625 C 4.171875 -8.015625 4.5 -7.421875 4.5 -6.78125 C 4.5 -6.03125 3.765625 -5.40625 3.390625 -5.125 L 2.953125 -5.390625 C 2.078125 -5.953125 1.984375 -6.421875 1.984375 -6.84375 C 1.984375 -7.5 2.421875 -8.015625 3.265625 -8.015625 Z M 5.484375 -6.765625 C 5.484375 -7.765625 4.703125 -8.515625 3.328125 -8.515625 C 1.90625 -8.515625 0.984375 -7.65625 0.984375 -6.578125 C 0.984375 -5.796875 1.375 -5.234375 2.21875 -4.703125 L 2.578125 -4.484375 C 2.171875 -4.265625 1.796875 -4.015625 1.453125 -3.71875 C 0.875 -3.203125 0.640625 -2.578125 0.640625 -2.03125 C 0.640625 -0.609375 1.640625 0.140625 3.125 0.140625 C 4.953125 0.140625 5.84375 -1.203125 5.84375 -2.265625 C 5.84375 -3.0625 5.5 -3.78125 4.765625 -4.234375 L 3.765625 -4.828125 C 4.421875 -5.15625 5.484375 -5.875 5.484375 -6.765625 Z M 3.15625 -0.34375 C 2.53125 -0.34375 1.578125 -0.78125 1.578125 -2.03125 C 1.578125 -2.453125 1.765625 -3.4375 2.953125 -4.234375 L 3.609375 -3.84375 C 4.484375 -3.3125 4.828125 -2.65625 4.828125 -1.984375 C 4.828125 -0.59375 3.78125 -0.34375 3.15625 -0.34375 Z M 3.15625 -0.34375 "/>
</symbol>
<symbol overflow="visible" id="glyph0-31">
<path style="stroke:none;" d="M 2.375 -7.46875 L 4.875 -7.46875 C 3.78125 -4.765625 2.671875 -2.03125 1.734375 0.078125 L 1.84375 0.1875 L 2.796875 0.140625 C 3.59375 -2.234375 4.359375 -4.546875 5.921875 -8.359375 L 5.6875 -8.53125 C 5.453125 -8.453125 5.15625 -8.375 4.625 -8.375 L 1.75 -8.375 C 1.265625 -8.375 1.296875 -8.515625 1.046875 -8.5625 C 1 -8.5625 0.984375 -8.5625 0.984375 -8.53125 C 0.984375 -7.859375 0.828125 -7.015625 0.71875 -6.296875 C 0.859375 -6.25 1 -6.234375 1.15625 -6.25 C 1.46875 -7.375 1.921875 -7.46875 2.375 -7.46875 Z M 2.375 -7.46875 "/>
</symbol>
<symbol overflow="visible" id="glyph0-32">
<path style="stroke:none;" d="M 3 -8.015625 C 3.59375 -8.015625 4.15625 -7.65625 4.15625 -6.765625 C 4.15625 -6.0625 3.34375 -5 1.96875 -4.796875 L 2.03125 -4.359375 C 2.28125 -4.375 2.53125 -4.375 2.703125 -4.375 C 3.5 -4.375 4.53125 -4.15625 4.53125 -2.578125 C 4.53125 -0.71875 3.296875 -0.34375 2.796875 -0.34375 C 2.09375 -0.34375 1.96875 -0.671875 1.796875 -0.921875 C 1.65625 -1.109375 1.484375 -1.28125 1.203125 -1.28125 C 0.90625 -1.28125 0.609375 -1.015625 0.609375 -0.796875 C 0.609375 -0.234375 1.78125 0.140625 2.625 0.140625 C 4.28125 0.140625 5.765625 -0.9375 5.765625 -2.78125 C 5.765625 -4.296875 4.625 -4.84375 3.796875 -4.984375 L 3.78125 -5.015625 C 4.921875 -5.546875 5.25 -6.125 5.25 -6.859375 C 5.25 -7.28125 5.15625 -7.625 4.8125 -7.96875 C 4.5 -8.28125 4.015625 -8.515625 3.296875 -8.515625 C 1.234375 -8.515625 0.65625 -7.171875 0.65625 -6.71875 C 0.65625 -6.515625 0.796875 -6.234375 1.125 -6.234375 C 1.625 -6.234375 1.671875 -6.703125 1.671875 -6.96875 C 1.671875 -7.859375 2.640625 -8.015625 3 -8.015625 Z M 3 -8.015625 "/>
</symbol>
<symbol overflow="visible" id="glyph0-33">
<path style="stroke:none;" d="M 2.671875 -1.703125 L 2.671875 -7.296875 C 2.671875 -8.453125 2.90625 -8.53125 3.875 -8.5625 C 3.96875 -8.65625 3.96875 -8.9375 3.875 -9.03125 C 3.265625 -9.015625 2.609375 -9 2.0625 -9 C 1.609375 -9 0.921875 -9.015625 0.265625 -9.03125 C 0.1875 -8.9375 0.1875 -8.65625 0.265625 -8.5625 C 1.234375 -8.53125 1.484375 -8.453125 1.484375 -7.296875 L 1.484375 -1.703125 C 1.484375 -0.546875 1.234375 -0.46875 0.265625 -0.4375 C 0.1875 -0.34375 0.1875 -0.0625 0.265625 0.03125 C 0.890625 0.015625 1.578125 0 2.078125 0 C 2.578125 0 3.25 0.015625 3.875 0.03125 C 3.96875 -0.0625 3.96875 -0.34375 3.875 -0.4375 C 2.90625 -0.46875 2.671875 -0.546875 2.671875 -1.703125 Z M 2.671875 -1.703125 "/>
</symbol>
<symbol overflow="visible" id="glyph0-34">
<path style="stroke:none;" d="M 4.84375 -4.828125 C 4.84375 -3.71875 4.515625 -3.328125 3.28125 -3.328125 L 2.671875 -3.328125 L 2.671875 -5.140625 C 2.671875 -5.875 2.796875 -6.015625 3.59375 -6.015625 C 4.5625 -6.015625 4.84375 -5.671875 4.84375 -4.828125 Z M 2.671875 -1.703125 L 2.671875 -2.921875 L 3.4375 -2.921875 C 3.96875 -2.921875 4.15625 -2.453125 4.34375 -1.9375 L 4.640625 -1.109375 C 4.96875 -0.234375 5.4375 0.09375 6.046875 0.09375 C 6.25 0.09375 6.6875 0.0625 6.921875 0 C 6.96875 -0.140625 6.9375 -0.28125 6.84375 -0.390625 C 6.328125 -0.390625 6.0625 -0.46875 5.796875 -1.203125 L 5.390625 -2.25 C 5.21875 -2.671875 5.046875 -2.921875 4.875 -3.09375 L 4.875 -3.125 C 5.34375 -3.296875 6.0625 -3.859375 6.0625 -4.828125 C 6.0625 -5.984375 5.328125 -6.46875 3.671875 -6.46875 C 3.328125 -6.46875 2.53125 -6.421875 2.109375 -6.421875 C 1.703125 -6.421875 1.109375 -6.4375 0.5625 -6.453125 C 0.46875 -6.359375 0.46875 -6.0625 0.5625 -5.984375 C 1.40625 -5.9375 1.5625 -5.875 1.5625 -4.71875 L 1.5625 -1.703125 C 1.5625 -0.546875 1.40625 -0.5 0.5625 -0.4375 C 0.46875 -0.34375 0.46875 -0.0625 0.5625 0.03125 C 1.09375 0.015625 1.65625 0 2.125 0 C 2.546875 0 3.015625 0.015625 3.453125 0.03125 C 3.546875 -0.0625 3.546875 -0.34375 3.453125 -0.4375 C 2.796875 -0.46875 2.671875 -0.546875 2.671875 -1.703125 Z M 2.671875 -1.703125 "/>
</symbol>
<symbol overflow="visible" id="glyph0-35">
<path style="stroke:none;" d="M 4.234375 -1.703125 L 4.234375 -5.21875 C 4.234375 -5.734375 4.375 -5.9375 4.828125 -5.9375 L 5.1875 -5.9375 C 6.0625 -5.9375 6.25 -5.671875 6.53125 -4.65625 C 6.671875 -4.625 6.796875 -4.625 6.90625 -4.703125 C 6.84375 -5.390625 6.828125 -5.90625 6.796875 -6.5625 C 6.3125 -6.5 5.40625 -6.421875 4.234375 -6.421875 L 3.140625 -6.421875 C 1.765625 -6.421875 0.96875 -6.484375 0.59375 -6.5625 C 0.59375 -5.90625 0.578125 -5.359375 0.484375 -4.703125 C 0.609375 -4.65625 0.734375 -4.640625 0.859375 -4.65625 C 1.140625 -5.671875 1.296875 -5.9375 2.203125 -5.9375 L 2.546875 -5.9375 C 2.96875 -5.9375 3.140625 -5.78125 3.140625 -5.234375 L 3.140625 -1.703125 C 3.140625 -0.546875 2.984375 -0.5 2.140625 -0.4375 C 2.046875 -0.34375 2.046875 -0.0625 2.140625 0.03125 C 2.65625 0.015625 3.21875 0 3.703125 0 C 4.1875 0 4.734375 0.015625 5.25 0.03125 C 5.328125 -0.0625 5.328125 -0.34375 5.25 -0.4375 C 4.390625 -0.484375 4.234375 -0.546875 4.234375 -1.703125 Z M 4.234375 -1.703125 "/>
</symbol>
<symbol overflow="visible" id="glyph0-36">
<path style="stroke:none;" d="M 2.71875 -4.71875 C 2.71875 -5.875 2.875 -5.921875 3.71875 -5.984375 C 3.8125 -6.0625 3.8125 -6.359375 3.71875 -6.453125 C 3.1875 -6.4375 2.59375 -6.421875 2.15625 -6.421875 C 1.75 -6.421875 1.15625 -6.4375 0.609375 -6.453125 C 0.53125 -6.359375 0.53125 -6.0625 0.609375 -5.984375 C 1.46875 -5.9375 1.625 -5.875 1.625 -4.71875 L 1.625 -1.703125 C 1.625 -0.546875 1.46875 -0.5 0.609375 -0.4375 C 0.53125 -0.34375 0.53125 -0.0625 0.609375 0.03125 C 1.125 0.015625 1.703125 0 2.171875 0 C 2.625 0 3.234375 0.015625 3.71875 0.03125 C 3.8125 -0.0625 3.8125 -0.34375 3.71875 -0.4375 C 2.875 -0.484375 2.71875 -0.546875 2.71875 -1.703125 Z M 2.71875 -4.71875 "/>
</symbol>
<symbol overflow="visible" id="glyph0-37">
<path style="stroke:none;" d="M 3.953125 -4.5 C 5.140625 -4.5 5.171875 -4.1875 5.21875 -3.5625 C 5.296875 -3.46875 5.59375 -3.46875 5.671875 -3.5625 C 5.671875 -3.90625 5.65625 -4.3125 5.65625 -4.78125 C 5.65625 -5.265625 5.671875 -5.625 5.671875 -5.984375 C 5.59375 -6.0625 5.296875 -6.0625 5.21875 -5.984375 C 5.171875 -5.21875 5.140625 -5.03125 3.953125 -5.03125 L 2.65625 -5.03125 L 2.65625 -7.546875 C 2.65625 -8.296875 2.8125 -8.4375 3.4375 -8.4375 L 4.0625 -8.4375 C 5.546875 -8.4375 5.890625 -7.890625 6.1875 -6.921875 C 6.359375 -6.921875 6.515625 -6.953125 6.625 -6.984375 C 6.5625 -7.5625 6.34375 -8.90625 6.328125 -9.015625 C 6.328125 -9.046875 6.3125 -9.0625 6.265625 -9.0625 C 6.03125 -9.015625 5.953125 -9 5.609375 -9 L 2.046875 -9 C 1.609375 -9 0.8125 -9.015625 0.25 -9.03125 C 0.171875 -8.9375 0.171875 -8.65625 0.25 -8.5625 C 1.234375 -8.53125 1.46875 -8.453125 1.46875 -7.296875 L 1.46875 -1.703125 C 1.46875 -0.546875 1.234375 -0.46875 0.25 -0.4375 C 0.171875 -0.34375 0.171875 -0.0625 0.25 0.03125 C 0.734375 0.015625 1.4375 0 2.0625 0 C 2.6875 0 3.375 0.015625 3.859375 0.03125 C 3.953125 -0.0625 3.953125 -0.34375 3.859375 -0.4375 C 2.890625 -0.46875 2.65625 -0.546875 2.65625 -1.703125 L 2.65625 -4.5 Z M 3.953125 -4.5 "/>
</symbol>
<symbol overflow="visible" id="glyph0-38">
<path style="stroke:none;" d="M 1.328125 -1.46875 C 1.046875 -0.84375 0.875 -0.5 0.140625 -0.4375 C 0.0625 -0.34375 0.0625 -0.0625 0.140625 0.03125 C 0.390625 0.015625 0.703125 0 1.0625 0 C 1.4375 0 1.96875 0.015625 2.40625 0.03125 C 2.484375 -0.0625 2.484375 -0.34375 2.40625 -0.4375 C 1.640625 -0.484375 1.546875 -0.671875 1.875 -1.375 L 2.140625 -1.96875 C 2.1875 -2.0625 2.21875 -2.125 2.4375 -2.125 L 5.046875 -2.125 L 5.34375 -1.375 C 5.65625 -0.609375 5.671875 -0.5 4.90625 -0.4375 C 4.828125 -0.34375 4.828125 -0.0625 4.90625 0.03125 C 5.40625 0.015625 5.9375 0 6.390625 0 C 6.8125 0 7.21875 0.015625 7.625 0.03125 C 7.703125 -0.0625 7.703125 -0.34375 7.625 -0.4375 C 6.875 -0.53125 6.84375 -0.640625 6.5 -1.453125 L 4.359375 -6.71875 C 4.140625 -6.59375 3.875 -6.484375 3.59375 -6.453125 Z M 4.890625 -2.59375 L 2.78125 -2.59375 C 2.5 -2.59375 2.53125 -2.796875 2.640625 -3.0625 L 3.671875 -5.40625 L 3.765625 -5.421875 Z M 4.890625 -2.59375 "/>
</symbol>
<symbol overflow="visible" id="glyph0-39">
<path style="stroke:none;" d="M 3.828125 -6.09375 C 5.0625 -6.09375 6.140625 -4.953125 6.140625 -3.078125 C 6.140625 -1.375 5.28125 -0.328125 4.046875 -0.328125 C 2.6875 -0.328125 1.734375 -1.546875 1.734375 -3.265625 C 1.734375 -5.15625 2.78125 -6.09375 3.828125 -6.09375 Z M 7.359375 -3.28125 C 7.359375 -5.265625 5.765625 -6.5625 3.953125 -6.5625 C 2.015625 -6.5625 0.515625 -5.15625 0.515625 -3.09375 C 0.515625 -1.203125 1.953125 0.140625 3.84375 0.140625 C 6.125 0.140625 7.359375 -1.46875 7.359375 -3.28125 Z M 7.359375 -3.28125 "/>
</symbol>
<symbol overflow="visible" id="glyph0-40">
<path style="stroke:none;" d="M 9.09375 -5.03125 L 7.703125 -1.625 C 7.65625 -1.515625 7.625 -1.53125 7.59375 -1.625 L 6.203125 -5.140625 C 5.953125 -5.796875 5.984375 -5.9375 6.71875 -5.984375 C 6.8125 -6.0625 6.8125 -6.359375 6.71875 -6.453125 C 6.28125 -6.4375 5.8125 -6.421875 5.328125 -6.421875 C 4.84375 -6.421875 4.453125 -6.4375 4.109375 -6.453125 C 4.015625 -6.359375 4.015625 -6.0625 4.109375 -5.984375 C 4.765625 -5.9375 4.859375 -5.75 5.28125 -4.703125 C 5.296875 -4.609375 5.28125 -4.4375 5.09375 -3.984375 L 4.015625 -1.578125 C 3.984375 -1.484375 3.921875 -1.484375 3.890625 -1.609375 L 2.546875 -5.046875 C 2.28125 -5.71875 2.28125 -5.9375 2.953125 -5.984375 C 3.046875 -6.0625 3.046875 -6.359375 2.953125 -6.453125 C 2.53125 -6.4375 2.0625 -6.421875 1.5625 -6.421875 C 1.03125 -6.421875 0.640625 -6.4375 0.28125 -6.453125 C 0.203125 -6.359375 0.203125 -6.0625 0.28125 -5.984375 C 0.9375 -5.921875 1 -5.78125 1.3125 -5.046875 L 3.203125 -0.515625 C 3.421875 -0.015625 3.53125 0.171875 3.65625 0.171875 C 3.8125 0.171875 3.890625 0.0625 4.140625 -0.53125 L 5.421875 -3.546875 C 5.53125 -3.765625 5.578125 -3.765625 5.65625 -3.59375 L 6.921875 -0.53125 C 7.09375 -0.109375 7.234375 0.171875 7.40625 0.171875 C 7.5625 0.171875 7.703125 -0.109375 7.875 -0.53125 L 9.671875 -4.984375 C 9.890625 -5.546875 10.109375 -5.9375 10.828125 -5.984375 C 10.90625 -6.0625 10.90625 -6.359375 10.828125 -6.453125 C 10.53125 -6.4375 10.234375 -6.421875 9.71875 -6.421875 C 9.1875 -6.421875 8.796875 -6.4375 8.40625 -6.453125 C 8.3125 -6.359375 8.3125 -6.0625 8.40625 -5.984375 C 9.4375 -5.9375 9.296875 -5.515625 9.09375 -5.03125 Z M 9.09375 -5.03125 "/>
</symbol>
<symbol overflow="visible" id="glyph0-41">
<path style="stroke:none;" d="M 2.625 -1.0625 L 2.625 -5.546875 C 2.625 -5.90625 2.96875 -5.984375 3.515625 -5.984375 C 5.859375 -5.984375 6.1875 -4.359375 6.1875 -2.90625 C 6.1875 -0.953125 5.3125 -0.4375 3.78125 -0.4375 C 2.71875 -0.4375 2.625 -0.671875 2.625 -1.0625 Z M 0.515625 -6.453125 C 0.4375 -6.359375 0.4375 -6.0625 0.515625 -5.984375 C 1.375 -5.9375 1.515625 -5.875 1.515625 -4.71875 L 1.515625 -1.703125 C 1.515625 -0.546875 1.375 -0.5 0.515625 -0.4375 C 0.4375 -0.34375 0.4375 -0.0625 0.515625 0.03125 C 1.046875 0.015625 1.671875 0 2.078125 0 C 2.4375 0 3 0.03125 4.109375 0.03125 C 5.671875 0.03125 7.390625 -0.703125 7.390625 -3.140625 C 7.390625 -5 6.25 -6.453125 3.921875 -6.453125 C 2.96875 -6.453125 2.46875 -6.421875 2.0625 -6.421875 C 1.6875 -6.421875 1.0625 -6.4375 0.515625 -6.453125 Z M 0.515625 -6.453125 "/>
</symbol>
<symbol overflow="visible" id="glyph0-42">
<path style="stroke:none;" d="M 2.640625 -5.359375 C 2.640625 -5.796875 2.796875 -5.984375 3.46875 -5.984375 C 4.296875 -5.984375 4.75 -5.546875 4.75 -4.578125 C 4.75 -3.578125 4.375 -3.03125 3.546875 -3.03125 C 3.265625 -3.03125 2.921875 -3.0625 2.640625 -3.1875 Z M 2.640625 -1.703125 L 2.640625 -2.734375 C 2.890625 -2.625 3.171875 -2.5625 3.515625 -2.5625 C 5.390625 -2.5625 5.953125 -3.90625 5.953125 -4.75 C 5.953125 -5.46875 5.546875 -6.453125 3.5625 -6.453125 C 3.046875 -6.453125 2.453125 -6.421875 2.078125 -6.421875 C 1.671875 -6.421875 1.09375 -6.4375 0.53125 -6.453125 C 0.453125 -6.359375 0.453125 -6.0625 0.53125 -5.984375 C 1.375 -5.9375 1.53125 -5.875 1.53125 -4.71875 L 1.53125 -1.703125 C 1.53125 -0.546875 1.375 -0.5 0.53125 -0.4375 C 0.453125 -0.34375 0.453125 -0.0625 0.53125 0.03125 C 0.984375 0.015625 1.484375 0 2.09375 0 C 2.6875 0 3.1875 0.015625 3.640625 0.03125 C 3.71875 -0.0625 3.71875 -0.34375 3.640625 -0.4375 C 2.796875 -0.484375 2.640625 -0.546875 2.640625 -1.703125 Z M 2.640625 -1.703125 "/>
</symbol>
<symbol overflow="visible" id="glyph0-43">
<path style="stroke:none;" d="M 0.609375 -3.515625 C 0.609375 -2.890625 0.671875 0.328125 3.578125 2.84375 C 3.71875 2.8125 3.828125 2.71875 3.859375 2.609375 C 3.40625 2.078125 1.765625 0.15625 1.765625 -3.515625 C 1.765625 -7.1875 3.421875 -9.109375 3.859375 -9.609375 C 3.828125 -9.75 3.71875 -9.84375 3.578125 -9.859375 C 1.90625 -8.4375 0.609375 -6.109375 0.609375 -3.515625 Z M 0.609375 -3.515625 "/>
</symbol>
<symbol overflow="visible" id="glyph0-44">
<path style="stroke:none;" d="M 3.546875 -3.515625 C 3.546875 -4.140625 3.484375 -7.375 0.59375 -9.875 C 0.453125 -9.84375 0.328125 -9.75 0.296875 -9.640625 C 0.75 -9.109375 2.390625 -7.1875 2.390625 -3.515625 C 2.390625 0.15625 0.734375 2.078125 0.296875 2.578125 C 0.328125 2.71875 0.4375 2.8125 0.59375 2.828125 C 2.25 1.40625 3.546875 -0.921875 3.546875 -3.515625 Z M 3.546875 -3.515625 "/>
</symbol>
<symbol overflow="visible" id="glyph0-45">
<path style="stroke:none;" d="M 3.78125 -3.109375 C 3.96875 -3.109375 4.15625 -3.5 4.15625 -3.671875 C 4.15625 -3.8125 4.109375 -3.953125 3.96875 -3.953125 L 0.90625 -3.953125 C 0.734375 -3.953125 0.5625 -3.625 0.5625 -3.375 C 0.5625 -3.234375 0.640625 -3.109375 0.765625 -3.109375 Z M 3.78125 -3.109375 "/>
</symbol>
<symbol overflow="visible" id="glyph1-0">
<path style="stroke:none;" d="M 0.484375 -5.890625 L 2.15625 -3.40625 L 0.484375 -0.921875 Z M 0.78125 -0.484375 L 2.4375 -2.96875 L 4.109375 -0.484375 Z M 2.734375 -3.40625 L 4.390625 -5.890625 L 4.390625 -0.921875 Z M 2.4375 -3.84375 L 0.78125 -6.3125 L 4.109375 -6.3125 Z M 0 0 L 4.890625 0 L 4.890625 -6.8125 L 0 -6.8125 Z M 0 0 "/>
</symbol>
<symbol overflow="visible" id="glyph1-1">
<path style="stroke:none;" d="M 2.8125 -1.1875 L 2.8125 -4.578125 C 2.8125 -5.171875 2.828125 -5.765625 2.84375 -5.890625 C 2.84375 -5.9375 2.828125 -5.9375 2.78125 -5.9375 C 2.25 -5.609375 1.734375 -5.359375 0.875 -4.96875 C 0.890625 -4.859375 0.921875 -4.75 1.015625 -4.703125 C 1.46875 -4.890625 1.6875 -4.9375 1.859375 -4.9375 C 2.03125 -4.9375 2.0625 -4.703125 2.0625 -4.375 L 2.0625 -1.1875 C 2.0625 -0.375 1.796875 -0.328125 1.109375 -0.296875 C 1.0625 -0.25 1.0625 -0.046875 1.109375 0.015625 C 1.59375 0.015625 1.9375 0 2.46875 0 C 2.9375 0 3.171875 0.015625 3.65625 0.015625 C 3.71875 -0.046875 3.71875 -0.25 3.65625 -0.296875 C 2.984375 -0.328125 2.8125 -0.375 2.8125 -1.1875 Z M 2.8125 -1.1875 "/>
</symbol>
<symbol overflow="visible" id="glyph1-2">
<path style="stroke:none;" d="M 0.84375 -1.1875 C 0.84375 -0.375 0.734375 -0.34375 0.1875 -0.296875 C 0.125 -0.25 0.125 -0.046875 0.1875 0.015625 C 0.515625 0.015625 0.84375 0 1.234375 0 C 1.578125 0 1.890625 0.015625 2.125 0.015625 C 2.171875 -0.046875 2.171875 -0.25 2.125 -0.296875 C 1.71875 -0.34375 1.609375 -0.375 1.609375 -1.1875 L 1.609375 -2.046875 C 1.796875 -2.03125 1.9375 -2.015625 2.03125 -2 C 2.140625 -1.921875 2.234375 -1.828125 2.34375 -1.671875 L 3.0625 -0.71875 C 3.34375 -0.328125 3.453125 -0.140625 3.46875 -0.03125 C 3.46875 0 3.484375 0.015625 3.5 0.015625 C 3.703125 0.015625 3.921875 0 4.109375 0 C 4.421875 0 4.71875 0.015625 4.90625 0.015625 C 4.96875 -0.046875 4.96875 -0.25 4.90625 -0.296875 C 4.578125 -0.34375 4.34375 -0.375 4.078125 -0.71875 L 2.78125 -2.328125 C 2.75 -2.390625 2.71875 -2.421875 2.71875 -2.46875 C 2.71875 -2.515625 2.71875 -2.53125 2.75 -2.5625 L 3.609375 -3.453125 C 3.90625 -3.765625 4.25 -3.84375 4.640625 -3.890625 C 4.703125 -3.953125 4.703125 -4.15625 4.640625 -4.203125 C 4.421875 -4.203125 4.140625 -4.1875 3.796875 -4.1875 C 3.421875 -4.1875 3.0625 -4.203125 2.828125 -4.203125 C 2.78125 -4.15625 2.78125 -3.953125 2.828125 -3.890625 C 3.375 -3.84375 3.140625 -3.5 3.0625 -3.390625 C 2.828125 -3.109375 2.53125 -2.78125 2.28125 -2.59375 C 2.0625 -2.4375 1.796875 -2.3125 1.609375 -2.28125 L 1.609375 -5.6875 C 1.609375 -6.328125 1.65625 -6.71875 1.65625 -6.71875 C 1.65625 -6.78125 1.609375 -6.8125 1.53125 -6.8125 C 1.28125 -6.71875 0.546875 -6.578125 0.15625 -6.546875 C 0.140625 -6.46875 0.15625 -6.3125 0.21875 -6.265625 C 0.71875 -6.234375 0.84375 -6.28125 0.84375 -5.453125 Z M 0.84375 -1.1875 "/>
</symbol>
<symbol overflow="visible" id="glyph1-3">
<path style="stroke:none;" d="M 2.265625 -5.609375 C 2.4375 -5.609375 2.59375 -5.5625 2.703125 -5.453125 C 3.015625 -5.203125 3.265625 -4.453125 3.265625 -3.140625 C 3.265625 -2.25 3.25 -1.625 3.109375 -1.140625 C 2.890625 -0.328125 2.40625 -0.25 2.234375 -0.25 C 1.328125 -0.25 1.234375 -1.921875 1.234375 -2.765625 C 1.234375 -5.171875 1.828125 -5.609375 2.265625 -5.609375 Z M 2.234375 0.09375 C 2.984375 0.09375 4.125 -0.671875 4.125 -2.953125 C 4.125 -3.921875 3.890625 -4.75 3.453125 -5.328125 C 3.203125 -5.671875 2.796875 -5.953125 2.265625 -5.953125 C 1.296875 -5.953125 0.375 -4.8125 0.375 -2.875 C 0.375 -1.828125 0.703125 -0.84375 1.234375 -0.3125 C 1.515625 -0.046875 1.84375 0.09375 2.234375 0.09375 Z M 2.234375 0.09375 "/>
</symbol>
<symbol overflow="visible" id="glyph2-0">
<path style="stroke:none;" d=""/>
</symbol>
<symbol overflow="visible" id="glyph2-1">
<path style="stroke:none;" d="M -6.1875 7.53125 C -6.1875 7.984375 -6.140625 8.015625 -5.6875 8.015625 L -1.90625 8.015625 C -2.796875 8.8125 -3.15625 9.671875 -3.328125 10.078125 L -2.890625 10.078125 C -2.484375 8.984375 -1.6875 8.21875 -0.796875 7.75 C -1.65625 7.3125 -2.484375 6.5 -2.890625 5.421875 L -3.328125 5.421875 C -2.9375 6.453125 -2.234375 7.1875 -1.90625 7.46875 L -5.625 7.46875 L -5.625 0.484375 C -5.625 0.234375 -5.625 0 -5.90625 0 C -6.1875 0 -6.1875 0.25 -6.1875 0.484375 Z M -6.1875 7.53125 "/>
</symbol>
<symbol overflow="visible" id="glyph3-0">
<path style="stroke:none;" d=""/>
</symbol>
<symbol overflow="visible" id="glyph3-1">
<path style="stroke:none;" d="M 4.03125 -9.59375 C 4.046875 -9.65625 4.078125 -9.734375 4.078125 -9.8125 C 4.078125 -9.953125 3.9375 -9.953125 3.90625 -9.953125 C 3.890625 -9.953125 3.375 -9.90625 3.109375 -9.890625 C 2.875 -9.875 2.65625 -9.84375 2.390625 -9.828125 C 2.046875 -9.796875 1.953125 -9.78125 1.953125 -9.53125 C 1.953125 -9.375 2.09375 -9.375 2.234375 -9.375 C 2.96875 -9.375 2.96875 -9.25 2.96875 -9.109375 C 2.96875 -9.046875 2.96875 -9.015625 2.890625 -8.765625 L 0.84375 -0.5625 C 0.78125 -0.34375 0.78125 -0.3125 0.78125 -0.234375 C 0.78125 0.09375 1.03125 0.140625 1.171875 0.140625 C 1.578125 0.140625 1.65625 -0.171875 1.78125 -0.609375 L 2.453125 -3.296875 C 3.484375 -3.1875 4.109375 -2.75 4.109375 -2.0625 C 4.109375 -1.984375 4.109375 -1.921875 4.0625 -1.703125 C 4 -1.484375 4 -1.3125 4 -1.25 C 4 -0.421875 4.546875 0.140625 5.28125 0.140625 C 5.9375 0.140625 6.28125 -0.453125 6.390625 -0.65625 C 6.703125 -1.1875 6.890625 -2 6.890625 -2.046875 C 6.890625 -2.125 6.828125 -2.1875 6.734375 -2.1875 C 6.609375 -2.1875 6.59375 -2.125 6.546875 -1.890625 C 6.34375 -1.140625 6.03125 -0.140625 5.3125 -0.140625 C 5.015625 -0.140625 4.828125 -0.28125 4.828125 -0.828125 C 4.828125 -1.109375 4.890625 -1.421875 4.953125 -1.640625 C 5 -1.890625 5 -1.90625 5 -2.078125 C 5 -2.921875 4.25 -3.40625 2.921875 -3.578125 C 3.4375 -3.890625 3.953125 -4.453125 4.15625 -4.65625 C 4.984375 -5.578125 5.53125 -6.03125 6.203125 -6.03125 C 6.53125 -6.03125 6.609375 -5.953125 6.71875 -5.859375 C 6.1875 -5.8125 5.984375 -5.4375 5.984375 -5.15625 C 5.984375 -4.8125 6.25 -4.6875 6.453125 -4.6875 C 6.84375 -4.6875 7.1875 -5.015625 7.1875 -5.484375 C 7.1875 -5.890625 6.859375 -6.328125 6.203125 -6.328125 C 5.421875 -6.328125 4.78125 -5.765625 3.765625 -4.625 C 3.609375 -4.453125 3.078125 -3.90625 2.546875 -3.703125 Z M 4.03125 -9.59375 "/>
</symbol>
<symbol overflow="visible" id="glyph4-0">
<path style="stroke:none;" d=""/>
</symbol>
<symbol overflow="visible" id="glyph4-1">
<path style="stroke:none;" d="M 9.6875 -4.640625 C 9.890625 -4.640625 10.140625 -4.640625 10.140625 -4.90625 C 10.140625 -5.171875 9.890625 -5.171875 9.6875 -5.171875 L 1.234375 -5.171875 C 1.03125 -5.171875 0.78125 -5.171875 0.78125 -4.921875 C 0.78125 -4.640625 1.015625 -4.640625 1.234375 -4.640625 Z M 9.6875 -1.984375 C 9.890625 -1.984375 10.140625 -1.984375 10.140625 -2.234375 C 10.140625 -2.515625 9.890625 -2.515625 9.6875 -2.515625 L 1.234375 -2.515625 C 1.03125 -2.515625 0.78125 -2.515625 0.78125 -2.25 C 0.78125 -1.984375 1.015625 -1.984375 1.234375 -1.984375 Z M 9.6875 -1.984375 "/>
</symbol>
<symbol overflow="visible" id="glyph4-2">
<path style="stroke:none;" d="M 1.84375 -8.21875 C 2.453125 -8.015625 2.953125 -8 3.109375 -8 C 4.734375 -8 5.765625 -9.1875 5.765625 -9.390625 C 5.765625 -9.453125 5.734375 -9.53125 5.65625 -9.53125 C 5.625 -9.53125 5.59375 -9.53125 5.46875 -9.46875 C 4.65625 -9.125 3.96875 -9.078125 3.59375 -9.078125 C 2.65625 -9.078125 1.984375 -9.359375 1.703125 -9.484375 C 1.609375 -9.53125 1.578125 -9.53125 1.5625 -9.53125 C 1.453125 -9.53125 1.453125 -9.4375 1.453125 -9.203125 L 1.453125 -4.953125 C 1.453125 -4.6875 1.453125 -4.609375 1.625 -4.609375 C 1.6875 -4.609375 1.703125 -4.625 1.84375 -4.796875 C 2.25 -5.375 2.921875 -5.71875 3.640625 -5.71875 C 4.40625 -5.71875 4.78125 -5.015625 4.890625 -4.78125 C 5.140625 -4.21875 5.15625 -3.515625 5.15625 -2.96875 C 5.15625 -2.421875 5.15625 -1.609375 4.75 -0.96875 C 4.4375 -0.4375 3.875 -0.09375 3.234375 -0.09375 C 2.296875 -0.09375 1.359375 -0.734375 1.109375 -1.78125 C 1.171875 -1.75 1.265625 -1.734375 1.328125 -1.734375 C 1.578125 -1.734375 1.96875 -1.875 1.96875 -2.359375 C 1.96875 -2.765625 1.6875 -3 1.328125 -3 C 1.078125 -3 0.703125 -2.875 0.703125 -2.3125 C 0.703125 -1.09375 1.671875 0.296875 3.265625 0.296875 C 4.890625 0.296875 6.3125 -1.0625 6.3125 -2.890625 C 6.3125 -4.59375 5.15625 -6.015625 3.65625 -6.015625 C 2.84375 -6.015625 2.203125 -5.65625 1.84375 -5.25 Z M 1.84375 -8.21875 "/>
</symbol>
</g>
<clipPath id="clip1">
  <path d="M 0 0 L 533.105469 0 L 533.105469 1 L 0 1 Z M 0 0 "/>
</clipPath>
<clipPath id="clip2">
  <path d="M 0 43 L 533.105469 43 L 533.105469 45 L 0 45 Z M 0 43 "/>
</clipPath>
<clipPath id="clip3">
  <path d="M 475 97 L 533.105469 97 L 533.105469 114 L 475 114 Z M 475 97 "/>
</clipPath>
<clipPath id="clip4">
  <path d="M 0 115 L 533.105469 115 L 533.105469 117 L 0 117 Z M 0 115 "/>
</clipPath>
<clipPath id="clip5">
  <path d="M 0 137 L 533.105469 137 L 533.105469 138 L 0 138 Z M 0 137 "/>
</clipPath>
<clipPath id="clip6">
  <path d="M 475 190 L 533.105469 190 L 533.105469 208 L 475 208 Z M 475 190 "/>
</clipPath>
<clipPath id="clip7">
  <path d="M 0 209 L 533.105469 209 L 533.105469 210.015625 L 0 210.015625 Z M 0 209 "/>
</clipPath>
</defs>
<g id="surface1">
<g clip-path="url(#clip1)" clip-rule="nonzero">
<path style="fill:none;stroke-width:0.797;stroke-linecap:butt;stroke-linejoin:miter;stroke:rgb(0%,0%,0%);stroke-opacity:1;stroke-miterlimit:10;" d="M 0 0.0005625 L 533.105469 0.0005625 " transform="matrix(1,0,0,-1,0,0.399)"/>
</g>
<g style="fill:rgb(0%,0%,0%);fill-opacity:1;">
  <use xlink:href="#glyph0-1" x="163.883" y="15.301"/>
  <use xlink:href="#glyph0-2" x="175.58512" y="15.301"/>
  <use xlink:href="#glyph0-1" x="182.349755" y="15.301"/>
  <use xlink:href="#glyph0-3" x="194.051875" y="15.301"/>
  <use xlink:href="#glyph0-4" x="198.766198" y="15.301"/>
  <use xlink:href="#glyph0-5" x="206.311903" y="15.301"/>
  <use xlink:href="#glyph0-6" x="212.058356" y="15.301"/>
  <use xlink:href="#glyph0-3" x="219.604062" y="15.301"/>
  <use xlink:href="#glyph0-7" x="224.318384" y="15.301"/>
  <use xlink:href="#glyph0-8" x="234.095722" y="15.301"/>
  <use xlink:href="#glyph0-9" x="240.748775" y="15.301"/>
</g>
<g style="fill:rgb(0%,0%,0%);fill-opacity:1;">
  <use xlink:href="#glyph0-10" x="275.353018" y="15.301"/>
  <use xlink:href="#glyph0-11" x="283.679795" y="15.301"/>
  <use xlink:href="#glyph0-12" x="291.867095" y="15.301"/>
  <use xlink:href="#glyph0-13" x="299.635964" y="15.301"/>
  <use xlink:href="#glyph0-3" x="308.646178" y="15.301"/>
  <use xlink:href="#glyph0-7" x="313.360501" y="15.301"/>
  <use xlink:href="#glyph0-14" x="323.137839" y="15.301"/>
  <use xlink:href="#glyph0-3" x="330.502224" y="15.301"/>
  <use xlink:href="#glyph0-4" x="335.216547" y="15.301"/>
  <use xlink:href="#glyph0-5" x="342.762252" y="15.301"/>
  <use xlink:href="#glyph0-6" x="348.508705" y="15.301"/>
  <use xlink:href="#glyph0-15" x="356.054411" y="15.301"/>
  <use xlink:href="#glyph0-16" x="359.792394" y="15.301"/>
  <use xlink:href="#glyph0-17" x="366.278075" y="15.301"/>
</g>
<g style="fill:rgb(0%,0%,0%);fill-opacity:1;">
  <use xlink:href="#glyph0-10" x="414.718437" y="15.301"/>
  <use xlink:href="#glyph0-11" x="423.045214" y="15.301"/>
  <use xlink:href="#glyph0-12" x="431.232514" y="15.301"/>
  <use xlink:href="#glyph0-13" x="439.001382" y="15.301"/>
  <use xlink:href="#glyph0-3" x="448.011597" y="15.301"/>
  <use xlink:href="#glyph0-7" x="452.725919" y="15.301"/>
  <use xlink:href="#glyph0-14" x="462.503257" y="15.301"/>
  <use xlink:href="#glyph0-3" x="469.867643" y="15.301"/>
  <use xlink:href="#glyph0-4" x="474.581965" y="15.301"/>
  <use xlink:href="#glyph0-5" x="482.127671" y="15.301"/>
  <use xlink:href="#glyph0-6" x="487.874123" y="15.301"/>
  <use xlink:href="#glyph0-15" x="495.419829" y="15.301"/>
  <use xlink:href="#glyph0-18" x="499.157813" y="15.301"/>
  <use xlink:href="#glyph0-19" x="505.643493" y="15.301"/>
</g>
<path style="fill:none;stroke-width:0.299;stroke-linecap:butt;stroke-linejoin:miter;stroke:rgb(0%,0%,0%);stroke-opacity:1;stroke-miterlimit:10;" d="M -0.00028125 0.0005 L 86.503625 0.0005 " transform="matrix(1,0,0,-1,162.887,22.188)"/>
<path style="fill:none;stroke-width:0.299;stroke-linecap:butt;stroke-linejoin:miter;stroke:rgb(0%,0%,0%);stroke-opacity:1;stroke-miterlimit:10;" d="M 0.0005625 0.0005 L 129.406813 0.0005 " transform="matrix(1,0,0,-1,259.351,22.188)"/>
<path style="fill:none;stroke-width:0.299;stroke-linecap:butt;stroke-linejoin:miter;stroke:rgb(0%,0%,0%);stroke-opacity:1;stroke-miterlimit:10;" d="M -0.00025 0.0005 L 129.406 0.0005 " transform="matrix(1,0,0,-1,398.719,22.188)"/>
<g style="fill:rgb(0%,0%,0%);fill-opacity:1;">
  <use xlink:href="#glyph0-20" x="133.971" y="36.841"/>
  <use xlink:href="#glyph0-21" x="144.989683" y="36.841"/>
</g>
<g style="fill:rgb(0%,0%,0%);fill-opacity:1;">
  <use xlink:href="#glyph0-22" x="164.753574" y="36.841"/>
  <use xlink:href="#glyph0-4" x="174.447225" y="36.841"/>
</g>
<g style="fill:rgb(0%,0%,0%);fill-opacity:1;">
  <use xlink:href="#glyph1-1" x="181.99" y="38.993"/>
  <use xlink:href="#glyph1-2" x="186.529934" y="38.993"/>
</g>
<g style="fill:rgb(0%,0%,0%);fill-opacity:1;">
  <use xlink:href="#glyph0-11" x="213.645" y="36.841"/>
  <use xlink:href="#glyph0-11" x="221.8323" y="36.841"/>
</g>
<g style="fill:rgb(0%,0%,0%);fill-opacity:1;">
  <use xlink:href="#glyph1-1" x="230.019" y="38.993"/>
  <use xlink:href="#glyph1-3" x="234.558934" y="38.993"/>
</g>
<g style="fill:rgb(0%,0%,0%);fill-opacity:1;">
  <use xlink:href="#glyph0-22" x="261.215" y="36.841"/>
  <use xlink:href="#glyph0-4" x="270.908652" y="36.841"/>
</g>
<g style="fill:rgb(0%,0%,0%);fill-opacity:1;">
  <use xlink:href="#glyph1-1" x="278.454" y="38.993"/>
  <use xlink:href="#glyph1-2" x="282.993935" y="38.993"/>
</g>
<g style="fill:rgb(0%,0%,0%);fill-opacity:1;">
  <use xlink:href="#glyph0-11" x="302.843" y="36.841"/>
  <use xlink:href="#glyph0-11" x="311.0303" y="36.841"/>
</g>
<g style="fill:rgb(0%,0%,0%);fill-opacity:1;">
  <use xlink:href="#glyph1-1" x="319.218" y="38.993"/>
  <use xlink:href="#glyph1-3" x="323.757935" y="38.993"/>
</g>
<g style="fill:rgb(0%,0%,0%);fill-opacity:1;">
  <use xlink:href="#glyph0-23" x="342.28" y="36.841"/>
  <use xlink:href="#glyph0-7" x="349.839653" y="36.841"/>
  <use xlink:href="#glyph0-13" x="359.616991" y="36.841"/>
  <use xlink:href="#glyph0-24" x="368.627205" y="36.841"/>
</g>
<g style="fill:rgb(0%,0%,0%);fill-opacity:1;">
  <use xlink:href="#glyph1-1" x="378.182" y="38.993"/>
  <use xlink:href="#glyph1-3" x="382.721935" y="38.993"/>
</g>
<g style="fill:rgb(0%,0%,0%);fill-opacity:1;">
  <use xlink:href="#glyph0-22" x="400.582" y="36.841"/>
  <use xlink:href="#glyph0-4" x="410.275651" y="36.841"/>
</g>
<g style="fill:rgb(0%,0%,0%);fill-opacity:1;">
  <use xlink:href="#glyph1-1" x="417.822" y="38.993"/>
  <use xlink:href="#glyph1-2" x="422.361935" y="38.993"/>
</g>
<g style="fill:rgb(0%,0%,0%);fill-opacity:1;">
  <use xlink:href="#glyph0-11" x="442.21" y="36.841"/>
  <use xlink:href="#glyph0-11" x="450.3973" y="36.841"/>
</g>
<g style="fill:rgb(0%,0%,0%);fill-opacity:1;">
  <use xlink:href="#glyph1-1" x="458.585" y="38.993"/>
  <use xlink:href="#glyph1-3" x="463.124934" y="38.993"/>
</g>
<g style="fill:rgb(0%,0%,0%);fill-opacity:1;">
  <use xlink:href="#glyph0-23" x="481.647" y="36.841"/>
  <use xlink:href="#glyph0-7" x="489.206653" y="36.841"/>
  <use xlink:href="#glyph0-13" x="498.983991" y="36.841"/>
  <use xlink:href="#glyph0-24" x="507.994205" y="36.841"/>
</g>
<g style="fill:rgb(0%,0%,0%);fill-opacity:1;">
  <use xlink:href="#glyph1-1" x="517.549" y="38.993"/>
  <use xlink:href="#glyph1-3" x="522.088934" y="38.993"/>
</g>
<g clip-path="url(#clip2)" clip-rule="nonzero">
<path style="fill:none;stroke-width:0.498;stroke-linecap:butt;stroke-linejoin:miter;stroke:rgb(0%,0%,0%);stroke-opacity:1;stroke-miterlimit:10;" d="M 0 -0.001125 L 533.105469 -0.001125 " transform="matrix(1,0,0,-1,0,43.827)"/>
</g>
<g style="fill:rgb(0%,0%,0%);fill-opacity:1;">
  <use xlink:href="#glyph0-25" x="5.978" y="58.581"/>
  <use xlink:href="#glyph0-1" x="14.179248" y="58.581"/>
  <use xlink:href="#glyph0-18" x="25.881368" y="58.581"/>
  <use xlink:href="#glyph0-26" x="32.367048" y="58.581"/>
</g>
<g style="fill:rgb(0%,0%,0%);fill-opacity:1;">
  <use xlink:href="#glyph0-16" x="135.714" y="58.581"/>
  <use xlink:href="#glyph0-27" x="142.19968" y="58.581"/>
</g>
<g style="fill:rgb(0%,0%,0%);fill-opacity:1;">
  <use xlink:href="#glyph0-19" x="163.888354" y="58.581"/>
  <use xlink:href="#glyph0-28" x="170.374034" y="58.581"/>
  <use xlink:href="#glyph0-16" x="173.442528" y="58.581"/>
  <use xlink:href="#glyph0-17" x="179.928209" y="58.581"/>
  <use xlink:href="#glyph0-29" x="186.413889" y="58.581"/>
</g>
<g style="fill:rgb(0%,0%,0%);fill-opacity:1;">
  <use xlink:href="#glyph0-19" x="212.119501" y="58.581"/>
  <use xlink:href="#glyph0-28" x="218.605181" y="58.581"/>
  <use xlink:href="#glyph0-16" x="221.673675" y="58.581"/>
  <use xlink:href="#glyph0-30" x="228.159356" y="58.581"/>
  <use xlink:href="#glyph0-31" x="234.645036" y="58.581"/>
</g>
<g style="fill:rgb(0%,0%,0%);fill-opacity:1;">
  <use xlink:href="#glyph0-19" x="260.350647" y="58.581"/>
  <use xlink:href="#glyph0-28" x="266.836328" y="58.581"/>
  <use xlink:href="#glyph0-32" x="269.904822" y="58.581"/>
  <use xlink:href="#glyph0-19" x="276.390502" y="58.581"/>
  <use xlink:href="#glyph0-16" x="282.876183" y="58.581"/>
</g>
<g style="fill:rgb(0%,0%,0%);fill-opacity:1;">
  <use xlink:href="#glyph0-19" x="301.315042" y="58.581"/>
  <use xlink:href="#glyph0-28" x="307.800723" y="58.581"/>
  <use xlink:href="#glyph0-31" x="310.869217" y="58.581"/>
  <use xlink:href="#glyph0-19" x="317.354897" y="58.581"/>
  <use xlink:href="#glyph0-18" x="323.840578" y="58.581"/>
</g>
<g style="fill:rgb(0%,0%,0%);fill-opacity:1;">
  <use xlink:href="#glyph0-19" x="350.50858" y="58.581"/>
  <use xlink:href="#glyph0-28" x="356.99426" y="58.581"/>
  <use xlink:href="#glyph0-26" x="360.062754" y="58.581"/>
  <use xlink:href="#glyph0-19" x="366.548435" y="58.581"/>
  <use xlink:href="#glyph0-29" x="373.034115" y="58.581"/>
</g>
<g style="fill:rgb(0%,0%,0%);fill-opacity:1;">
  <use xlink:href="#glyph0-19" x="399.716066" y="58.581"/>
  <use xlink:href="#glyph0-28" x="406.201746" y="58.581"/>
  <use xlink:href="#glyph0-18" x="409.27024" y="58.581"/>
  <use xlink:href="#glyph0-30" x="415.755921" y="58.581"/>
  <use xlink:href="#glyph0-30" x="422.241601" y="58.581"/>
</g>
<g style="fill:rgb(0%,0%,0%);fill-opacity:1;">
  <use xlink:href="#glyph0-19" x="440.68046" y="58.581"/>
  <use xlink:href="#glyph0-28" x="447.166141" y="58.581"/>
  <use xlink:href="#glyph0-29" x="450.234635" y="58.581"/>
  <use xlink:href="#glyph0-26" x="456.720315" y="58.581"/>
  <use xlink:href="#glyph0-26" x="463.205996" y="58.581"/>
</g>
<g style="fill:rgb(0%,0%,0%);fill-opacity:1;">
  <use xlink:href="#glyph0-19" x="489.887946" y="58.581"/>
  <use xlink:href="#glyph0-28" x="496.373627" y="58.581"/>
  <use xlink:href="#glyph0-27" x="499.442121" y="58.581"/>
  <use xlink:href="#glyph0-30" x="505.927801" y="58.581"/>
  <use xlink:href="#glyph0-30" x="512.413482" y="58.581"/>
</g>
<g style="fill:rgb(0%,0%,0%);fill-opacity:1;">
  <use xlink:href="#glyph2-1" x="16.438" y="65.663"/>
</g>
<g style="fill:rgb(0%,0%,0%);fill-opacity:1;">
  <use xlink:href="#glyph0-10" x="19.925" y="75.318"/>
  <use xlink:href="#glyph0-33" x="28.251777" y="75.318"/>
  <use xlink:href="#glyph0-14" x="32.394244" y="75.318"/>
  <use xlink:href="#glyph0-7" x="39.758629" y="75.318"/>
  <use xlink:href="#glyph0-12" x="49.535967" y="75.318"/>
  <use xlink:href="#glyph0-9" x="57.304836" y="75.318"/>
  <use xlink:href="#glyph0-18" x="64.948176" y="75.318"/>
</g>
<g style="fill:rgb(0%,0%,0%);fill-opacity:1;">
  <use xlink:href="#glyph0-16" x="132.471" y="75.318"/>
  <use xlink:href="#glyph0-19" x="138.956681" y="75.318"/>
  <use xlink:href="#glyph0-27" x="145.442361" y="75.318"/>
</g>
<g style="fill:rgb(0%,0%,0%);fill-opacity:1;">
  <use xlink:href="#glyph0-19" x="163.88122" y="75.318"/>
  <use xlink:href="#glyph0-28" x="170.366901" y="75.318"/>
  <use xlink:href="#glyph0-32" x="173.435395" y="75.318"/>
  <use xlink:href="#glyph0-32" x="179.921075" y="75.318"/>
  <use xlink:href="#glyph0-30" x="186.406756" y="75.318"/>
</g>
<g style="fill:rgb(0%,0%,0%);fill-opacity:1;">
  <use xlink:href="#glyph0-19" x="212.112367" y="75.318"/>
  <use xlink:href="#glyph0-28" x="218.598048" y="75.318"/>
  <use xlink:href="#glyph0-32" x="221.666541" y="75.318"/>
  <use xlink:href="#glyph0-27" x="228.152222" y="75.318"/>
  <use xlink:href="#glyph0-18" x="234.637902" y="75.318"/>
</g>
<g style="fill:rgb(0%,0%,0%);fill-opacity:1;">
  <use xlink:href="#glyph0-19" x="260.343514" y="75.318"/>
  <use xlink:href="#glyph0-28" x="266.829194" y="75.318"/>
  <use xlink:href="#glyph0-27" x="269.897688" y="75.318"/>
  <use xlink:href="#glyph0-32" x="276.383369" y="75.318"/>
  <use xlink:href="#glyph0-31" x="282.869049" y="75.318"/>
</g>
<g style="fill:rgb(0%,0%,0%);fill-opacity:1;">
  <use xlink:href="#glyph0-19" x="301.307908" y="75.318"/>
  <use xlink:href="#glyph0-28" x="307.793589" y="75.318"/>
  <use xlink:href="#glyph0-30" x="310.862083" y="75.318"/>
  <use xlink:href="#glyph0-32" x="317.347763" y="75.318"/>
  <use xlink:href="#glyph0-29" x="323.833444" y="75.318"/>
</g>
<g style="fill:rgb(0%,0%,0%);fill-opacity:1;">
  <use xlink:href="#glyph0-19" x="350.515394" y="75.318"/>
  <use xlink:href="#glyph0-28" x="357.001075" y="75.318"/>
  <use xlink:href="#glyph0-29" x="360.069569" y="75.318"/>
  <use xlink:href="#glyph0-30" x="366.555249" y="75.318"/>
  <use xlink:href="#glyph0-19" x="373.04093" y="75.318"/>
</g>
<g style="fill:rgb(0%,0%,0%);fill-opacity:1;">
  <use xlink:href="#glyph0-19" x="399.708932" y="75.318"/>
  <use xlink:href="#glyph0-28" x="406.194612" y="75.318"/>
  <use xlink:href="#glyph0-27" x="409.263106" y="75.318"/>
  <use xlink:href="#glyph0-26" x="415.748787" y="75.318"/>
  <use xlink:href="#glyph0-17" x="422.234467" y="75.318"/>
</g>
<g style="fill:rgb(0%,0%,0%);fill-opacity:1;">
  <use xlink:href="#glyph0-19" x="440.687275" y="75.318"/>
  <use xlink:href="#glyph0-28" x="447.172955" y="75.318"/>
  <use xlink:href="#glyph0-30" x="450.241449" y="75.318"/>
  <use xlink:href="#glyph0-29" x="456.72713" y="75.318"/>
  <use xlink:href="#glyph0-30" x="463.21281" y="75.318"/>
</g>
<g style="fill:rgb(0%,0%,0%);fill-opacity:1;">
  <use xlink:href="#glyph0-19" x="489.880812" y="75.318"/>
  <use xlink:href="#glyph0-28" x="496.366493" y="75.318"/>
  <use xlink:href="#glyph0-29" x="499.434987" y="75.318"/>
  <use xlink:href="#glyph0-31" x="505.920667" y="75.318"/>
  <use xlink:href="#glyph0-17" x="512.406348" y="75.318"/>
</g>
<g style="fill:rgb(0%,0%,0%);fill-opacity:1;">
  <use xlink:href="#glyph2-1" x="16.438" y="82.4"/>
</g>
<g style="fill:rgb(0%,0%,0%);fill-opacity:1;">
  <use xlink:href="#glyph0-22" x="19.925" y="92.055"/>
</g>
<g style="fill:rgb(0%,0%,0%);fill-opacity:1;">
  <use xlink:href="#glyph0-6" x="29.311802" y="92.055"/>
  <use xlink:href="#glyph0-6" x="36.857508" y="92.055"/>
  <use xlink:href="#glyph0-34" x="44.403213" y="92.055"/>
  <use xlink:href="#glyph0-8" x="51.530488" y="92.055"/>
  <use xlink:href="#glyph0-35" x="58.183541" y="92.055"/>
  <use xlink:href="#glyph0-34" x="65.561874" y="92.055"/>
  <use xlink:href="#glyph0-36" x="72.689149" y="92.055"/>
  <use xlink:href="#glyph0-8" x="77.026884" y="92.055"/>
  <use xlink:href="#glyph0-9" x="83.679937" y="92.055"/>
  <use xlink:href="#glyph0-8" x="91.323276" y="92.055"/>
  <use xlink:href="#glyph0-34" x="97.976329" y="92.055"/>
</g>
<path style=" stroke:none;fill-rule:nonzero;fill:rgb(52.938843%,80.784607%,67.254639%);fill-opacity:1;" d="M 0 113.8125 L 126.492188 113.8125 L 126.492188 97.074219 L 0 97.074219 Z M 0 113.8125 "/>
<g style="fill:rgb(0%,0%,0%);fill-opacity:1;">
  <use xlink:href="#glyph2-1" x="30.386" y="99.137"/>
</g>
<g style="fill:rgb(0%,0%,0%);fill-opacity:1;">
  <use xlink:href="#glyph0-37" x="33.873" y="108.792"/>
  <use xlink:href="#glyph0-38" x="40.637634" y="108.792"/>
  <use xlink:href="#glyph0-5" x="48.392556" y="108.792"/>
  <use xlink:href="#glyph0-35" x="54.139008" y="108.792"/>
</g>
<g style="fill:rgb(0%,0%,0%);fill-opacity:1;">
  <use xlink:href="#glyph0-3" x="61.168649" y="108.792"/>
  <use xlink:href="#glyph0-37" x="65.882971" y="108.792"/>
  <use xlink:href="#glyph0-39" x="72.647606" y="108.792"/>
  <use xlink:href="#glyph0-34" x="80.500161" y="108.792"/>
  <use xlink:href="#glyph0-40" x="87.627436" y="108.792"/>
</g>
<g style="fill:rgb(0%,0%,0%);fill-opacity:1;">
  <use xlink:href="#glyph0-38" x="97.753466" y="108.792"/>
  <use xlink:href="#glyph0-34" x="105.508387" y="108.792"/>
  <use xlink:href="#glyph0-41" x="112.635662" y="108.792"/>
</g>
<path style=" stroke:none;fill-rule:nonzero;fill:rgb(52.938843%,80.784607%,67.254639%);fill-opacity:1;" d="M 126.492188 113.8125 L 157.90625 113.8125 L 157.90625 97.074219 L 126.492188 97.074219 Z M 126.492188 113.8125 "/>
<g style="fill:rgb(0%,0%,0%);fill-opacity:1;">
  <use xlink:href="#glyph0-16" x="132.471" y="108.792"/>
  <use xlink:href="#glyph0-26" x="138.956681" y="108.792"/>
  <use xlink:href="#glyph0-19" x="145.442361" y="108.792"/>
</g>
<path style=" stroke:none;fill-rule:nonzero;fill:rgb(52.938843%,80.784607%,67.254639%);fill-opacity:1;" d="M 157.90625 113.8125 L 198.871094 113.8125 L 198.871094 97.074219 L 157.90625 97.074219 Z M 157.90625 113.8125 "/>
<g style="fill:rgb(0%,0%,0%);fill-opacity:1;">
  <use xlink:href="#glyph0-19" x="163.883" y="108.792"/>
  <use xlink:href="#glyph0-28" x="170.368681" y="108.792"/>
  <use xlink:href="#glyph0-32" x="173.437174" y="108.792"/>
  <use xlink:href="#glyph0-31" x="179.922855" y="108.792"/>
  <use xlink:href="#glyph0-32" x="186.408535" y="108.792"/>
</g>
<path style=" stroke:none;fill-rule:nonzero;fill:rgb(52.938843%,80.784607%,67.254639%);fill-opacity:1;" d="M 198.871094 113.8125 L 254.371094 113.8125 L 254.371094 97.074219 L 198.871094 97.074219 Z M 198.871094 113.8125 "/>
<g style="fill:rgb(0%,0%,0%);fill-opacity:1;">
  <use xlink:href="#glyph0-19" x="212.115" y="108.792"/>
  <use xlink:href="#glyph0-28" x="218.60068" y="108.792"/>
  <use xlink:href="#glyph0-32" x="221.669174" y="108.792"/>
  <use xlink:href="#glyph0-29" x="228.154855" y="108.792"/>
  <use xlink:href="#glyph0-17" x="234.640535" y="108.792"/>
</g>
<path style=" stroke:none;fill-rule:nonzero;fill:rgb(52.938843%,80.784607%,67.254639%);fill-opacity:1;" d="M 254.371094 113.8125 L 295.335938 113.8125 L 295.335938 97.074219 L 254.371094 97.074219 Z M 254.371094 113.8125 "/>
<g style="fill:rgb(0%,0%,0%);fill-opacity:1;">
  <use xlink:href="#glyph0-19" x="260.348" y="108.792"/>
  <use xlink:href="#glyph0-28" x="266.833681" y="108.792"/>
  <use xlink:href="#glyph0-27" x="269.902175" y="108.792"/>
  <use xlink:href="#glyph0-29" x="276.387855" y="108.792"/>
  <use xlink:href="#glyph0-26" x="282.873536" y="108.792"/>
</g>
<path style=" stroke:none;fill-rule:nonzero;fill:rgb(52.938843%,80.784607%,67.254639%);fill-opacity:1;" d="M 295.335938 113.8125 L 336.300781 113.8125 L 336.300781 97.074219 L 295.335938 97.074219 Z M 295.335938 113.8125 "/>
<g style="fill:rgb(0%,0%,0%);fill-opacity:1;">
  <use xlink:href="#glyph0-19" x="301.314" y="108.792"/>
  <use xlink:href="#glyph0-28" x="307.799681" y="108.792"/>
  <use xlink:href="#glyph0-30" x="310.868175" y="108.792"/>
  <use xlink:href="#glyph0-31" x="317.353855" y="108.792"/>
  <use xlink:href="#glyph0-31" x="323.839536" y="108.792"/>
</g>
<path style=" stroke:none;fill-rule:nonzero;fill:rgb(52.938843%,80.784607%,67.254639%);fill-opacity:1;" d="M 336.304688 113.8125 L 393.738281 113.8125 L 393.738281 97.074219 L 336.304688 97.074219 Z M 336.304688 113.8125 "/>
<g style="fill:rgb(0%,0%,0%);fill-opacity:1;">
  <use xlink:href="#glyph0-19" x="350.514" y="108.792"/>
  <use xlink:href="#glyph0-28" x="356.999681" y="108.792"/>
  <use xlink:href="#glyph0-31" x="360.068174" y="108.792"/>
  <use xlink:href="#glyph0-19" x="366.553855" y="108.792"/>
  <use xlink:href="#glyph0-19" x="373.039535" y="108.792"/>
</g>
<path style=" stroke:none;fill-rule:nonzero;fill:rgb(52.938843%,80.784607%,67.254639%);fill-opacity:1;" d="M 393.738281 113.8125 L 434.703125 113.8125 L 434.703125 97.074219 L 393.738281 97.074219 Z M 393.738281 113.8125 "/>
<g style="fill:rgb(0%,0%,0%);fill-opacity:1;">
  <use xlink:href="#glyph0-19" x="399.715" y="108.792"/>
  <use xlink:href="#glyph0-28" x="406.20068" y="108.792"/>
  <use xlink:href="#glyph0-27" x="409.269174" y="108.792"/>
  <use xlink:href="#glyph0-30" x="415.754855" y="108.792"/>
  <use xlink:href="#glyph0-29" x="422.240535" y="108.792"/>
</g>
<path style=" stroke:none;fill-rule:nonzero;fill:rgb(52.938843%,80.784607%,67.254639%);fill-opacity:1;" d="M 434.703125 113.8125 L 475.671875 113.8125 L 475.671875 97.074219 L 434.703125 97.074219 Z M 434.703125 113.8125 "/>
<g style="fill:rgb(0%,0%,0%);fill-opacity:1;">
  <use xlink:href="#glyph0-19" x="440.681" y="108.792"/>
  <use xlink:href="#glyph0-28" x="447.16668" y="108.792"/>
  <use xlink:href="#glyph0-30" x="450.235174" y="108.792"/>
  <use xlink:href="#glyph0-18" x="456.720855" y="108.792"/>
  <use xlink:href="#glyph0-26" x="463.206535" y="108.792"/>
</g>
<g clip-path="url(#clip3)" clip-rule="nonzero">
<path style=" stroke:none;fill-rule:nonzero;fill:rgb(52.938843%,80.784607%,67.254639%);fill-opacity:1;" d="M 475.671875 113.8125 L 533.105469 113.8125 L 533.105469 97.074219 L 475.671875 97.074219 Z M 475.671875 113.8125 "/>
</g>
<g style="fill:rgb(0%,0%,0%);fill-opacity:1;">
  <use xlink:href="#glyph0-19" x="489.882" y="108.792"/>
  <use xlink:href="#glyph0-28" x="496.367681" y="108.792"/>
  <use xlink:href="#glyph0-31" x="499.436174" y="108.792"/>
  <use xlink:href="#glyph0-16" x="505.921855" y="108.792"/>
  <use xlink:href="#glyph0-31" x="512.407535" y="108.792"/>
</g>
<g clip-path="url(#clip4)" clip-rule="nonzero">
<path style="fill:none;stroke-width:0.498;stroke-linecap:butt;stroke-linejoin:miter;stroke:rgb(0%,0%,0%);stroke-opacity:1;stroke-miterlimit:10;" d="M 0 0.00065625 L 533.105469 0.00065625 " transform="matrix(1,0,0,-1,0,115.778)"/>
</g>
<g style="fill:rgb(0%,0%,0%);fill-opacity:1;">
  <use xlink:href="#glyph0-2" x="5.978" y="130.531"/>
  <use xlink:href="#glyph0-42" x="12.742635" y="130.531"/>
</g>
<g style="fill:rgb(0%,0%,0%);fill-opacity:1;">
  <use xlink:href="#glyph0-38" x="18.823832" y="130.531"/>
  <use xlink:href="#glyph0-7" x="26.578753" y="130.531"/>
  <use xlink:href="#glyph0-12" x="36.356091" y="130.531"/>
</g>
<g style="fill:rgb(0%,0%,0%);fill-opacity:1;">
  <use xlink:href="#glyph0-43" x="47.611" y="130.531"/>
</g>
<g style="fill:rgb(0%,0%,0%);fill-opacity:1;">
  <use xlink:href="#glyph3-1" x="51.768" y="130.531"/>
</g>
<g style="fill:rgb(0%,0%,0%);fill-opacity:1;">
  <use xlink:href="#glyph4-1" x="63.54" y="130.531"/>
</g>
<g style="fill:rgb(0%,0%,0%);fill-opacity:1;">
  <use xlink:href="#glyph4-2" x="78.45431" y="130.531"/>
</g>
<g style="fill:rgb(0%,0%,0%);fill-opacity:1;">
  <use xlink:href="#glyph0-44" x="85.474" y="130.531"/>
</g>
<g style="fill:rgb(0%,0%,0%);fill-opacity:1;">
  <use xlink:href="#glyph0-45" x="139.842135" y="130.531"/>
</g>
<g style="fill:rgb(0%,0%,0%);fill-opacity:1;">
  <use xlink:href="#glyph0-45" x="176.036416" y="130.531"/>
</g>
<g style="fill:rgb(0%,0%,0%);fill-opacity:1;">
  <use xlink:href="#glyph0-19" x="212.119116" y="130.531"/>
  <use xlink:href="#glyph0-28" x="218.604796" y="130.531"/>
  <use xlink:href="#glyph0-32" x="221.67329" y="130.531"/>
  <use xlink:href="#glyph0-26" x="228.158971" y="130.531"/>
  <use xlink:href="#glyph0-26" x="234.644651" y="130.531"/>
</g>
<g style="fill:rgb(0%,0%,0%);fill-opacity:1;">
  <use xlink:href="#glyph0-19" x="260.350263" y="130.531"/>
  <use xlink:href="#glyph0-28" x="266.835943" y="130.531"/>
  <use xlink:href="#glyph0-27" x="269.904437" y="130.531"/>
  <use xlink:href="#glyph0-32" x="276.390118" y="130.531"/>
  <use xlink:href="#glyph0-31" x="282.875798" y="130.531"/>
</g>
<g style="fill:rgb(0%,0%,0%);fill-opacity:1;">
  <use xlink:href="#glyph0-45" x="313.463104" y="130.531"/>
</g>
<g style="fill:rgb(0%,0%,0%);fill-opacity:1;">
  <use xlink:href="#glyph0-19" x="350.508195" y="130.531"/>
  <use xlink:href="#glyph0-28" x="356.993876" y="130.531"/>
  <use xlink:href="#glyph0-29" x="360.06237" y="130.531"/>
  <use xlink:href="#glyph0-30" x="366.54805" y="130.531"/>
  <use xlink:href="#glyph0-18" x="373.033731" y="130.531"/>
</g>
<g style="fill:rgb(0%,0%,0%);fill-opacity:1;">
  <use xlink:href="#glyph0-19" x="399.715681" y="130.531"/>
  <use xlink:href="#glyph0-28" x="406.201361" y="130.531"/>
  <use xlink:href="#glyph0-27" x="409.269855" y="130.531"/>
  <use xlink:href="#glyph0-26" x="415.755536" y="130.531"/>
  <use xlink:href="#glyph0-32" x="422.241216" y="130.531"/>
</g>
<g style="fill:rgb(0%,0%,0%);fill-opacity:1;">
  <use xlink:href="#glyph0-45" x="452.828523" y="130.531"/>
</g>
<g style="fill:rgb(0%,0%,0%);fill-opacity:1;">
  <use xlink:href="#glyph0-19" x="489.887561" y="130.531"/>
  <use xlink:href="#glyph0-28" x="496.373242" y="130.531"/>
  <use xlink:href="#glyph0-29" x="499.441736" y="130.531"/>
  <use xlink:href="#glyph0-31" x="505.927416" y="130.531"/>
  <use xlink:href="#glyph0-31" x="512.413097" y="130.531"/>
</g>
<g clip-path="url(#clip5)" clip-rule="nonzero">
<path style="fill:none;stroke-width:0.498;stroke-linecap:butt;stroke-linejoin:miter;stroke:rgb(0%,0%,0%);stroke-opacity:1;stroke-miterlimit:10;" d="M 0 0.001375 L 533.105469 0.001375 " transform="matrix(1,0,0,-1,0,137.517)"/>
</g>
<g style="fill:rgb(0%,0%,0%);fill-opacity:1;">
  <use xlink:href="#glyph0-2" x="5.978" y="152.27"/>
  <use xlink:href="#glyph0-4" x="12.742635" y="152.27"/>
  <use xlink:href="#glyph0-14" x="20.28834" y="152.27"/>
  <use xlink:href="#glyph0-22" x="27.652726" y="152.27"/>
  <use xlink:href="#glyph0-7" x="37.346377" y="152.27"/>
  <use xlink:href="#glyph0-12" x="47.123715" y="152.27"/>
</g>
<g style="fill:rgb(0%,0%,0%);fill-opacity:1;">
  <use xlink:href="#glyph0-32" x="132.471" y="152.27"/>
  <use xlink:href="#glyph0-19" x="138.956681" y="152.27"/>
  <use xlink:href="#glyph0-18" x="145.442361" y="152.27"/>
</g>
<g style="fill:rgb(0%,0%,0%);fill-opacity:1;">
  <use xlink:href="#glyph0-19" x="163.88122" y="152.27"/>
  <use xlink:href="#glyph0-28" x="170.366901" y="152.27"/>
  <use xlink:href="#glyph0-32" x="173.435395" y="152.27"/>
  <use xlink:href="#glyph0-31" x="179.921075" y="152.27"/>
  <use xlink:href="#glyph0-26" x="186.406756" y="152.27"/>
</g>
<g style="fill:rgb(0%,0%,0%);fill-opacity:1;">
  <use xlink:href="#glyph0-19" x="212.112367" y="152.27"/>
  <use xlink:href="#glyph0-28" x="218.598048" y="152.27"/>
  <use xlink:href="#glyph0-32" x="221.666541" y="152.27"/>
  <use xlink:href="#glyph0-29" x="228.152222" y="152.27"/>
  <use xlink:href="#glyph0-30" x="234.637902" y="152.27"/>
</g>
<g style="fill:rgb(0%,0%,0%);fill-opacity:1;">
  <use xlink:href="#glyph0-19" x="260.343514" y="152.27"/>
  <use xlink:href="#glyph0-28" x="266.829194" y="152.27"/>
  <use xlink:href="#glyph0-27" x="269.897688" y="152.27"/>
  <use xlink:href="#glyph0-30" x="276.383369" y="152.27"/>
  <use xlink:href="#glyph0-26" x="282.869049" y="152.27"/>
</g>
<g style="fill:rgb(0%,0%,0%);fill-opacity:1;">
  <use xlink:href="#glyph0-19" x="301.307908" y="152.27"/>
  <use xlink:href="#glyph0-28" x="307.793589" y="152.27"/>
  <use xlink:href="#glyph0-17" x="310.862083" y="152.27"/>
  <use xlink:href="#glyph0-19" x="317.347763" y="152.27"/>
  <use xlink:href="#glyph0-16" x="323.833444" y="152.27"/>
</g>
<g style="fill:rgb(0%,0%,0%);fill-opacity:1;">
  <use xlink:href="#glyph0-19" x="350.515394" y="152.27"/>
  <use xlink:href="#glyph0-28" x="357.001075" y="152.27"/>
  <use xlink:href="#glyph0-31" x="360.069569" y="152.27"/>
  <use xlink:href="#glyph0-18" x="366.555249" y="152.27"/>
  <use xlink:href="#glyph0-30" x="373.04093" y="152.27"/>
</g>
<g style="fill:rgb(0%,0%,0%);fill-opacity:1;">
  <use xlink:href="#glyph0-19" x="399.708932" y="152.27"/>
  <use xlink:href="#glyph0-28" x="406.194612" y="152.27"/>
  <use xlink:href="#glyph0-27" x="409.263106" y="152.27"/>
  <use xlink:href="#glyph0-17" x="415.748787" y="152.27"/>
  <use xlink:href="#glyph0-19" x="422.234467" y="152.27"/>
</g>
<g style="fill:rgb(0%,0%,0%);fill-opacity:1;">
  <use xlink:href="#glyph0-19" x="440.687275" y="152.27"/>
  <use xlink:href="#glyph0-28" x="447.172955" y="152.27"/>
  <use xlink:href="#glyph0-30" x="450.241449" y="152.27"/>
  <use xlink:href="#glyph0-32" x="456.72713" y="152.27"/>
  <use xlink:href="#glyph0-19" x="463.21281" y="152.27"/>
</g>
<g style="fill:rgb(0%,0%,0%);fill-opacity:1;">
  <use xlink:href="#glyph0-19" x="489.880812" y="152.27"/>
  <use xlink:href="#glyph0-28" x="496.366493" y="152.27"/>
  <use xlink:href="#glyph0-31" x="499.434987" y="152.27"/>
  <use xlink:href="#glyph0-16" x="505.920667" y="152.27"/>
  <use xlink:href="#glyph0-16" x="512.406348" y="152.27"/>
</g>
<g style="fill:rgb(0%,0%,0%);fill-opacity:1;">
  <use xlink:href="#glyph2-1" x="16.438" y="159.353"/>
</g>
<g style="fill:rgb(0%,0%,0%);fill-opacity:1;">
  <use xlink:href="#glyph0-10" x="19.925" y="169.008"/>
  <use xlink:href="#glyph0-33" x="28.251777" y="169.008"/>
  <use xlink:href="#glyph0-14" x="32.394244" y="169.008"/>
  <use xlink:href="#glyph0-7" x="39.758629" y="169.008"/>
  <use xlink:href="#glyph0-12" x="49.535967" y="169.008"/>
  <use xlink:href="#glyph0-9" x="57.304836" y="169.008"/>
  <use xlink:href="#glyph0-18" x="64.948176" y="169.008"/>
</g>
<g style="fill:rgb(0%,0%,0%);fill-opacity:1;">
  <use xlink:href="#glyph0-32" x="132.471" y="169.008"/>
  <use xlink:href="#glyph0-31" x="138.956681" y="169.008"/>
  <use xlink:href="#glyph0-27" x="145.442361" y="169.008"/>
</g>
<g style="fill:rgb(0%,0%,0%);fill-opacity:1;">
  <use xlink:href="#glyph0-19" x="163.88122" y="169.008"/>
  <use xlink:href="#glyph0-28" x="170.366901" y="169.008"/>
  <use xlink:href="#glyph0-32" x="173.435395" y="169.008"/>
  <use xlink:href="#glyph0-32" x="179.921075" y="169.008"/>
  <use xlink:href="#glyph0-31" x="186.406756" y="169.008"/>
</g>
<g style="fill:rgb(0%,0%,0%);fill-opacity:1;">
  <use xlink:href="#glyph0-19" x="212.112367" y="169.008"/>
  <use xlink:href="#glyph0-28" x="218.598048" y="169.008"/>
  <use xlink:href="#glyph0-32" x="221.666541" y="169.008"/>
  <use xlink:href="#glyph0-27" x="228.152222" y="169.008"/>
  <use xlink:href="#glyph0-18" x="234.637902" y="169.008"/>
</g>
<g style="fill:rgb(0%,0%,0%);fill-opacity:1;">
  <use xlink:href="#glyph0-19" x="260.343514" y="169.008"/>
  <use xlink:href="#glyph0-28" x="266.829194" y="169.008"/>
  <use xlink:href="#glyph0-27" x="269.897688" y="169.008"/>
  <use xlink:href="#glyph0-16" x="276.383369" y="169.008"/>
  <use xlink:href="#glyph0-18" x="282.869049" y="169.008"/>
</g>
<g style="fill:rgb(0%,0%,0%);fill-opacity:1;">
  <use xlink:href="#glyph0-19" x="301.307908" y="169.008"/>
  <use xlink:href="#glyph0-28" x="307.793589" y="169.008"/>
  <use xlink:href="#glyph0-30" x="310.862083" y="169.008"/>
  <use xlink:href="#glyph0-19" x="317.347763" y="169.008"/>
  <use xlink:href="#glyph0-30" x="323.833444" y="169.008"/>
</g>
<g style="fill:rgb(0%,0%,0%);fill-opacity:1;">
  <use xlink:href="#glyph0-19" x="350.515394" y="169.008"/>
  <use xlink:href="#glyph0-28" x="357.001075" y="169.008"/>
  <use xlink:href="#glyph0-29" x="360.069569" y="169.008"/>
  <use xlink:href="#glyph0-26" x="366.555249" y="169.008"/>
  <use xlink:href="#glyph0-27" x="373.04093" y="169.008"/>
</g>
<g style="fill:rgb(0%,0%,0%);fill-opacity:1;">
  <use xlink:href="#glyph0-19" x="399.708932" y="169.008"/>
  <use xlink:href="#glyph0-28" x="406.194612" y="169.008"/>
  <use xlink:href="#glyph0-27" x="409.263106" y="169.008"/>
  <use xlink:href="#glyph0-32" x="415.748787" y="169.008"/>
  <use xlink:href="#glyph0-32" x="422.234467" y="169.008"/>
</g>
<g style="fill:rgb(0%,0%,0%);fill-opacity:1;">
  <use xlink:href="#glyph0-19" x="440.687275" y="169.008"/>
  <use xlink:href="#glyph0-28" x="447.172955" y="169.008"/>
  <use xlink:href="#glyph0-30" x="450.241449" y="169.008"/>
  <use xlink:href="#glyph0-26" x="456.72713" y="169.008"/>
  <use xlink:href="#glyph0-30" x="463.21281" y="169.008"/>
</g>
<g style="fill:rgb(0%,0%,0%);fill-opacity:1;">
  <use xlink:href="#glyph0-19" x="489.880812" y="169.008"/>
  <use xlink:href="#glyph0-28" x="496.366493" y="169.008"/>
  <use xlink:href="#glyph0-29" x="499.434987" y="169.008"/>
  <use xlink:href="#glyph0-27" x="505.920667" y="169.008"/>
  <use xlink:href="#glyph0-30" x="512.406348" y="169.008"/>
</g>
<g style="fill:rgb(0%,0%,0%);fill-opacity:1;">
  <use xlink:href="#glyph2-1" x="16.438" y="176.09"/>
</g>
<g style="fill:rgb(0%,0%,0%);fill-opacity:1;">
  <use xlink:href="#glyph0-22" x="19.925" y="185.745"/>
</g>
<g style="fill:rgb(0%,0%,0%);fill-opacity:1;">
  <use xlink:href="#glyph0-6" x="29.311802" y="185.745"/>
  <use xlink:href="#glyph0-6" x="36.857508" y="185.745"/>
  <use xlink:href="#glyph0-34" x="44.403213" y="185.745"/>
  <use xlink:href="#glyph0-8" x="51.530488" y="185.745"/>
  <use xlink:href="#glyph0-35" x="58.183541" y="185.745"/>
  <use xlink:href="#glyph0-34" x="65.561874" y="185.745"/>
  <use xlink:href="#glyph0-36" x="72.689149" y="185.745"/>
  <use xlink:href="#glyph0-8" x="77.026884" y="185.745"/>
  <use xlink:href="#glyph0-9" x="83.679937" y="185.745"/>
  <use xlink:href="#glyph0-8" x="91.323276" y="185.745"/>
  <use xlink:href="#glyph0-34" x="97.976329" y="185.745"/>
</g>
<path style=" stroke:none;fill-rule:nonzero;fill:rgb(52.938843%,80.784607%,67.254639%);fill-opacity:1;" d="M 0 207.503906 L 126.492188 207.503906 L 126.492188 190.765625 L 0 190.765625 Z M 0 207.503906 "/>
<g style="fill:rgb(0%,0%,0%);fill-opacity:1;">
  <use xlink:href="#glyph2-1" x="30.386" y="192.827"/>
</g>
<g style="fill:rgb(0%,0%,0%);fill-opacity:1;">
  <use xlink:href="#glyph0-37" x="33.873" y="202.482"/>
  <use xlink:href="#glyph0-38" x="40.637634" y="202.482"/>
  <use xlink:href="#glyph0-5" x="48.392556" y="202.482"/>
  <use xlink:href="#glyph0-35" x="54.139008" y="202.482"/>
</g>
<g style="fill:rgb(0%,0%,0%);fill-opacity:1;">
  <use xlink:href="#glyph0-3" x="61.168649" y="202.482"/>
  <use xlink:href="#glyph0-37" x="65.882971" y="202.482"/>
  <use xlink:href="#glyph0-39" x="72.647606" y="202.482"/>
  <use xlink:href="#glyph0-34" x="80.500161" y="202.482"/>
  <use xlink:href="#glyph0-40" x="87.627436" y="202.482"/>
</g>
<g style="fill:rgb(0%,0%,0%);fill-opacity:1;">
  <use xlink:href="#glyph0-38" x="97.753466" y="202.482"/>
  <use xlink:href="#glyph0-34" x="105.508387" y="202.482"/>
  <use xlink:href="#glyph0-41" x="112.635662" y="202.482"/>
</g>
<path style=" stroke:none;fill-rule:nonzero;fill:rgb(52.938843%,80.784607%,67.254639%);fill-opacity:1;" d="M 126.492188 207.503906 L 157.90625 207.503906 L 157.90625 190.765625 L 126.492188 190.765625 Z M 126.492188 207.503906 "/>
<g style="fill:rgb(0%,0%,0%);fill-opacity:1;">
  <use xlink:href="#glyph0-27" x="132.471" y="202.482"/>
  <use xlink:href="#glyph0-18" x="138.956681" y="202.482"/>
  <use xlink:href="#glyph0-19" x="145.442361" y="202.482"/>
</g>
<path style=" stroke:none;fill-rule:nonzero;fill:rgb(52.938843%,80.784607%,67.254639%);fill-opacity:1;" d="M 157.90625 207.503906 L 198.871094 207.503906 L 198.871094 190.765625 L 157.90625 190.765625 Z M 157.90625 207.503906 "/>
<g style="fill:rgb(0%,0%,0%);fill-opacity:1;">
  <use xlink:href="#glyph0-19" x="163.883" y="202.482"/>
  <use xlink:href="#glyph0-28" x="170.368681" y="202.482"/>
  <use xlink:href="#glyph0-32" x="173.437174" y="202.482"/>
  <use xlink:href="#glyph0-30" x="179.922855" y="202.482"/>
  <use xlink:href="#glyph0-32" x="186.408535" y="202.482"/>
</g>
<path style=" stroke:none;fill-rule:nonzero;fill:rgb(52.938843%,80.784607%,67.254639%);fill-opacity:1;" d="M 198.871094 207.503906 L 254.371094 207.503906 L 254.371094 190.765625 L 198.871094 190.765625 Z M 198.871094 207.503906 "/>
<g style="fill:rgb(0%,0%,0%);fill-opacity:1;">
  <use xlink:href="#glyph0-19" x="212.115" y="202.482"/>
  <use xlink:href="#glyph0-28" x="218.60068" y="202.482"/>
  <use xlink:href="#glyph0-32" x="221.669174" y="202.482"/>
  <use xlink:href="#glyph0-31" x="228.154855" y="202.482"/>
  <use xlink:href="#glyph0-30" x="234.640535" y="202.482"/>
</g>
<path style=" stroke:none;fill-rule:nonzero;fill:rgb(52.938843%,80.784607%,67.254639%);fill-opacity:1;" d="M 254.371094 207.503906 L 295.335938 207.503906 L 295.335938 190.765625 L 254.371094 190.765625 Z M 254.371094 207.503906 "/>
<g style="fill:rgb(0%,0%,0%);fill-opacity:1;">
  <use xlink:href="#glyph0-19" x="260.348" y="202.482"/>
  <use xlink:href="#glyph0-28" x="266.833681" y="202.482"/>
  <use xlink:href="#glyph0-27" x="269.902175" y="202.482"/>
  <use xlink:href="#glyph0-30" x="276.387855" y="202.482"/>
  <use xlink:href="#glyph0-17" x="282.873536" y="202.482"/>
</g>
<path style=" stroke:none;fill-rule:nonzero;fill:rgb(52.938843%,80.784607%,67.254639%);fill-opacity:1;" d="M 295.335938 207.503906 L 336.300781 207.503906 L 336.300781 190.765625 L 295.335938 190.765625 Z M 295.335938 207.503906 "/>
<g style="fill:rgb(0%,0%,0%);fill-opacity:1;">
  <use xlink:href="#glyph0-19" x="301.314" y="202.482"/>
  <use xlink:href="#glyph0-28" x="307.799681" y="202.482"/>
  <use xlink:href="#glyph0-30" x="310.868175" y="202.482"/>
  <use xlink:href="#glyph0-17" x="317.353855" y="202.482"/>
  <use xlink:href="#glyph0-17" x="323.839536" y="202.482"/>
</g>
<path style=" stroke:none;fill-rule:nonzero;fill:rgb(52.938843%,80.784607%,67.254639%);fill-opacity:1;" d="M 336.304688 207.503906 L 393.738281 207.503906 L 393.738281 190.765625 L 336.304688 190.765625 Z M 336.304688 207.503906 "/>
<g style="fill:rgb(0%,0%,0%);fill-opacity:1;">
  <use xlink:href="#glyph0-19" x="350.514" y="202.482"/>
  <use xlink:href="#glyph0-28" x="356.999681" y="202.482"/>
  <use xlink:href="#glyph0-31" x="360.068174" y="202.482"/>
  <use xlink:href="#glyph0-18" x="366.553855" y="202.482"/>
  <use xlink:href="#glyph0-29" x="373.039535" y="202.482"/>
</g>
<path style=" stroke:none;fill-rule:nonzero;fill:rgb(52.938843%,80.784607%,67.254639%);fill-opacity:1;" d="M 393.738281 207.503906 L 434.703125 207.503906 L 434.703125 190.765625 L 393.738281 190.765625 Z M 393.738281 207.503906 "/>
<g style="fill:rgb(0%,0%,0%);fill-opacity:1;">
  <use xlink:href="#glyph0-19" x="399.715" y="202.482"/>
  <use xlink:href="#glyph0-28" x="406.20068" y="202.482"/>
  <use xlink:href="#glyph0-26" x="409.269174" y="202.482"/>
  <use xlink:href="#glyph0-19" x="415.754855" y="202.482"/>
  <use xlink:href="#glyph0-19" x="422.240535" y="202.482"/>
</g>
<path style=" stroke:none;fill-rule:nonzero;fill:rgb(52.938843%,80.784607%,67.254639%);fill-opacity:1;" d="M 434.703125 207.503906 L 475.671875 207.503906 L 475.671875 190.765625 L 434.703125 190.765625 Z M 434.703125 207.503906 "/>
<g style="fill:rgb(0%,0%,0%);fill-opacity:1;">
  <use xlink:href="#glyph0-19" x="440.681" y="202.482"/>
  <use xlink:href="#glyph0-28" x="447.16668" y="202.482"/>
  <use xlink:href="#glyph0-30" x="450.235174" y="202.482"/>
  <use xlink:href="#glyph0-26" x="456.720855" y="202.482"/>
  <use xlink:href="#glyph0-29" x="463.206535" y="202.482"/>
</g>
<g clip-path="url(#clip6)" clip-rule="nonzero">
<path style=" stroke:none;fill-rule:nonzero;fill:rgb(52.938843%,80.784607%,67.254639%);fill-opacity:1;" d="M 475.671875 207.503906 L 533.105469 207.503906 L 533.105469 190.765625 L 475.671875 190.765625 Z M 475.671875 207.503906 "/>
</g>
<g style="fill:rgb(0%,0%,0%);fill-opacity:1;">
  <use xlink:href="#glyph0-19" x="489.882" y="202.482"/>
  <use xlink:href="#glyph0-28" x="496.367681" y="202.482"/>
  <use xlink:href="#glyph0-31" x="499.436174" y="202.482"/>
  <use xlink:href="#glyph0-16" x="505.921855" y="202.482"/>
  <use xlink:href="#glyph0-29" x="512.407535" y="202.482"/>
</g>
<g clip-path="url(#clip7)" clip-rule="nonzero">
<path style="fill:none;stroke-width:0.797;stroke-linecap:butt;stroke-linejoin:miter;stroke:rgb(0%,0%,0%);stroke-opacity:1;stroke-miterlimit:10;" d="M 0 -0.0001875 L 533.105469 -0.0001875 " transform="matrix(1,0,0,-1,0,209.617)"/>
</g>
</g>
</svg>
